<?xml version="1.0" encoding="utf-8"?>
<!-- Generator: Adobe Illustrator 23.0.1, SVG Export Plug-In . SVG Version: 6.00 Build 0)  -->
<svg version="1.1"
	 id="svg2" xmlns:cc="http://creativecommons.org/ns#" xmlns:dc="http://purl.org/dc/elements/1.1/" xmlns:rdf="http://www.w3.org/1999/02/22-rdf-syntax-ns#" xmlns:svg="http://www.w3.org/2000/svg"
	 xmlns="http://www.w3.org/2000/svg" xmlns:xlink="http://www.w3.org/1999/xlink" x="0px" y="0px" viewBox="0 0 281.9 291.2"
	 style="enable-background:new 0 0 281.9 291.2;" xml:space="preserve">
<style type="text/css">
	.st0{fill:#003399;}
	.st1{fill:#FFFFFF;}
	.st2{fill:none;}
	.st3{fill:#00993D;}
	.st4{fill:#FF6600;}
	.st5{fill:none;stroke:#003399;stroke-width:0.25;stroke-miterlimit:10;}
</style>
<g>
	<g id="g3501" transform="matrix(0.31971926,0,0,0.31971926,-220.59625,-102.39407)">
		<g id="g3503">
			<g id="g3505">
				<path id="path3507" class="st0" d="M1088.6,707.1c0-33.8,27.4-61.2,61.2-61.2l0,0c33.8,0,61.2,27.4,61.2,61.2l0,0
					c0,33.8-27.4,61.2-61.2,61.2l0,0C1116,768.3,1088.6,740.9,1088.6,707.1"/>
			</g>
		</g>
	</g>
	<g>
		<path class="st1" d="M133,111C133,111,132.9,111,133,111C132.9,111,133,111,133,111z"/>
		<path class="st1" d="M159.1,109.1L159.1,109.1C159.1,109.1,159.2,109.1,159.1,109.1z"/>
		<path class="st1" d="M158.6,108.4L158.6,108.4L158.6,108.4z"/>
		<path class="st1" d="M159.2,108.5C159.3,108.6,159.3,108.6,159.2,108.5L159.2,108.5z"/>
		<path class="st1" d="M159.6,108.7L159.6,108.7c-3.4-2.9-7.8-4.6-12.5-4.6c-6.5,0-12.2,3.1-15.7,7.9c-0.1,0.2-0.2,0.4-0.3,0.5l0,0
			c-0.3,0.4-0.7,1.4-0.9,2c0.3,0,0.8-0.6,1-0.8c0.5-0.5,1.1-0.8,1.7-1.3c0.2-0.3,0.7-0.6,0.8-0.9c0,0-0.1-0.5-0.1-0.7
			c-0.3,0.3-0.5,0.5-0.9,0.5c0,0,0.1-0.2,0.2-0.3c-0.1,0-0.1,0.1-0.2,0.2c0.3-0.6,0.4-0.8,0.8-1.1c-0.4,0.6-0.2,0.6,0.3,0.5v0.3
			c0,0,0.4,0,0.5,0c0.2,0,0.7-0.1,1-0.2l-0.1,0.2c0.1,0.1,0.1,0.1,0.2,0.2c0,0,0.1,0,0.2,0c-0.1,0-0.1,0.1-0.1,0.2
			c0.1,0,0.1,0.1,0.2,0.1c-0.3,0.3,0.1,0.9,0.4,0.2c0.1,0,0-0.1,0.1-0.1c0,0.1-0.1,0.4-0.2,0.4c-0.1,0.1-0.2,0.3-0.2,0.4l-0.1,0.3
			v0.1c0,0,0,0.1,0,0.2v0.1v0.3l0,0l0,0l0,0l0,0c0,0,0,0,0,0.1s0,0.2-0.1,0.4l0,0v0.2c0,0.1,0.2,0.6,0.1,0.6c0,0.1,0.1,0.2,0.1,0.2
			s0,0.2,0.1,0.2l0,0l0,0c0.5,0,0.7-1,1-1c0.4-1.1,1-1.1,2.1-1.6c0,0,0.1,0,0.1-0.1c0.5,0,0.7-0.4,1.1-0.4l0,0
			c0.4,0,0.6,0.1,0.7-0.3c0.6,0.3,0,0.7,0.6,0.8c0,0.4-0.2,0.9,0,1.1c0.4,0,0.7-0.3,0.9,0c-0.1,0.3,0.3,1,0,1.2
			c0.1,0.1,0.1,0.5,0,0.5c-0.4,0.3-0.1,0.7,0.3,0.8c-0.3,0-0.3,0.7-0.1,1c0.2,0.6,0.5,0.6,0.9,0.7c-0.2-0.2-0.2-0.4-0.1-0.7l0,0
			c0.1-0.7-1.2-1.1-0.8-1.8c0.4,0,0.4-1.4,1-0.3c0.1,0,0.6,0.6,0.6,0.6c0.2,0,0.1,0.6,0.1,0.5l0.4-0.1c0-0.1,0-0.2-0.1-0.3
			c0.1,0.1,0.1,0.2,0.2,0.2c0,0.1-0.1-0.2-0.2-0.3c0.2,0.1,0.2,0,0.4,0.1c0,0,0,0,0.1,0c2.3,0-0.1-1.9,0.2-2.4
			c0.2-0.4,1.1-0.3,1.4-0.3c0,0.1-0.1,0.5,0.2,0.3c0,0,0-0.1-0.1-0.1c0.1,0,0.1,0,0.2-0.1c0.3-0.1,1.1,0,1.1-0.2
			c0.3,0.3,1.4-0.1,1.4-0.1c0.4,0,0.5,0,0.5-0.3c0.2,0,0.6-0.2,0.8-0.3c0-0.1,0.1-0.3,0.2-0.3c-0.1,0-0.3-0.1-0.4-0.2
			c0.1,0,0.2,0,0.3-0.1c-0.1-0.1-0.3-0.2-0.4-0.3c0.2-0.1,0.2-0.4-0.1-0.4c0,0-0.1-0.3,0-0.3c0,0.1,0.5-0.6,0.4-0.3
			c0.2,0,0.5,0,0.6-0.1c-0.2-0.1-1.7-0.2-1.3-0.6c0.5,0,0.9-0.2,1.3,0c-0.1,0.1-0.5,0.2-0.2,0.2c-0.1,0-0.1,0-0.1,0.1l0,0
			c0.3-0.1,0.6-0.1,0.9,0c0,0,0.1,0.2,0.2,0.3l0,0c-0.1,0-0.1,0-0.2,0c0.1,0.2,0.1,0.1,0.2,0.2c0.1,0,0.4,0,0.4,0.2
			c-0.1,0-0.1,0.2,0,0.3c-0.1,0.1-0.2,0.2-0.2,0.3h0.6c0.6-0.2-0.2-0.7-0.3-1c0.4-0.2,1-0.6,1.4-0.5c0.1,0,0.4,0.2,0.6,0.2
			c0.2,0,0.3-0.3,0.6-0.3l0.4-0.4c0-0.2,0-0.4,0-0.7l0,0c0.1,0,0.1,0,0.1,0.1l0,0c-0.2-0.2-0.4-0.4-0.7-0.4v0.1c-0.1,0-0.1,0-0.2,0
			c0,0-0.4-0.3-0.5-0.4c0.1,0,0.6-0.3,0.6-0.3l0,0l0,0c0.1,0,0.1-0.1,0.2,0l0,0c0,0,0.1-0.1,0.1-0.2c0.2,0,0.3,0,0.6,0.2
			c0.2,0,0.4,0.2,0.6,0.3c-0.1-0.1-0.1-0.1,0.1-0.1c0.1,0,0.4,0.1,0.4,0.2h-0.1c0.2,0.1,0.3,0.1,0.5,0.2l0,0l0,0
			c0,0-0.3-0.2-0.2-0.2c0-0.1,0,0,0-0.1l0,0h0.1c0-0.1,0-0.1,0-0.1c0.2,0,0.5,0.3,0.7,0.4l0,0l0,0c0,0,0,0,0-0.1l0,0
			c0.1,0,0.1,0,0.1,0.1l0,0c-0.1-0.1-0.1-0.1-0.2-0.2c0.1,0,0.3,0.1,0.2,0.1c0.1,0.1,0.1,0.2,0.2,0.3c-0.2-0.1-0.1,0-0.2-0.1l0,0
			c0.1,0.2,0,0.3-0.2,0.2c0,0,0.2,0.2,0.1,0.2c-0.1,0.1-0.1,0.1,0.1,0.3c-0.1-0.1,1.1,1.3,0.7,0.7h0.2c0.1-0.1-0.2-0.3,0.1-0.2l0,0
			c-0.1-0.1-0.2-0.2-0.3-0.3h0.1c-0.2-0.2-0.4-0.5-0.5-0.6c0,0.1,0.1,0.3-0.1-0.1c0.1,0,0.1,0.1,0.2,0.1c0,0,0,0,0-0.1
			c0.1,0.1,0.1,0.1,0.2,0.2c0,0,0-0.1-0.1-0.1l0,0l0,0c0.2,0.1,0.3,0.2,0.5,0.3c-0.1-0.1,0-0.1-0.1-0.2l0,0l0,0l0,0c0,0,0,0-0.1-0.1
			h0.1c0,0,0,0-0.1,0c0,0,0.1,0.1,0.1,0c0,0,0,0,0.1,0l0,0C159.4,108.6,159.5,108.7,159.6,108.7z M136,111.2L136,111.2L136,111.2
			L136,111.2z"/>
	</g>
	<path class="st1" d="M156,108.1c0,0.1,0.4,0.9,0.6,1.1c-0.1,0-0.2-0.1-0.3-0.2c0.1,0.3,0,0.4,0.2,0.7c-0.2-0.1-0.3-0.1-0.3-0.1
		s0,0-0.1,0c0-0.2-0.3-1.3-0.2-1.3C156,108.2,155.9,108.1,156,108.1"/>
	<path class="st1" d="M159.5,108.6C159.4,108.6,159.5,108.6,159.5,108.6"/>
	<path class="st1" d="M159.6,108.7C159.3,108.5,159.7,108.8,159.6,108.7"/>
	<path class="st1" d="M157.8,108.6C157.8,108.6,157.9,108.7,157.8,108.6"/>
	<path class="st1" d="M158,108.7L158,108.7"/>
	<path class="st1" d="M159.1,109.1C159.1,109.1,159.2,109.1,159.1,109.1"/>
	<path class="st1" d="M156.1,109.7c0.2,0,0.9,0.7,1,0.8c-0.4-0.1-0.7-0.1-1.1-0.3c0,0.1,0.1,0.1,0.2,0.2l0,0c-0.3-0.1-0.1,0-0.3-0.3
		c0.2,0,0,0,0.1-0.1l0,0c0.1,0,0.3,0.1,0.3,0.1C156.2,110.2,156.1,109.6,156.1,109.7"/>
	<path class="st1" d="M158.6,109.8C158.5,109.6,158.9,109.8,158.6,109.8"/>
	<path class="st1" d="M158.5,109.9C158.5,109.8,158.6,109.9,158.5,109.9"/>
	<path class="st1" d="M158.5,110C158.5,109.9,158.5,110,158.5,110"/>
	<path class="st1" d="M158.2,110.2C158.3,110,158.2,110.3,158.2,110.2"/>
	<path class="st1" d="M157.9,110.2C157.9,110.2,158,110.2,157.9,110.2C157.9,110.3,157.9,110.3,157.9,110.2
		C157.8,110.3,157.9,110.2,157.9,110.2"/>
	<path class="st1" d="M158.2,110.2L158.2,110.2L158.2,110.2"/>
	<path class="st1" d="M157.6,110.3C157.7,110.1,157.7,110.3,157.6,110.3c0,0-0.2,0-0.3,0C157.3,110.2,157.6,110.3,157.6,110.3"/>
	<path class="st1" d="M157.1,110.4c0-0.1,0.1-0.1,0.2-0.1C157.3,110.4,157.2,110.4,157.1,110.4"/>
	<path class="st1" d="M152.4,110.4C152.4,110.4,152.4,110.5,152.4,110.4"/>
	<path class="st1" d="M157.4,110.5C157.4,110.5,157.4,110.6,157.4,110.5"/>
	<path class="st1" d="M156,110.5c0.2,0,0.6,0.6,0.2,0.6c0,0.3,0,0.4-0.1,0.5c0.1,0,0.1,0.1,0.1,0.1s-0.1,0.1-0.2,0.1
		c0-0.1,0-0.1,0.1-0.2l0,0H156c0,0.1,0,0.1,0,0.2c-0.2-0.1,0-0.1-0.1,0c-0.2,0-0.6-0.2-0.7-0.2c-0.1,0.2-0.6,0.2-0.3-0.1
		c-0.1,0-0.2-0.1-0.3-0.1s-0.3-0.1-0.5-0.1c-0.1-0.1-0.3,0-0.4-0.1c0.2,0,0.3,0,0.5,0c0.5,0,0.8,0.2,1.1-0.2c0.1,0,0,0.1-0.1,0.1
		s0,0.1,0,0.1c0.3,0,0.9-0.2,0.6-0.5C155.8,110.7,156,110.6,156,110.5"/>
	<path class="st1" d="M156.1,110.5C156.2,110.5,156.2,110.5,156.1,110.5C156.2,110.5,156.3,110.6,156.1,110.5"/>
	<path class="st1" d="M152.9,111L152.9,111"/>
	<path class="st1" d="M150.8,111.1c0-0.1,0.1-0.1,0.1,0C150.9,111.2,150.8,111.1,150.8,111.1"/>
	<path class="st1" d="M153,111C152.8,110.9,153,111,153,111"/>
	<path class="st1" d="M152.3,111.2C152.3,111.1,152.5,111.3,152.3,111.2"/>
	<path class="st1" d="M150.9,111.2C150.9,111.1,150.9,111.3,150.9,111.2"/>
	<path class="st1" d="M154.3,111.2C154.4,111.3,154.2,111.2,154.3,111.2z"/>
	<path class="st1" d="M131.8,111.3C131.9,111.2,131.8,111.4,131.8,111.3"/>
	<path class="st1" d="M132.8,111.3L132.8,111.3z"/>
	<path class="st1" d="M153.5,111.3c0,0,0.3,0.3,0.4,0.3c-0.1,0.2-0.3,0.4-0.4,0.2c-0.1,0-0.1,0.1-0.2,0c0-0.1,0.1-0.1,0.2-0.2
		c0.1,0.2-0.1-0.2-0.1-0.1c0.1,0.3-0.1,0.1-0.2,0l0.1,0.1c0-0.1-0.1-0.1-0.1-0.2c0.1,0,0,0,0,0C153.4,111.4,153.5,111.3,153.5,111.3
		"/>
	<path class="st1" d="M154.1,111.5L154.1,111.5c0.1,0,0.1,0,0.1,0l0,0l0,0l0,0c0.1,0,0.2,0,0.3,0.2c-0.2,0-0.3,0.1-0.4,0.1
		c-0.1-0.1-0.2-0.2-0.2-0.2C153.9,111.6,154.1,111.5,154.1,111.5"/>
	<path class="st1" d="M154.6,111.6L154.6,111.6"/>
	<path class="st1" d="M131.4,111.9C131.5,111.8,131.3,112,131.4,111.9"/>
	<line class="st2" x1="131.4" y1="111.9" x2="131.4" y2="111.9"/>
	<path class="st1" d="M131.4,111.9C131.4,112,131.3,112,131.4,111.9"/>
	<path class="st1" d="M131.3,112L131.3,112"/>
	<path class="st1" d="M131.3,112L131.3,112"/>
	<line class="st2" x1="131.3" y1="112" x2="131.3" y2="112"/>
	<path class="st1" d="M131.3,112c-0.4,0.5-0.9,1.4-1.1,2c0,0.4-0.1,0.7-0.2,1.1l0,0c0.3-0.2,0.6-0.4,0.9-0.6
		c0.3,0.2-1.5,2.7-1.8,3.1c-1.2,2-0.8,3.9-1.3,5.9c-0.2,0.7,0,1.5,0,2.2c0,1.1,0.2,2.4,0.4,3.5C126.6,123.2,127.7,117.1,131.3,112"
		/>
	<path class="st1" d="M153.4,112.1C153.3,112.1,153.5,112.2,153.4,112.1"/>
	<path class="st1" d="M153.6,112.1L153.6,112.1C153.7,112.1,153.4,112.1,153.6,112.1"/>
	<path class="st1" d="M153,112.5C152.9,112.4,153.1,112.5,153,112.5"/>
	<path class="st1" d="M150.6,112.6c0,0,0,0.6-0.3,0.6C149.9,113.3,150.3,112.6,150.6,112.6"/>
	<path class="st1" d="M152.3,112.6C152.4,112.6,152.4,112.7,152.3,112.6"/>
	<path class="st1" d="M152.6,112.7L152.6,112.7"/>
	<path class="st1" d="M146.4,113.2L146.4,113.2h0.1c0.2,0,0.4-0.1,0.5,0.1c-0.3,0-0.8,0.7-0.9-0.1
		C146.3,113.2,146.3,113.2,146.4,113.2"/>
	<path class="st1" d="M147.3,113.2L147.3,113.2"/>
	<path class="st1" d="M147.2,113.4c0.1-0.2-0.1,0.4-0.1,0.2C147.1,113.6,147.3,113.5,147.2,113.4"/>
	<path class="st1" d="M149.9,114.1C150,114.1,150,114.1,149.9,114.1c0.2,0,0.4,0.2,0.5,0.2s-0.5,0.9-0.4,1c0.2,0.3,0.7-0.2,0.7,0.6
		c-0.1-0.1-0.3-0.3-0.4-0.4c0,0.1,0,0.1,0,0.1c-0.3-0.1-0.7-0.2-0.5-0.5c-0.1,0-0.1,0-0.2-0.1c0-0.1,0-0.2-0.1-0.3l0,0
		c0,0,0.1,0.1,0.2,0.1C149.8,114.6,149.9,114.2,149.9,114.1"/>
	<path class="st1" d="M136.5,114.6C136.6,114.5,136.5,114.5,136.5,114.6c0.4-0.1,0.5,0.9-0.2,0.9c-0.3,0,0-0.6,0.1-0.7
		C136.4,114.8,136.6,114.6,136.5,114.6"/>
	<path class="st1" d="M149.5,115.4c0-0.2,0.4,0.2,0.4,0.4h-0.1l0,0C149.8,115.7,149.6,115.5,149.5,115.4"/>
	<path class="st1" d="M150.8,115.7C150.8,115.6,150.9,115.7,150.8,115.7"/>
	<path class="st1" d="M149.3,115.7l0.1,0.1C149.7,115.9,149.1,115.7,149.3,115.7"/>
	<path class="st1" d="M150,115.8C150,115.8,150,115.9,150,115.8"/>
	<path class="st1" d="M140.7,115.9c0-0.1,0.5,0.1,0.6,0.1l0,0l0,0l0,0l0,0c0.6,0.3,1.1,1.6,1.7,1.5c0.1,0,0.1,0,0,0.1
		c0.5,0.1-0.2,0.6,0.4,0.7c-0.1,0.1,0.8,1.6-0.2,1.2c-0.7,0-0.9-1.1-1.1-1.5c-0.2-0.4-0.5-0.9-0.7-1.2
		C141.2,116.6,140.7,116.2,140.7,115.9"/>
	<path class="st1" d="M149.1,115.9c0,0.2-0.3,0.6-0.9,0.6C148.2,116.2,149,116.2,149.1,115.9"/>
	<path class="st1" d="M150.8,116C150.8,116,150.9,116,150.8,116c0.3,0,0.3,0.3,0.3,0.5C151.1,116.5,150.8,116.1,150.8,116"/>
	<path class="st1" d="M150.4,116c0.1,0,0.2,0,0.3,0.2C150.4,116.2,150.3,116.1,150.4,116"/>
	<path class="st1" d="M150,116c0-0.1,0.1-0.1,0.3,0.1c-0.1,0.2-0.3,0.2-0.4,0.2C149.9,116.2,149.9,116.2,150,116"/>
	<path class="st1" d="M150.2,116.4c0.1-0.2,0.1-0.2,0.2-0.1c0,0-0.2,0.3-0.2,0.4c-0.2,0-0.2-0.2-0.3-0.3
		C150,116.5,150.1,116.5,150.2,116.4"/>
	<path class="st1" d="M150.8,116.4c0-0.2,0.3,0.2,0.2,0.3C150.8,116.6,151,116.4,150.8,116.4"/>
	<path class="st1" d="M150.5,116.4c0-0.2,0.1,0.1,0.1,0.1c-0.1,0-0.2,0.1-0.3,0.1C150.3,116.5,150.5,116.4,150.5,116.4"/>
	<path class="st1" d="M150.1,116.3L150.1,116.3"/>
	<path class="st1" d="M150.6,116.6L150.6,116.6c0.1,0,0.1,0,0.2,0.1C150.7,116.8,150.4,116.6,150.6,116.6"/>
	<path class="st1" d="M140.8,116.7C140.8,116.8,140.9,116.9,140.8,116.7"/>
	<path class="st1" d="M148.3,116.9c0,0.2,0.3,0.4,0.4,0.6c-0.1,0-0.2,0-0.3,0l0,0c0,0.2-0.8,0.6-0.1,1.1c-0.6,0-0.3,0.3-0.6,0.3l0,0
		l0,0l0,0c0.2,0-0.4,0.3-0.2,0.2c0.1,0.2-0.3,0.4-0.4,0.4c-0.2,0-0.4-0.1-0.6-0.1c-0.4-0.1-0.4-0.1-0.7-0.2
		c-0.2-0.1-0.3-0.1-0.4-0.2c-0.2-0.2,0.2-0.5-0.3-0.5c0.1-0.1-0.2-1.3,0.5-0.8c0.2,0,2.1-0.4,2-0.6c0.2-0.1,0.4-0.1,0.5-0.3
		C148.2,116.9,148.2,117,148.3,116.9z"/>
	<path class="st1" d="M150.9,116.9c0,0,0.1,0,0.2,0c0.3,0.2-0.1,0.7-0.2,0.8c0,0-0.1-0.1,0-0.1c-0.1,0,0,0.1-0.1,0
		c0,0.3,0,0-0.1,0.3c0,0.1,0-0.2,0-0.1c-0.5-0.1-0.3-0.3-0.3-0.5c-0.3-0.1-0.5-0.2-0.8-0.2c0.2,0,0.1-0.2,0.3-0.2
		c0.3,0,0.3,0.1,0.6,0C150.7,117,150.9,117.1,150.9,116.9"/>
	<path class="st1" d="M144.9,117.1c0-0.1,0-0.1,0.1-0.1C145,117.1,145,117.1,144.9,117.1"/>
	<path class="st1" d="M141.1,117.2c0-0.1,0.2,0.2,0.2,0.2C141.3,117.4,141.1,117.1,141.1,117.2"/>
	<path class="st1" d="M142.6,117.3C142.7,117.2,142.7,117.3,142.6,117.3"/>
	<path class="st1" d="M149.6,117.3C149.6,117.3,149.7,117.4,149.6,117.3"/>
	<path class="st1" d="M142.8,117.4C142.8,117.3,142.8,117.5,142.8,117.4"/>
	<path class="st1" d="M142.8,117.5C142.8,117.5,143,117.6,142.8,117.5"/>
	<path class="st1" d="M143.5,117.6L143.5,117.6L143.5,117.6C143.6,117.6,143.6,117.6,143.5,117.6
		C143.6,117.6,143.5,117.6,143.5,117.6"/>
	<path class="st1" d="M141.5,118L141.5,118c0.1,0,0.2,0.1,0.1,0.3C141.5,118.2,141.3,118,141.5,118"/>
	<path class="st1" d="M143.2,118C143.2,118,143.2,118.1,143.2,118"/>
	<path class="st1" d="M141.8,118.5C141.8,118.5,141.9,118.5,141.8,118.5"/>
	<path class="st1" d="M143.7,118.5c0.2-0.1,0.2,0.4,0.2,0.5c-0.2-0.2-0.2-0.2-0.3-0.3C143.7,118.5,143.6,118.6,143.7,118.5"/>
	<path class="st1" d="M148.5,118.9c0.1-0.1,1.4,0.1,1.6,0.1c0.3,0.1,0.2,0.3-0.4,0.2c-0.2,0-0.5-0.2-0.8-0.2
		c-0.2-0.1-0.2,0.3-0.1,0.4c0.1,0.2,0.6,0.1,0.9,0.2c-0.1,0.2-0.6,0.2-0.8,0.2c0.3,0.2,0.4,0.5,0.5,0.8c-0.2-0.1-0.3,0.2-0.5,0
		c-0.1-0.1,0.1-0.5-0.1-0.6c-0.3-0.1-0.3,0.4-0.3,0.6c-0.6,0-0.2-0.2-0.2-0.5c0-0.1-0.2-0.2-0.1-0.4
		C148.1,119.6,148.6,118.9,148.5,118.9"/>
	<path class="st1" d="M151.5,119.1c0.1-0.3,0.1,0,0.2,0.1l0,0C151.5,119.1,151.5,119.1,151.5,119.1"/>
	<path class="st1" d="M144.3,119L144.3,119c0.1,0,0.2,0,0.3,0C144.4,119.4,144.3,118.9,144.3,119"/>
	<path class="st1" d="M151.3,119c0.1-0.1,0,0.4,0,0.4c0-0.2,0.2,0,0.2,0c-0.1,0-0.1,0-0.2,0.1c0.1,0,0.1,0,0.1,0.2
		c-0.4-0.1-0.3-0.2-0.2,0.2l0,0C150.9,119.6,151.1,119.2,151.3,119"/>
	<path class="st1" d="M143.4,119.8c0.3-0.4,1,0.2,1.3,0.3c0.6,0.2,1,0.1,1.2,0.6c0.3,0,0.4,0.2,0.4,0.5c0-0.2-2.6-1-2.8-1
		c0-0.1,0.1,0,0.1-0.1c-0.1,0-0.1-0.1-0.2-0.1c-0.1,0-0.1,0-0.2-0.1C143.3,119.9,143.4,119.8,143.4,119.8"/>
	<path class="st1" d="M149.4,119.7c0.1,0,0.1,0,0.2,0.1C149.6,119.9,149.2,119.8,149.4,119.7"/>
	<path class="st1" d="M151,119.9C151,119.6,150.9,120,151,119.9"/>
	<path class="st1" d="M149.8,119.9c0.1-0.1,0.3,0,0.3,0.1C150,120,149.9,120,149.8,119.9"/>
	<path class="st1" d="M128.2,120C128.2,119.9,128.2,120.2,128.2,120"/>
	<path class="st1" d="M151.9,120c0-0.1,0.3,0.1,0.4,0.1C152.2,120.2,151.8,120,151.9,120"/>
	<path class="st1" d="M150.2,120C150.2,120,150.3,120,150.2,120c0.1,0,0.2,0,0.3,0C150.5,120.1,150.3,120,150.2,120"/>
	<path class="st1" d="M151,120.1L151,120.1C151.1,120.1,151,120.1,151,120.1L151,120.1"/>
	<path class="st1" d="M151.9,120.2C151.9,120.2,152,120.2,151.9,120.2"/>
	<path class="st1" d="M152,120.2C152,120.2,152.1,120.3,152,120.2"/>
	<path class="st1" d="M152.4,120.3c0.1-0.5,0.9,0.9,0.7,0.8c-0.1,0.2,0.1,0.2,0.3,0.2l0,0l0,0l0,0l0,0c0.3,0,0.4-0.2,0.8-0.1
		c0.2,0.1,0.4,0.3,0.5,0.4c0.3,0,1.1,0.8,1.3,1c0.2,0.3,0.8,1,0.4,1c0.2,0.4,0.4,1,0.6,1.4c0,0-1.5-1.4-1.7-1.4
		c-0.1,0-0.4,0.2-0.7,0.1c-0.4-0.2-0.5-0.6-1.1-0.6c0.1-0.1,0.3-0.1,0.4,0c0-0.6,0-0.8-0.6-1.3c-0.3-0.2-0.4-0.4-0.7-0.6
		c0,0-0.1,0.1-0.2,0.1c0-0.2-0.1-0.2-0.3-0.4l0,0c0.2,0.1,0.5,0.1,0.6,0.1c0-0.1-0.5-0.2-0.6-0.3c0-0.1,0-0.1-0.2-0.2
		C152.1,120.5,152.4,120.1,152.4,120.3"/>
	<path class="st1" d="M151.9,120.3c0-0.1,0.1-0.1,0.1,0S152,120.4,151.9,120.3"/>
	<path class="st1" d="M145.9,120.4l0.3,0.1C146.2,120.5,146,120.4,145.9,120.4L145.9,120.4"/>
	<path class="st1" d="M151.7,120.4L151.7,120.4C152,120.4,151.6,120.4,151.7,120.4"/>
	<path class="st1" d="M150.3,120.5c0.1-0.2,0.4,0.1,0.5,0.1C150.7,120.8,150.4,120.5,150.3,120.5"/>
	<path class="st1" d="M151.1,120.6c0-0.1,0.7,0.4,0.7,0.3C151.6,121,150.9,120.6,151.1,120.6"/>
	<path class="st1" d="M149.3,120.6c0-0.1,0.1,0.2,0.1,0.2c-0.2,0.1-0.2,0-0.3-0.1l0,0C149.3,120.7,149.3,120.8,149.3,120.6"/>
	<path class="st1" d="M148.9,120.8L148.9,120.8"/>
	<path class="st1" d="M146.4,121c0-0.1,0.2,0,0.3,0.1c0,0-0.1,0.1-0.2,0.1C146.5,121.1,146.4,121,146.4,121"/>
	<path class="st1" d="M146.8,121.3c0.1-0.1,0.1-0.2,0.2-0.1C146.9,121.4,146.9,121.3,146.8,121.3"/>
	<path class="st1" d="M147.3,121.3c0.1-0.1,0.4,0.3,0.4,0.3l0,0c-0.3-0.1-0.5-0.1-0.7-0.1c0.1-0.3,0.2-0.1,0.4,0l0,0
		C147.4,121.3,147.2,121.4,147.3,121.3"/>
	<path class="st1" d="M129,121.3c0,0,0.1,0.8,0.1,1c0,0,0-0.1-0.1-0.1c-0.1,0.1-0.1,1.4-0.1,1.7c0,0.4,0,1.9-0.5,1
		c-0.2-0.4-0.1-1-0.1-1.5c0-0.7,0.3-1.1,0.5-1.6l0,0l0,0l0,0C128.9,121.8,129,121.4,129,121.3"/>
	<path class="st1" d="M147.9,121.6c0-0.2,1,0.2,1.1,0.2c-0.1,0-0.1,0-0.1,0.1C148.6,121.8,148.3,121.7,147.9,121.6"/>
	<path class="st1" d="M147.6,121.9c0.1-0.2,0.5,0.1,0.6,0.2c0,0,0,0,0,0.1C147.8,122,148,122,147.6,121.9"/>
	<path class="st1" d="M149.2,121.8C149.2,121.8,149.2,121.9,149.2,121.8"/>
	<path class="st1" d="M150,121.9c0,0,0.3,0,0.3,0.1C150.1,122,149.9,121.8,150,121.9"/>
	<path class="st1" d="M149.3,121.9C149.4,121.8,149.4,121.9,149.3,121.9L149.3,121.9"/>
	<path class="st1" d="M149.5,121.9c0,0,0.1,0,0.2,0C149.6,122,149.5,121.9,149.5,121.9"/>
	<path class="st1" d="M152.7,122c0,0,0.3,0,0.1,0.2h0.1c0,0.1-0.2,0.1-0.2,0.1c0,0.1,0,0.1-0.1,0.1
		C152.7,122.1,152.7,122.1,152.7,122"/>
	<path class="st1" d="M149.5,122.1c0.1-0.2,0.6,0,0.8,0c0,0.1-0.6,0.2-0.6,0.2l0,0c-0.3-0.1-0.7,0.2-1,0.1
		C148.7,122.4,149.4,122.1,149.5,122.1"/>
	<path class="st1" d="M156.6,122.2c0.1-0.1,0.1-0.1,0.2,0.1C156.7,122.3,156.6,122.2,156.6,122.2"/>
	<path class="st1" d="M150.6,122.2C150.6,122.1,150.7,122.1,150.6,122.2"/>
	<path class="st1" d="M151.7,122.2L151.7,122.2c0.1,0-0.1,0.2-0.1,0.2l0,0C151.5,122.2,151.6,122.2,151.7,122.2"/>
	<path class="st1" d="M157.7,122.7L157.7,122.7c-0.1,0.1-0.1,0-0.2,0C157.6,122.7,157.6,122.7,157.7,122.7z"/>
	<path class="st1" d="M153.9,122.7L153.9,122.7C154.1,122.7,153.7,122.8,153.9,122.7"/>
	<path class="st1" d="M157.7,122.8c0-0.1,0.3,0.2,0.3,0.2C157.9,123,157.8,122.9,157.7,122.8"/>
	<path class="st1" d="M156.5,123C156.5,123,156.6,123.1,156.5,123"/>
	<path class="st1" d="M158,123.1c0,0,0.2,0.2,0.2,0.3c0,0-0.1,0-0.1,0.1C158.1,123.5,158,123.2,158,123.1"/>
	<path class="st1" d="M156.7,123.2C156.7,123.1,156.9,123.4,156.7,123.2"/>
	<path class="st1" d="M151.1,123.3C151.1,123.3,151.2,123.4,151.1,123.3C151,123.4,151.1,123.4,151.1,123.3"/>
	<path class="st1" d="M157.8,123.4c0-0.1,0.1-0.1,0.2,0c-0.1,0.4-0.7,0.5-1.1,0c0.1,0,0.4,0,0.5,0
		C157.3,123.7,157.8,123.4,157.8,123.4"/>
	<path class="st1" d="M151.4,123.3C151.4,123.3,151.3,123.5,151.4,123.3"/>
	<path class="st1" d="M151.2,123.4C151.3,123.2,151.2,123.5,151.2,123.4"/>
	<path class="st1" d="M151.6,123.4c0.1-0.1,0.3,0.2,0.4,0.2c0.1,0,0.7,0.4,0.8,0.4c0-0.1,0.1,0,0.2-0.1c0,0.1,0,0.1,0,0.2
		c-0.2-0.1-0.1,0.1-0.2,0.2c0,0-0.1-0.1-0.2-0.1c-0.2,0.5-0.1,0.4,0.1,0.8c0.1,0.1,0.5,0.8,0.6,0.8c0.6,0.2,0.8-0.8,1-1.2l0.3-0.4
		c0,0,0.1,0,0.1,0.1c0.1,0.4,0,0.8,0.1,1.1c0-0.1,0.1,0,0.1-0.1c0.2,0.2,0.2,0.6,0.2,0.9c-0.1,0.6-0.1,0.5,0.2,0.9
		c0.2,0.3,0.2,0.6,0.3,1c0,0,0.5,2,0,2c-0.1,0-0.5,0.7-0.7,0.8c-0.2,0-0.5,0.1-0.6,0.3c-0.3,0-0.7,0.8-0.9,0.8
		c-0.3,0.1-0.5-0.2-0.9,0.1c-0.1-0.1-0.2-0.3-0.2-0.4c0-0.1,0.2,0,0.1-0.1c-1.2,0.6-1.2-1.1-1.4-1.6c0.1,0,0.1,0,0.1,0
		c-0.1,0-0.3,0.1-0.4,0.2c0,0,0.4-0.4,0.5-0.5c-0.7-0.2-0.4,0.7-1-0.3c0.2-0.1-0.1-0.3-0.2-0.4c-0.2,0.1-0.7-0.3-1-0.3
		c-0.5-0.1-1-0.1-1.4-0.1s-0.5,0.1-0.9,0.1c-0.3-0.1-0.6-0.1-0.8-0.1c-0.5,0-0.8,0.2-1.1-0.4l0,0c0.4,0.2,0.3-0.7,0.3-0.9
		c-0.1-0.5-0.2-0.8-0.4-1.4l0.2,0.3l0,0c0-0.1,0-0.2-0.1-0.2l0.1,0.1c0.1-0.2,0-0.5-0.2-0.6c0.2,0,0.3-0.5,0.4-0.6l0,0
		c0,0.1-0.1,0,0,0.1c0.3,0.1,0.5-0.2,0.8-0.3c0.4-0.1,0.9,0,1.3-0.1c0.3-0.1,0.5-0.1,0.8-0.2c-0.1,0,0.2-0.4,0.4-0.5
		c0,0.1,0.1,0.2,0.1,0.3c0-0.2,0.1,0,0.1-0.3c0.3,0,0.2,0.2,0.3-0.1c0.1,0,0.1,0,0.2,0.1c0-0.2,0-0.1,0.1-0.1c0-0.1,0-0.1,0-0.1
		c0.1,0,0.1,0,0.2,0c0,0.1,0,0.1,0.1,0.1c0,0,0.1-0.1,0.1-0.2l0,0c0.3,0.1,0.6,0.2,0.4,0.5c0.2,0,0.3-0.1,0.6,0.1
		c0-0.1-0.1-0.2-0.1-0.3c0.2,0,0.2-0.1,0.4-0.1c-0.1-0.4,0.3-0.2,0.4-0.2C151.9,123.4,151.8,124.2,151.6,123.4"/>
	<path class="st1" d="M158.5,123.8c0,0.1,0.2,0.4,0.3,0.6C158.5,124.4,158.4,124,158.5,123.8"/>
	<path class="st1" d="M152.8,124.6c0-0.1,0.1-0.2,0.2-0.1c0,0.1,0,0.1,0,0.1C152.8,124.6,152.9,124.7,152.8,124.6"/>
	<path class="st1" d="M158.9,124.6c-0.1-0.3,0.1,0.1,0.2,0.2C158.9,124.7,159,124.7,158.9,124.6"/>
	<path class="st1" d="M157.1,124.7C157.2,124.6,157.3,124.8,157.1,124.7"/>
	<path class="st1" d="M157.2,124.8C157.3,124.8,157.1,124.8,157.2,124.8"/>
	<path class="st1" d="M159.3,125c0.1-0.1,0.2,0.3,0.2,0.3l0,0C159.4,125.2,159.3,125,159.3,125"/>
	<path class="st1" d="M159,125L159,125c0.1,0,0.1,0.1,0,0.2C159,125.1,158.9,125,159,125"/>
	<path class="st1" d="M159.7,125.5c0,0.1,0.1,0.2,0.1,0.3C159.7,125.7,159.7,125.6,159.7,125.5"/>
	<path class="st1" d="M153.4,125.5C153.6,125.4,153.3,125.7,153.4,125.5"/>
	<path class="st1" d="M159.4,125.6c0,0,0.2,0.2,0.2,0.3C159.4,125.7,159.5,125.7,159.4,125.6"/>
	<path class="st1" d="M144.8,125.8C144.8,125.7,144.9,125.8,144.8,125.8"/>
	<path class="st1" d="M159.7,126.1c0-0.1,0.1,0.3,0.1,0.2C159.9,126.3,159.6,126.1,159.7,126.1"/>
	<path class="st1" d="M160.5,128.4c0-0.1,0-0.2,0.1-0.1c-0.1,0.3,0,0,0.1,0.1c0,0.1-0.1,0.2-0.1,0.2
		C160.5,128.6,160.5,128.4,160.5,128.4"/>
	<path class="st1" d="M160.5,128.7c0-0.2,0.1,0.1,0,0.2C160.5,128.8,160.5,128.8,160.5,128.7"/>
	<path class="st1" d="M159.4,129.1c0,0,0.3,0.8,0.3,0.9C159.5,129.9,159.2,129.3,159.4,129.1"/>
	<path class="st1" d="M128.3,129.3C128.3,129.2,128.3,129.4,128.3,129.3z"/>
	<path class="st1" d="M128.3,129.3L128.3,129.3"/>
	<path class="st1" d="M128.3,129.3C128.3,129.3,128.3,129.4,128.3,129.3z"/>
	<path class="st1" d="M159.8,129.6C159.9,129.4,159.9,129.7,159.8,129.6"/>
	<path class="st1" d="M162.4,129.7h0.1C162.9,129.7,162.1,129.7,162.4,129.7"/>
	<path class="st1" d="M159.9,129.9C159.9,129.8,159.9,129.9,159.9,129.9"/>
	<path class="st1" d="M162.1,129.9C162.6,129.7,162,130.4,162.1,129.9"/>
	<line class="st2" x1="151.2" y1="130.2" x2="151.2" y2="130.2"/>
	<path class="st1" d="M150.8,130.6c0.1-0.1,0.2,0,0.3,0l0,0C150.9,130.7,150.9,130.7,150.8,130.6"/>
	<path class="st1" d="M155,131L155,131L155,131z"/>
	<path class="st1" d="M154.4,131.4L154.4,131.4z"/>
	<path class="st1" d="M151.9,132.3C152,132.1,152,132.4,151.9,132.3"/>
	<path class="st1" d="M151.9,132.7c0.1-0.3,0.5,0.2,0.9,0.1c-0.1,0.1-0.1,0.3-0.2,0.4c0,0-0.2,0.2-0.2,0.3c-0.1,0,0-0.1,0-0.1
		s-0.2,0.1-0.1,0.1c0,0,0,0,0.1,0c-0.2,0.3-0.5-0.5-0.2-0.4C152,133,151.9,132.8,151.9,132.7"/>
	<path class="st1" d="M152.9,132.6c0,0,0.1,0.1,0,0.1c0,0,0,0-0.1,0C152.8,132.8,152.8,132.6,152.9,132.6"/>
	<path class="st1" d="M158.7,133.6c0.1-0.1-0.1,0.8-0.1,1c0.1-0.1,0.1-0.1,0.2-0.1c-0.2,0.2-0.3,0.5,0.1,0.5c0,0.1-0.3,0.3-0.4,0.3
		c-0.4-0.3-1,0.8-0.6-0.1C158.1,134.7,158.8,134.3,158.7,133.6"/>
	<path class="st1" d="M158.8,134.3L158.8,134.3L158.8,134.3C158.8,134.3,158.9,134.4,158.8,134.3"/>
	<path class="st1" d="M157.3,135.1c0.1-0.1,0.2-0.1,0.3,0c-0.2,0.2-0.1,0.1,0.1,0.3c-0.2,0.3-0.6,0.3-0.8,0.5
		c0.1-0.1-0.6,0.1-0.6,0.1c-0.1,0-1.2,0.2-0.8-0.2C155.9,135.4,156.8,135.7,157.3,135.1"/>
	<path class="st1" d="M155.4,136.1c0.1-0.1,0,0.1-0.1,0.2C155.2,136.3,155.4,136.1,155.4,136.1"/>
	<g id="g3519" transform="matrix(0.31971926,0,0,0.31971926,-220.59625,-102.39407)">
		<g id="g3521">
			<g id="g3523">
				<g id="g3525">
					<path id="path3527" class="st1" d="M1112.1,748.7c0.9-0.2,1.7,0.5,2.1,1.3c0.4-0.1,0.9,0,1.5,0c0.4,0,0.6,0.1,0.6-0.2
						c0.5,0,0.9,0,1.3,0.1c0,0,0,0,0.1,0c0.7,0,1.2,0.4,1.6,1.2c0,0,0,0,0.1,0c0.2,0,0.3,0,0.4,0l0,0l0,0l0,0l0,0l0,0l0,0l0,0
						c0.4,0,1.2,0.7,1.6,1.1c0-0.1-0.1-0.1-0.1-0.2c0.2-0.1,0.5-0.4,0.6-0.7c0.1,0,0-0.2,0-0.2c-0.1-0.1-0.2,0-0.2-0.3
						c0.1,0,1-1.5,1.7-1.8l0,0l0,0c0.1,0,0.3-0.2,0.7-0.1c2.8,0,5.4,1.1,8.3,1.5c2.3,0.3,3.6-0.3,5.7,0.8c1,0.5,2.1,1.4,3.1,1.6
						c1.9,0.4,3.8-0.3,5.8,0.4s3.9,2.9,5.5,4c1,0,1.3,2.6,2,2.7c-0.3,0.3,0.9,1,0.2,1.8c0,0,0.4,0.1,0.3,0c-0.2,0.1-0.2,0.1-0.1,0.1
						c-2.3,0.9-4.9-0.1-7.3,1.1c-0.2-0.1-0.8,0.4-1.2,0.6h0.1c-0.1,0-0.6,0.3-0.8,0.4c-0.7,0-2.7-0.1-3.9,0.6c-0.3,0-0.7,0.2-1,0.3
						c-0.1,0-0.3,0.1-0.5,0.1c0,0-0.1,0.1-0.2,0.1l0,0l0,0c-0.1,0-0.2,0.1,0,0.2c0,0-0.3,0.1-0.5,0.1c0,0,0,0,0.1,0
						c-0.1,0,0.1,0,0,0h-0.2c-0.1,0-0.2,0-0.2,0l0,0h-0.1l0,0c0,0-0.3,0-0.1,0c0,0,0,0.1,0,0c0.2,0,0.6,0.1,0.6,0.1l0,0l0,0
						c0.1,0-0.4,0-0.5,0c0.1,0,0.1,0,0.2,0c0,0-0.6,0-0.4,0l0,0h0.1c-0.2,0-0.5,0-0.6,0l0,0h-0.1c-0.1,0-0.1-0.1-0.2,0
						c0.1,0,0.1,0,0,0c0.6,0.1,1.1,0.2,1.7,0.3c1.3,0,2.6,0.3,3.9,0.3c0.8,0,2.1,0.3,2.4,0.5l0,0l0,0c0,0,0.8,0,1.2,0l0,0
						c-0.1,0-0.4-0.1-0.4-0.1s0.7,0,0.9,0c0.3,0,0.8-0.1,1-0.1c0.1,0,0.2,0,0.2,0s0.1,0,0.2,0h0.1c0.6,0,0.8,0.1,1.3,0
						c0.4,0,0.8-0.1,1.3-0.1c0,0,0,0.2,0.1,0.2c-0.2,0.1-1.1,0.3-1.2,0.4c0.1,0,0.1,0.1,0.2,0.1c0.2,0,0.4,0,0.1,0.1h0.2l0,0
						c0,0,0,0,0.1,0.1c0.1,0,0.1,0,0.2,0c0.1,0.1,0.2,0.1,0.3,0c0.5,0,1.2,0,1.5,0c0.7,0.1,0.2,0,0.4,0.2c0.1,0,0.1,0,0,0
						c0,0,0.5,0.2,0.6,0.2s0.1,0,0.1,0l0,0c-0.7,0.2-1.6,0.3-2.3,0.3c-0.3,0.1-0.1,0.1,0.2,0.1c0.2,0,0.5,0,0.8,0c0.1,0,0.2,0,0.2,0
						l0,0l0,0l0,0c0,0,0,0,0.1,0c0.4,0,1,0,1.1,0h0.1c0,0,0,0,0.1,0l0,0c0.1,0,0.6,0,0.5,0c0.1,0-0.3,0.1-0.5,0.1l0,0c0,0,0,0-0.1,0
						l0,0h-0.1c-0.3,0-0.5,0.1-0.8,0.1c-0.2,0-0.4,0-0.5,0l0,0l0,0l0,0l0,0l0,0l0,0l0,0l0,0l0,0c0,0,0,0-0.1,0l0,0l0,0
						c0,0,0,0-0.1,0l0,0l0,0c-0.8,0-1.5,0.1-2.3,0.1c-0.2,0-0.3,0-0.5,0c-5,0.1-10-0.5-14.8-1.6l0,0l0,0c-0.2,0-0.7-0.2-0.4-0.1l0,0
						l0,0c-0.3-0.1-1.7-0.4-2.2-0.6c-0.2,0-0.6-0.2-0.6-0.2c-0.1,0-0.1,0-0.2-0.1l0,0l0,0l0,0c-4-1.6-8.5-3.1-12.7-5.4
						c0.1,0.1,0.2,0.1,0.4,0.2c-0.2-0.1-0.5-0.3-0.7-0.4c-0.9-0.5-2.5-1.5-3.7-2.3l0.3,0.2l0,0c-0.1-0.1-0.1-0.1,0,0l0,0
						c0,0,0,0,0.1,0c-0.1,0-0.1-0.2-0.2-0.1c0.2,0.1-0.6-0.6-0.8-0.7h0.1c-0.1,0-0.1,0,0,0c-0.5-0.4-1-0.9-1.5-1.3l0,0l0,0
						c0.1,0,0.2,0.1,0.3,0.1c0-0.1-0.2-0.3-0.2-0.3c0.1,0.1,0.3,0.1,0.4,0.2c0,0,0.1-0.1,0-0.2c0.1,0.1,0.2,0.1,0.3,0.1
						c-0.2-0.2-0.4-0.5-0.6-0.8c0,0-1-1.5-1.5-2l0,0c1.1,0.5,1.2,0.7,1.3,0.4c0,0,0.7,0.4,0.8,0.5c0,0-4.2-4-1.2-3
						C1112.6,750.1,1112,749.6,1112.1,748.7 M1132.3,765.7L1132.3,765.7 M1113.6,755.9L1113.6,755.9L1113.6,755.9 M1117.4,759
						C1117.4,759,1117.8,759.3,1117.4,759 M1117.6,759.2C1117.5,759.1,1117.6,759.1,1117.6,759.2 M1120.1,760.6
						C1119.9,760.5,1120.1,760.6,1120.1,760.6 M1120.9,761C1120.6,760.9,1120.6,760.9,1120.9,761 M1120.9,761L1120.9,761
						 M1120.9,761.1C1120.9,761,1121.2,761.2,1120.9,761.1 M1121,761.1C1121,761.1,1121.1,761.1,1121,761.1 M1121.1,761.1
						C1121,761.1,1121.3,761.2,1121.1,761.1 M1121.5,761.3C1121.4,761.3,1121.6,761.4,1121.5,761.3 M1147.7,763.4
						C1147.7,763.4,1147.8,763.4,1147.7,763.4c-0.1,0,0.1,0.4-0.6,0.4c-0.1-0.2,0.3,0-0.2-0.2
						C1147.3,763.6,1147.5,763.4,1147.7,763.4 M1148.8,765.7c-0.5,0-1.5-0.1-0.5-0.1C1148.5,765.6,1149.5,765.7,1148.8,765.7z
						 M1149.5,765.9c0.7,0-0.5,0.2-0.6,0.2c-0.4,0-1.1,0-1.6,0c-0.1-0.1,1.3-0.1,1.2-0.1h0.1
						C1148.9,765.9,1149.2,765.9,1149.5,765.9 M1133.7,766.1L1133.7,766.1 M1146.1,766.3c-1.3-0.1,0.9,0,1.4,0.1c0.1,0-0.1,0-0.1,0
						c-0.2,0-0.5,0-0.6,0C1146.7,766.4,1146.1,766.3,1146.1,766.3 M1134.9,766.4C1134.9,766.4,1135,766.5,1134.9,766.4
						 M1135.1,766.5C1134.9,766.4,1134.9,766.4,1135.1,766.5 M1154.4,766.7c0.2,0,0.2,0,0.3,0
						C1154.6,766.7,1154.3,766.8,1154.4,766.7L1154.4,766.7 M1153.2,766.7L1153.2,766.7C1153.4,766.7,1153.4,766.7,1153.2,766.7
						C1153.2,766.8,1153.2,766.8,1153.2,766.7C1153.1,766.8,1153.2,766.7,1153.2,766.7 M1151.7,766.8c0.4,0,0.8,0,1.2,0
						C1153.1,766.8,1151.6,766.9,1151.7,766.8"/>
				</g>
			</g>
		</g>
	</g>
</g>
<g>
	<path id="path4857" class="st3" d="M51.9,132.6c-2.4,0-4.2-0.6-5.1-2c-1.9-3.1,2-8.5,8.6-12.2c5.7-3.1,11.6-4,14.4-2.2
		c-3.7,2.9-7.3,6-10.8,9.2C56.7,127.6,54.3,130.1,51.9,132.6z M45.7,124c-4.7,2.6-9.6,2.9-11,0.8s1.4-6,6.1-8.6s9.6-2.9,11-0.8
		C53.2,117.6,50.4,121.4,45.7,124z M33.1,120.7c-3.2,1.7-6.5,2-7.4,0.5s0.9-4.1,4.1-5.8c3.2-1.7,6.5-2,7.4-0.5
		C38.1,116.4,36.2,119,33.1,120.7"/>
	<path id="path4859" class="st3" d="M204.6,122.3c6.8-5.9,12.3-12.1,15.6-18.2c3.4-6.2,4.1-11.9,1.1-16.2
		c-4.4-6.5-15.4-8.4-28.2-7.6c-0.2-3.6-0.4-7.3-0.7-10.9c31.3-1.6,46.3,10.9,34.5,32.7c-4,7.5-10.8,15.3-19.5,23
		C206.5,124.1,205.5,123.2,204.6,122.3L204.6,122.3z M189.9,133.5L189.9,133.5c1.9-1.3,3.7-2.6,5.6-3.9c0.9,1,1.8,2,2.7,3
		c-2.9,2.2-6,4.4-9.2,6.6C189.3,137.3,189.6,135.4,189.9,133.5z M145.7,156.2L145.7,156.2c8.9-3.4,17.7-7.4,26.1-11.8
		c-0.4,2-0.8,4-1.2,6c-6,3.3-12.3,6.5-18.7,9.4c-0.2-0.1-0.4-0.3-0.7-0.4C149.3,158.4,147.5,157.3,145.7,156.2L145.7,156.2z
		 M162.7,74L162.7,74c3.5-0.9,6.8-1.6,10.1-2.2c0.1,0.4,0.2,0.8,0.2,1.2c0.6,3.3,1.1,6.6,1.5,10c-1.5,0.3-3,0.7-4.5,1
		c-19.2,4.7-39.8,13.3-57.6,23.8c-17.4,10.3-32.9,22.5-40,35.5c-3.4,6.2-4.1,11.9-1.1,16.2c7,10.3,30.4,9.1,51.3,3.9
		c0.9-0.2,1.7-0.4,2.6-0.7c2.3,1.7,4.6,3.4,6.9,5c-8,2.9-16.1,5.4-24.2,7.4C57.3,187.5,28.5,175,43.6,147
		c3.1-5.7,7.8-11.6,13.7-17.5c6.1-6.1,14.4-12.7,21.4-17.6C102.1,95.7,132.9,81.4,162.7,74"/>
</g>
<g>
	<path id="path4855" class="st0" d="M202,201c1.2,2.1,1.5,4,0.8,5.4c-1.7,3.2-8.4,2.6-14.9-1.4c-5.6-3.4-9.2-8.1-9.1-11.4
		c4.4,1.8,8.8,3.4,13.3,4.7C195.3,199.4,198.6,200.3,202,201z M197.6,210.7c4.6,2.8,7.4,6.9,6.2,9.1c-1.2,2.3-5.9,1.8-10.5-1
		s-7.4-6.9-6.2-9.1C188.3,207.5,193,207.9,197.6,210.7L197.6,210.7z M201.1,223.3c3.1,1.9,5,4.6,4.2,6.1s-4,1.2-7.1-0.7
		s-5-4.6-4.2-6.1S198,221.4,201.1,223.3"/>
	<path id="path4863" class="st0" d="M116.7,74c-8.5-2.9-16.7-4.6-23.6-4.4c-7,0.2-12.3,2.4-14.6,7.1c-3.4,7.1,0.4,17.5,7.5,28.2
		c-3.1,2-6.1,4-9.1,6.1C59.9,84.6,63.2,65.4,88,64.7c8.5-0.2,18.7,1.7,29.7,5.4C117.3,71.4,117,72.7,116.7,74z M133.7,81.1
		L133.7,81.1c-2-1-4.1-2-6.2-2.9c0.4-1.3,0.8-2.5,1.3-3.8c3.4,1.4,6.8,3,10.3,4.7C137.3,79.7,135.5,80.4,133.7,81.1z M175.5,108
		L175.5,108c-7.4-6-15.3-11.7-23.3-16.7c1.9-0.7,3.9-1.3,5.8-2c5.9,3.6,11.8,7.4,17.5,11.5c0,0.3,0,0.5,0,0.8
		C175.5,103.8,175.5,105.9,175.5,108z M95.8,134.4L95.8,134.4c-2.5-2.6-4.8-5.1-7-7.7c2.8-2.5,5.8-4.8,8.8-7c1,1.1,2.1,2.3,3.1,3.3
		c13.7,14.3,31.4,27.8,49.4,38c17.6,9.9,35.9,17.3,50.8,16.9c7-0.2,12.3-2.4,14.6-7.1c5.4-11.2-7.3-30.8-22.3-46.4
		c-0.6-0.6-1.2-1.3-1.9-1.9c0.3-2.8,0.6-5.7,0.9-8.5c6.5,5.5,12.7,11.3,18.5,17.2c36.1,37.6,39.6,68.8,7.8,69.7
		c-14.8,0.4-33.8-6.3-47.4-12.6C145.3,176.3,117.2,156.7,95.8,134.4"/>
</g>
<g>
	<path id="path4861" class="st4" d="M186.2,36.9c1.2-2.1,2.7-3.3,4.3-3.4c3.6-0.1,6.4,6,6.2,13.6c-0.1,6.5-2.4,12-5.3,13.6
		c-0.7-4.7-1.5-9.3-2.6-13.9C188.1,43.5,187.2,40.2,186.2,36.9L186.2,36.9z M196.7,35.8c0.1-5.4,2.3-9.8,4.8-9.9s4.5,4.2,4.4,9.6
		s-2.3,9.8-4.8,9.9C198.6,45.5,196.6,41.2,196.7,35.8L196.7,35.8z M205.9,26.5c0.1-3.6,1.5-6.6,3.2-6.7s3,2.8,3,6.5
		c-0.1,3.6-1.5,6.6-3.2,6.7C207.1,33,205.8,30.1,205.9,26.5"/>
	<path id="path4865" class="st4" d="M118.8,174.2c1.7,8.8,4.3,16.8,8,22.7c3.7,6,8.3,9.5,13.5,9.1c7.8-0.6,15-9.1,20.7-20.6
		c3.2,1.7,6.5,3.3,9.8,4.8c-14.3,27.9-32.6,34.7-45.6,13.5c-4.5-7.2-7.8-17-10.1-28.4C116.3,175,117.5,174.6,118.8,174.2
		L118.8,174.2z M116.4,155.9L116.4,155.9c0.2,2.3,0.4,4.5,0.6,6.8c-1.3,0.3-2.6,0.5-4,0.8c-0.5-3.6-0.8-7.4-1.1-11.3
		C113.5,153.5,114.9,154.7,116.4,155.9z M118.9,106.3L118.9,106.3c-1.5,9.4-2.5,19-2.8,28.5c-1.6-1.3-3.1-2.7-4.6-4.1
		c0.1-6.9,0.5-13.9,1.2-20.9c0.2-0.1,0.4-0.3,0.7-0.4C115.2,108.4,117,107.3,118.9,106.3z M181.6,162.1L181.6,162.1
		c-1,3.4-2,6.7-3.1,9.9c-3.5-1.2-7.1-2.6-10.5-4.1c0.5-1.5,0.9-2.9,1.3-4.4c5.5-19,8.4-41.1,8.2-61.8c-0.2-20.2-3-39.8-10.8-52.4
		c-3.7-6-8.3-9.5-13.5-9.1c-12.4,0.9-23,21.8-29,42.5c-0.2,0.9-0.5,1.7-0.7,2.6c-2.6,1.1-5.2,2.3-7.8,3.5c1.5-8.4,3.4-16.6,5.7-24.6
		c14.5-50,39.8-68.7,56.4-41.6c3.3,5.3,6,12,8.1,19.7c2.4,8.9,4.2,20.9,4.9,30C192.9,100.2,189.9,133.2,181.6,162.1"/>
</g>
<path id="path4877" class="st0" d="M15.1,277.6v-40.8c0-0.8,0.1-1.3,0.3-1.7c0.2-0.4,0.6-0.6,1.2-0.9c0.8-0.2,2.1-0.5,4.2-0.7
	s4.3-0.3,6.9-0.3c2.8,0,5.4,0.2,7.7,0.5c2.4,0.3,4.5,1,6.3,2.1c1.4,0.9,2.7,2.1,3.7,3.5c1,1.5,1.6,3.5,1.6,5.8
	c0,2.6-0.7,4.7-2.1,6.4c-1.4,1.7-3.1,2.9-4.9,3.9c-0.2,0.2-0.5,0.2-0.7,0.4c-0.2,0.1-0.5,0.2-0.8,0.3c0.2,0.1,0.5,0.1,0.7,0.2
	c0.2,0.1,0.5,0.1,0.7,0.2c3.1,0.9,5.4,2.4,6.9,4.6c1.5,2.2,2.3,4.7,2.3,7.4c0,2.7-0.7,5-2.1,7c-1.4,2-3.3,3.4-5.7,4.4
	c-1.4,0.6-3.1,1-5,1.3c-2,0.3-4.7,0.5-8,0.5c-0.6,0-1.3,0-2,0c-0.6,0-1.3,0-2.1,0c-1.5-0.1-2.8-0.2-4.2-0.3c-1.3-0.1-2.4-0.2-3-0.5
	c-0.9-0.2-1.3-0.6-1.5-1S15.1,278.5,15.1,277.6L15.1,277.6z M26.5,259.2v15.1c0.6,0.1,1.1,0.1,1.6,0.2s0.9,0.1,1.4,0.1
	c0.5,0,0.9,0,1.6-0.1c0.6-0.1,1.3-0.2,1.9-0.4c0.2-0.1,0.6-0.2,0.8-0.3c0.2-0.1,0.6-0.2,0.8-0.5c0.6-0.5,1.1-0.9,1.5-1.5
	c0.4-0.6,0.6-1.1,0.9-1.7c0.2-0.5,0.3-0.9,0.3-1.4c0.1-0.5,0.1-0.9,0.1-1.3c0-0.2,0-0.6,0-0.9s-0.1-0.6-0.1-0.9
	c-0.1-0.6-0.2-1.2-0.4-1.7s-0.5-1.1-0.8-1.6c-0.2-0.2-0.3-0.4-0.5-0.6c-0.2-0.2-0.3-0.4-0.6-0.6c-0.6-0.6-1.3-1-2.4-1.4
	c-1-0.4-2.5-0.6-4.3-0.6c-0.2,0-0.5,0-0.6,0c-0.2,0-0.4,0-0.6,0c-0.2,0-0.2,0-0.3,0C26.7,259.2,26.6,259.2,26.5,259.2L26.5,259.2z
	 M26.5,239.9v13.6c0.1,0,0.2,0,0.2,0c0.1,0,0.2,0,0.3,0c0.1,0.1,0.2,0.1,0.3,0.1c0.1,0,0.2,0,0.4,0c0.5,0,0.9,0,1.4-0.1
	c0.5-0.1,1-0.2,1.6-0.2c1.3-0.3,2.4-0.9,3.5-2c1-1,1.6-2.6,1.6-4.8c0-1-0.2-2-0.5-2.8c-0.3-0.9-0.7-1.6-1.3-2.2
	c-0.4-0.4-0.9-0.7-1.3-0.9s-0.9-0.5-1.4-0.6c-0.4-0.1-0.8-0.2-1.2-0.2c-0.4,0-0.8,0-1.1,0c-0.5,0-0.9,0-1.3,0
	C27.3,239.8,26.9,239.9,26.5,239.9z M82.7,247.7v25.1c0,1.4-0.1,2.5-0.3,3.5c-0.2,0.9-0.9,1.9-2.1,2.8c-0.1,0.1-0.1,0.1-0.2,0.1
	c-0.1,0-0.1,0.1-0.2,0.1c-1,0.6-2.6,1.3-4.7,1.8c-2.1,0.6-4.5,0.8-7.3,0.8c-5.9,0-9.9-1.1-11.7-3.2c-1.8-2.1-2.8-4.7-2.8-7.8v-23.2
	c0-0.6,0.2-1,0.5-1.1c0.3-0.1,0.6-0.2,1-0.2h7.6c0.5,0,0.9,0.1,1.2,0.2c0.3,0.2,0.5,0.6,0.5,1.2v22.6c0,0.2,0,0.5,0,0.8
	s0.1,0.6,0.2,0.9c0.1,0.7,0.4,1.3,0.9,2c0.6,0.6,1.5,0.9,2.9,0.9c1.3,0,2.3-0.3,2.8-0.9s0.8-1.2,0.9-1.9c0.1-0.2,0.1-0.5,0.1-0.6
	c0-0.2,0-0.4,0-0.6v-23c0-0.5,0.1-0.9,0.2-1.1c0.2-0.2,0.6-0.4,1.1-0.4h7.8c0.5,0,0.8,0.1,1.1,0.2C82.6,246.7,82.7,247,82.7,247.7
	L82.7,247.7z M110.7,248.8l-11.2,26.4h10c0.6,0,0.9,0.1,1.1,0.2c0.2,0.2,0.3,0.6,0.3,1.1v3.2c0,0.6-0.2,0.9-0.4,1.1
	c-0.2,0.2-0.6,0.2-1.1,0.2H87.6c-0.1,0-0.2,0-0.2,0c-0.1,0-0.2,0-0.2-0.1c-0.2,0-0.3-0.1-0.5-0.2c-0.2-0.2-0.2-0.4-0.2-0.6l0,0v-0.1
	c0-0.1,0-0.2,0.1-0.4c0.1-0.2,0.2-0.5,0.3-0.9l11.5-26.6H89c-0.5,0-0.9-0.1-1-0.2c-0.2-0.2-0.3-0.6-0.3-1v-3.5
	c0.1-0.5,0.2-0.8,0.5-0.9c0.2-0.1,0.6-0.2,0.9-0.2h20.5c0.1,0,0.2,0,0.3,0c0.1,0,0.2,0,0.4,0.1c0.2,0.1,0.4,0.2,0.6,0.2
	c0.2,0.2,0.2,0.4,0.2,0.7c0,0.1,0,0.1,0,0.1v0.1c-0.1,0.2-0.1,0.2-0.2,0.4C110.9,248.1,110.7,248.4,110.7,248.8z M137.2,248.8
	L126,275.2h10c0.6,0,0.9,0.1,1.1,0.2c0.2,0.2,0.3,0.6,0.3,1.1v3.2c0,0.6-0.2,0.9-0.4,1.1c-0.2,0.2-0.6,0.2-1.1,0.2H114
	c-0.1,0-0.2,0-0.2,0c-0.1,0-0.2,0-0.2-0.1c-0.2,0-0.3-0.1-0.5-0.2c-0.2-0.2-0.2-0.4-0.2-0.6l0,0v-0.1c0-0.1,0-0.2,0.1-0.4
	c0.1-0.2,0.2-0.5,0.3-0.9l11.5-26.6h-9.3c-0.5,0-0.9-0.1-1-0.2c-0.2-0.2-0.3-0.6-0.3-1v-3.5c0.1-0.5,0.2-0.8,0.5-0.9
	c0.2-0.1,0.6-0.2,0.9-0.2H136c0.1,0,0.2,0,0.3,0c0.1,0,0.2,0,0.4,0.1c0.2,0.1,0.4,0.2,0.6,0.2c0.2,0.2,0.2,0.4,0.2,0.7
	c0,0.1,0,0.1,0,0.1v0.1c-0.1,0.2-0.1,0.2-0.2,0.4C137.3,248.1,137.2,248.4,137.2,248.8z M167.6,245.2c-0.1-0.2-0.2-0.3-0.3-0.5
	c-0.2-0.2-0.2-0.4-0.3-0.6c-0.2-0.2-0.2-0.4-0.4-0.6c-0.2-0.2-0.2-0.4-0.3-0.5c-0.6-0.9-1.3-1.7-2.2-2.4c-0.9-0.7-2-1.1-3.4-1.1
	c-2.3,0-4.3,1.3-5.8,3.8s-2.3,6.1-2.3,10.6c0,3.2,0.3,6,1,8.5c0.6,2.5,1.7,4.7,2.8,6.3c0.6,0.9,1.3,1.6,2,2.1
	c0.7,0.6,1.4,0.9,2.1,1.3c0.6,0.3,1.3,0.6,2.1,0.6c0.7,0.2,1.3,0.2,2,0.2c1.2,0,2.1-0.2,3-0.5c0.9-0.3,1.6-0.6,2.1-1
	c0.2-0.2,0.5-0.3,0.7-0.5c0.2-0.2,0.4-0.3,0.6-0.5c0.5-0.3,0.8-0.6,1.1-0.8c0.2-0.2,0.5-0.3,0.7-0.5c0.2-0.1,0.3-0.1,0.5-0.1
	s0.3,0,0.5,0c0.6,0,1.3,0.2,1.8,0.8c0.6,0.6,0.9,1.3,0.9,2.2c0,0.6-0.2,1.2-0.4,1.8c-0.2,0.7-0.6,1.4-1.2,2.1
	c-1.1,1.5-2.7,2.8-4.9,4c-2.2,1.2-5,1.8-8.4,1.8c-7.5,0-12.9-2.5-16.2-7.6c-3.3-5-5-10.6-5.1-16.6c0-0.2,0-0.2,0-0.4
	c0-0.2,0-0.2,0-0.4c0-7.6,2.1-13.6,6.2-18c4.1-4.3,9.1-6.5,15.1-6.5c3.8,0,6.9,0.7,9.4,2.2c2.4,1.5,4.2,3.2,5,4.9
	c0.2,0.5,0.5,1,0.6,1.5c0.2,0.6,0.2,1,0.2,1.5c0,1.3-0.5,2.4-1.3,3.3c-0.9,0.9-2.1,1.3-3.7,1.3c-1,0-1.8-0.2-2.4-0.6
	c-0.6-0.4-1.1-0.9-1.5-1.3c0-0.1,0-0.1-0.1-0.2C167.7,245.2,167.6,245.2,167.6,245.2L167.6,245.2z M211,263.1c0,0.1,0,0.1,0,0.2
	c0,0.1,0,0.2,0,0.2s0,0.2,0,0.2s0,0.2,0,0.2c0,5.4-1.5,9.7-4.4,13c-3,3.3-6.9,4.9-11.6,4.9c-4.5,0-8.3-1.6-11.3-4.7
	s-4.6-7.6-4.6-13.4c0-6.2,1.6-10.7,4.8-13.8c3.2-3.1,6.9-4.6,11.2-4.6c5.2,0,9.1,1.7,11.7,5.3c2.6,3.5,3.9,7.4,4.2,11.7
	c0.1,0.2,0.1,0.2,0.1,0.4C211,262.8,211,263,211,263.1L211,263.1z M199.8,262.7c-0.1-3.2-0.5-5.8-1.3-7.9c-0.9-2.1-2.1-3.2-3.7-3.2
	c-1.5,0-2.6,0.9-3.3,2.7c-0.7,1.8-1.2,3.8-1.3,5.9c0,0.4,0,0.8,0,1.3c0,0.4,0,0.9,0,1.3c0,0.6,0,1.1,0,1.7s0.1,1.1,0.2,1.7
	c0.2,2.2,0.7,4.2,1.5,6c0.8,1.8,1.9,2.8,3.3,2.8c1.5,0,2.6-0.9,3.4-2.9c0.7-2,1.2-4.1,1.3-6.4c0.1-0.4,0.1-0.7,0.1-1
	c0-0.3,0-0.6,0-0.9c0-0.2,0-0.2,0-0.4S199.8,262.9,199.8,262.7L199.8,262.7z M245.6,255v24.4c0,0.6-0.1,1-0.3,1.3
	c-0.2,0.2-0.7,0.3-1.4,0.3l-7.4,0.1c-0.6-0.1-0.9-0.2-1.1-0.4c-0.2-0.2-0.3-0.6-0.3-1.2v-22.9c0-1.1-0.1-1.9-0.2-2.5
	c-0.1-0.6-0.4-1.2-0.9-1.7c-0.4-0.3-0.8-0.6-1.2-0.8c-0.5-0.2-0.9-0.3-1.4-0.4c-0.2-0.1-0.2-0.1-0.4-0.1c-0.2,0-0.2,0-0.4,0
	c-1.5,0-2.6,0.4-3.2,1.1s-0.9,1.5-1.1,2.4c-0.1,0.4-0.1,0.8-0.1,1.1c0,0.3,0,0.6,0,0.9v23c0,0.6-0.2,1-0.5,1.2
	c-0.3,0.2-0.7,0.2-1.3,0.2l-7.4,0.1c-0.6-0.1-0.9-0.2-1.2-0.5c-0.2-0.2-0.3-0.6-0.4-1.3v-26.7c0-1.2,0.2-2.4,0.8-3.4
	c0.6-1.1,2.4-2,5.7-2.8c0.6-0.2,1.3-0.3,2-0.5c0.6-0.1,1.3-0.2,2.1-0.3c0.9-0.2,1.7-0.2,2.6-0.2c0.9-0.1,1.7-0.1,2.4-0.1
	c2.3,0,4.1,0.2,5.5,0.4s2.5,0.6,3.3,0.9c0.5,0.2,0.9,0.3,1.2,0.5c0.3,0.2,0.6,0.3,0.7,0.5c0.8,0.5,1.3,0.9,1.8,1.5
	c0.5,0.6,0.9,1.1,1.1,1.6c0.5,0.8,0.7,1.6,0.8,2.4C245.6,253.7,245.6,254.4,245.6,255L245.6,255z M267.7,250.8h-4.5v28.5
	c0,0.6-0.1,0.9-0.2,1.3c-0.2,0.3-0.6,0.5-1.2,0.5h-7.5c-0.6,0-1-0.1-1.3-0.3c-0.3-0.2-0.4-0.6-0.4-1.2v-28.7h-3.3
	c-0.5,0-0.8-0.1-1-0.2c-0.2-0.1-0.3-0.5-0.3-1c0-1.4,0.1-2.3,0.2-2.6c0.1-0.3,0.5-0.6,1.2-0.6h3.3c0.1-0.9,0.2-2,0.2-3.3
	s0.4-2.7,0.9-4.2c0.2-0.6,0.4-1.3,0.6-1.9c0.2-0.6,0.6-1.3,0.9-1.8c0.1-0.2,0.1-0.2,0.2-0.4c0.1-0.1,0.2-0.2,0.2-0.3
	c0.9-1.3,2.1-2.6,3.7-3.7s3.5-1.7,5.8-1.7c1.7,0,3,0.4,3.8,1.2c0.9,0.8,1.3,1.8,1.3,3.1c0,1.2-0.3,2.1-0.9,2.7s-1.3,0.9-2.2,1.1
	c-0.1,0-0.1,0-0.2,0c-0.1,0-0.2,0-0.2,0c-0.2,0-0.6,0-0.8-0.1c-0.2-0.1-0.5-0.2-0.8-0.2c-0.2-0.1-0.6-0.2-0.8-0.2
	c-0.2-0.1-0.6-0.1-0.8-0.1c-0.8,0-1.5,0.3-2.1,0.9c-0.6,0.6-0.9,1.4-0.9,2.5c0,0.5,0.1,1.2,0.2,2c0.2,0.8,0.6,1.7,1,2.6
	c0.2,0.3,0.3,0.6,0.5,0.9c0.2,0.3,0.4,0.6,0.6,0.9h4.7c0.5,0,0.8,0.1,0.9,0.2c0.2,0.2,0.2,0.5,0.2,0.9v2.6c-0.1,0.3-0.2,0.5-0.4,0.6
	C268.5,250.8,268.2,250.8,267.7,250.8"/>
<g id="g3501_1_" transform="matrix(0.31971926,0,0,0.31971926,-220.59625,-102.39407)">
	<g id="g3503_1_">
		<g id="g3505_1_">
			<path id="path3507_1_" class="st5" d="M1088.6,707.1c0-33.8,27.4-61.2,61.2-61.2l0,0c33.8,0,61.2,27.4,61.2,61.2l0,0
				c0,33.8-27.4,61.2-61.2,61.2l0,0C1116,768.3,1088.6,740.9,1088.6,707.1"/>
		</g>
	</g>
</g>
</svg>
