<?xml version="1.0" encoding="utf-8"?>
<!-- Generator: Adobe Illustrator 21.1.0, SVG Export Plug-In . SVG Version: 6.00 Build 0)  -->
<!DOCTYPE svg PUBLIC "-//W3C//DTD SVG 1.1//EN" "http://www.w3.org/Graphics/SVG/1.1/DTD/svg11.dtd">
<svg version="1.1" id="Layer_1" xmlns="http://www.w3.org/2000/svg" xmlns:xlink="http://www.w3.org/1999/xlink" x="0px" y="0px"
	 viewBox="0 0 480.2 329.4" style="enable-background:new 0 0 480.2 329.4;" xml:space="preserve">
<style type="text/css">
	.st0{fill:none;stroke:#000000;stroke-miterlimit:10;}
	.st1{fill:none;stroke:#000000;stroke-width:4;stroke-miterlimit:10;}
</style>
<g>
	<path d="M124.9,171.2h-0.7c-0.1-0.2-0.2-0.5-0.3-0.8s-0.3-0.6-0.5-0.9c-0.2-0.3-0.4-0.6-0.6-0.8s-0.5-0.4-0.7-0.4s-0.5,0-0.8-0.1
		c-0.3,0-0.6,0-0.9,0h-0.6v11.1c0,0.2,0,0.4,0.1,0.6s0.3,0.3,0.5,0.4c0.1,0,0.4,0.1,0.7,0.2s0.7,0.1,0.9,0.1v0.7h-6.5v-0.7
		c0.2,0,0.5,0,0.8-0.1s0.6-0.1,0.8-0.1c0.2-0.1,0.4-0.2,0.5-0.4s0.2-0.4,0.2-0.6v-11.2h-0.6c-0.2,0-0.5,0-0.8,0s-0.6,0-0.9,0.1
		c-0.2,0-0.4,0.2-0.7,0.4s-0.4,0.5-0.6,0.8s-0.4,0.6-0.5,0.9s-0.3,0.6-0.3,0.8h-0.7v-3.8h12.1v3.8H124.9z"/>
	<path d="M155.6,181.3h-5.8v-0.7c0.2,0,0.4,0,0.7-0.1s0.5-0.1,0.6-0.1c0.2-0.1,0.3-0.2,0.4-0.4s0.1-0.4,0.1-0.6v-4.9h-6.5v4.8
		c0,0.2,0,0.4,0.1,0.6s0.2,0.3,0.4,0.4c0.1,0.1,0.3,0.1,0.6,0.2s0.5,0.1,0.7,0.1v0.7h-5.8v-0.7c0.2,0,0.4,0,0.7-0.1s0.5-0.1,0.6-0.1
		c0.2-0.1,0.3-0.2,0.4-0.4s0.1-0.4,0.1-0.6v-10c0-0.2,0-0.4-0.1-0.6s-0.2-0.3-0.4-0.4c-0.2-0.1-0.4-0.2-0.6-0.2s-0.5-0.1-0.6-0.1
		v-0.7h5.8v0.7c-0.2,0-0.4,0-0.7,0.1s-0.5,0.1-0.6,0.1c-0.2,0.1-0.4,0.2-0.4,0.4s-0.1,0.4-0.1,0.6v4.3h6.5v-4.2c0-0.2,0-0.4-0.1-0.6
		s-0.2-0.3-0.4-0.4c-0.2-0.1-0.4-0.2-0.6-0.2s-0.5-0.1-0.6-0.1v-0.7h5.8v0.7c-0.2,0-0.4,0-0.7,0.1s-0.5,0.1-0.6,0.1
		c-0.2,0.1-0.4,0.2-0.4,0.4s-0.1,0.4-0.1,0.6v10c0,0.2,0,0.4,0.1,0.6s0.2,0.3,0.4,0.4c0.1,0.1,0.3,0.1,0.6,0.2s0.5,0.1,0.7,0.1v0.7
		H155.6z"/>
	<path d="M184.4,177.2l-0.3,4.1h-11.5v-0.7c0.2,0,0.5,0,0.8-0.1s0.5-0.1,0.6-0.1c0.2-0.1,0.4-0.2,0.4-0.4s0.1-0.4,0.1-0.6v-10
		c0-0.2,0-0.4-0.1-0.6s-0.2-0.3-0.4-0.4c-0.2-0.1-0.4-0.2-0.7-0.2s-0.5-0.1-0.7-0.1v-0.7h10.7v3.3h-0.7c-0.1-0.5-0.4-1-0.8-1.6
		s-0.8-0.9-1.2-0.9c-0.2,0-0.4,0-0.7-0.1s-0.6,0-1,0h-2.2v5.5h1.6c0.5,0,0.9,0,1.1-0.1s0.4-0.3,0.6-0.5c0.1-0.2,0.3-0.4,0.4-0.8
		s0.2-0.6,0.2-0.9h0.7v5.4h-0.8c0-0.3-0.1-0.6-0.2-1s-0.2-0.6-0.4-0.8c-0.2-0.3-0.4-0.4-0.7-0.5s-0.6-0.1-1-0.1h-1.6v4.2
		c0,0.4,0,0.7,0.1,1c0.1,0.2,0.2,0.4,0.3,0.5s0.4,0.2,0.7,0.2s0.7,0.1,1.3,0.1c0.2,0,0.5,0,0.8,0s0.6,0,0.9,0c0.2,0,0.5-0.1,0.8-0.1
		s0.5-0.2,0.6-0.3c0.3-0.3,0.6-0.8,0.9-1.4s0.5-1.1,0.6-1.4L184.4,177.2L184.4,177.2z"/>
	<path d="M234,181.3h-5.8v-0.7c0.5,0,0.9-0.1,1.3-0.2c0.3-0.1,0.5-0.2,0.5-0.4c0-0.1,0-0.1,0-0.2s0-0.2-0.1-0.2l-1.1-3.1h-4.9
		c-0.2,0.5-0.3,0.9-0.4,1.2c-0.1,0.3-0.2,0.7-0.3,0.9c-0.1,0.3-0.1,0.5-0.2,0.7s0,0.3,0,0.4c0,0.3,0.2,0.5,0.6,0.6s0.9,0.2,1.4,0.3
		v0.7h-5.2v-0.7c0.2,0,0.4-0.1,0.6-0.1s0.5-0.1,0.6-0.2c0.3-0.2,0.5-0.4,0.6-0.6s0.3-0.5,0.4-0.8c0.7-1.7,1.5-3.7,2.3-5.9
		s1.6-4.1,2.2-5.8h0.8l4.6,12c0.1,0.3,0.2,0.5,0.3,0.6s0.3,0.3,0.5,0.5c0.1,0.1,0.3,0.2,0.6,0.2s0.4,0.1,0.6,0.1v0.7H234z
		 M228.4,175.6l-2.1-5.4l-2.1,5.4H228.4z"/>
	<path d="M263.1,181.3h-3.7c-0.8-1.3-1.6-2.4-2.2-3.4s-1.4-1.9-2.2-2.9h-1.4v4.4c0,0.2,0,0.4,0.1,0.6s0.2,0.3,0.5,0.4
		c0.1,0,0.3,0.1,0.6,0.1s0.5,0.1,0.7,0.1v0.7h-5.9v-0.7c0.2,0,0.4,0,0.7-0.1s0.5-0.1,0.6-0.1c0.2-0.1,0.3-0.2,0.4-0.4
		s0.1-0.4,0.1-0.6v-10c0-0.2,0-0.4-0.1-0.6s-0.2-0.3-0.5-0.4c-0.2-0.1-0.4-0.1-0.6-0.2s-0.5-0.1-0.7-0.1v-0.7h6.4
		c0.6,0,1.1,0.1,1.7,0.2s1,0.3,1.4,0.6s0.7,0.6,1,1s0.4,0.9,0.4,1.5c0,0.5-0.1,1-0.2,1.4s-0.4,0.8-0.7,1.1c-0.3,0.3-0.6,0.5-1.1,0.7
		s-0.9,0.4-1.4,0.5c0.7,0.9,1.3,1.7,1.7,2.3s1,1.4,1.7,2.3c0.3,0.4,0.5,0.7,0.8,0.9s0.5,0.3,0.7,0.5c0.2,0.1,0.4,0.1,0.6,0.2
		s0.5,0.1,0.6,0.1V181.3z M258,171c0-0.8-0.2-1.5-0.7-2s-1.2-0.7-2-0.7h-1.7v5.9h1.3c0.9,0,1.6-0.3,2.2-0.9S258,172,258,171z"/>
	<path d="M290.2,171.2h-0.7c-0.1-0.2-0.2-0.5-0.3-0.8s-0.3-0.6-0.5-0.9c-0.2-0.3-0.4-0.6-0.6-0.8s-0.5-0.4-0.7-0.4s-0.5,0-0.8-0.1
		s-0.6,0-0.9,0h-0.6v11.1c0,0.2,0,0.4,0.1,0.6s0.3,0.3,0.5,0.4c0.1,0,0.4,0.1,0.7,0.2s0.7,0.1,0.9,0.1v0.7h-6.5v-0.7
		c0.2,0,0.5,0,0.8-0.1s0.6-0.1,0.8-0.1c0.2-0.1,0.4-0.2,0.5-0.4s0.2-0.4,0.2-0.6v-11.2h-0.6c-0.2,0-0.5,0-0.8,0s-0.6,0-0.9,0.1
		c-0.2,0-0.4,0.2-0.7,0.4s-0.4,0.5-0.6,0.8s-0.4,0.6-0.5,0.9s-0.3,0.6-0.3,0.8H278v-3.8h12.1v3.8H290.2z"/>
	<path d="M337.7,169.1c0.6,0.6,1.1,1.4,1.4,2.3s0.5,1.9,0.5,3s-0.2,2.1-0.5,3s-0.8,1.7-1.5,2.3c-0.6,0.6-1.3,1.1-2.1,1.4
		s-1.7,0.5-2.6,0.5c-1,0-1.9-0.2-2.7-0.5s-1.5-0.9-2.1-1.5s-1-1.4-1.4-2.3s-0.5-1.9-0.5-2.9c0-1.1,0.2-2.1,0.5-3s0.8-1.6,1.5-2.3
		c0.6-0.6,1.3-1.1,2.1-1.5s1.7-0.5,2.5-0.5c0.9,0,1.8,0.2,2.6,0.5S337.1,168.5,337.7,169.1z M336.2,178.9c0.4-0.6,0.6-1.3,0.8-2
		s0.2-1.6,0.2-2.5c0-1-0.1-1.8-0.3-2.6s-0.5-1.5-0.8-2c-0.4-0.6-0.8-1-1.3-1.3s-1.2-0.5-1.9-0.5c-0.8,0-1.4,0.2-2,0.5
		s-1,0.8-1.3,1.4c-0.3,0.6-0.6,1.2-0.7,2s-0.2,1.6-0.2,2.4c0,0.9,0.1,1.8,0.3,2.5s0.4,1.4,0.8,2s0.8,1,1.3,1.3s1.2,0.5,1.9,0.5
		c0.7,0,1.3-0.2,1.9-0.5S335.9,179.5,336.2,178.9z"/>
	<path d="M367.3,170.9h-0.7c-0.1-0.5-0.4-1.1-0.9-1.7s-0.8-0.9-1.2-1c-0.2,0-0.4,0-0.7-0.1s-0.6,0-0.9,0h-2.4v5.6h1.6
		c0.5,0,0.9-0.1,1.1-0.2s0.5-0.3,0.7-0.5c0.1-0.1,0.2-0.4,0.4-0.7c0.1-0.3,0.2-0.6,0.2-1h0.7v5.4h-0.7c0-0.3-0.1-0.6-0.2-1
		c-0.1-0.4-0.2-0.6-0.4-0.8c-0.2-0.2-0.4-0.4-0.7-0.5s-0.7-0.1-1.1-0.1h-1.6v4.8c0,0.2,0,0.4,0.1,0.6s0.2,0.3,0.4,0.4
		c0.1,0,0.3,0.1,0.6,0.2s0.6,0.1,0.7,0.1v0.7h-6v-0.7c0.2,0,0.5,0,0.8-0.1s0.5-0.1,0.6-0.1c0.2-0.1,0.3-0.2,0.4-0.4s0.1-0.4,0.1-0.6
		v-10c0-0.2,0-0.4-0.1-0.6s-0.2-0.3-0.4-0.4c-0.2-0.1-0.4-0.2-0.7-0.2s-0.5-0.1-0.7-0.1v-0.7h10.9v3.7H367.3z"/>
</g>
<g>
	<path d="M16.7,222.9c0,1.3-0.4,2.3-1.3,3.2c-0.9,0.9-2,1.3-3.2,1.3c-1.3,0-2.3-0.4-3.2-1.3s-1.3-2-1.3-3.2c0-1.3,0.4-2.3,1.3-3.2
		c0.9-0.9,2-1.3,3.2-1.3c1.3,0,2.3,0.4,3.2,1.3C16.3,220.5,16.7,221.6,16.7,222.9z"/>
	<path d="M54.4,221.3c1,0.7,1.9,1.6,2.6,2.8c0.7,1.2,1,2.5,1,4.2s-0.4,3.1-1.1,4.4c-0.7,1.2-1.7,2.3-2.8,3c-1.1,0.8-2.4,1.4-3.8,1.8
		c-1.4,0.4-2.9,0.6-4.4,0.6H28.8v-1.8c0.4,0,1-0.1,1.8-0.2s1.3-0.2,1.7-0.4c0.5-0.2,0.9-0.6,1.1-1c0.2-0.4,0.3-0.9,0.3-1.5v-25.9
		c0-0.6-0.1-1.1-0.3-1.5s-0.6-0.8-1.2-1.1c-0.5-0.3-1.1-0.4-1.7-0.6c-0.6-0.1-1.2-0.2-1.6-0.3V202h16.6c1.3,0,2.5,0.1,3.7,0.4
		s2.3,0.7,3.4,1.3c1,0.6,1.8,1.4,2.5,2.4c0.6,1,1,2.3,1,3.7c0,1.3-0.2,2.4-0.7,3.4s-1.1,1.8-1.9,2.6c-0.8,0.7-1.7,1.2-2.7,1.7
		s-2.1,0.8-3.3,1.1v0.2c1,0.1,2.2,0.4,3.5,0.8C52.2,220,53.4,220.6,54.4,221.3z M48.2,215.8c0.6-0.7,1.1-1.5,1.3-2.4
		s0.4-1.9,0.4-3.1c0-2-0.5-3.5-1.6-4.7c-1.1-1.1-2.8-1.7-5.1-1.7c-0.5,0-1.2,0-2,0s-1.5,0-2.1,0.1v13.9h3.2c1.4,0,2.6-0.2,3.6-0.5
		C46.8,217.1,47.6,216.6,48.2,215.8z M51.7,227.3c0-2.1-0.7-3.9-2.1-5.3c-1.4-1.4-3.5-2.1-6.1-2.1c-1.1,0-2,0-2.7,0s-1.3,0-1.7,0.1
		v12.7c0,1.1,0.4,1.9,1.3,2.4c0.9,0.5,2.1,0.8,3.6,0.8c2.5,0,4.5-0.7,5.8-2.2C51.1,232.4,51.7,230.2,51.7,227.3z"/>
	<path d="M123.2,203.8c-0.5,0-1.2,0.1-2.1,0.3c-0.9,0.2-1.7,0.5-2.2,0.8c-0.6,0.4-1,1.2-1.2,2.4c-0.2,1.2-0.3,2.7-0.3,4.5v15.7
		c0,2-0.4,3.7-1.2,5.2c-0.8,1.5-1.9,2.7-3.3,3.6c-1.3,0.9-2.7,1.6-4.2,2s-2.9,0.6-4.3,0.6c-2.2,0-4.1-0.3-5.8-0.9
		c-1.7-0.6-3.1-1.3-4.3-2.3c-1.1-1-2-2.1-2.6-3.3c-0.6-1.2-0.9-2.5-0.9-3.9v-21.3c0-0.6-0.1-1.1-0.3-1.5c-0.2-0.4-0.6-0.8-1.2-1.1
		c-0.4-0.2-1-0.4-1.6-0.6c-0.7-0.1-1.2-0.2-1.6-0.3v-1.8h15v1.8c-0.5,0-1.1,0.1-1.8,0.2c-0.7,0.1-1.2,0.3-1.6,0.4
		c-0.6,0.2-1,0.5-1.2,1s-0.3,1-0.3,1.5v20.1c0,1,0.1,2,0.3,3c0.2,1.1,0.6,2,1.3,3c0.7,0.9,1.6,1.7,2.7,2.3c1.1,0.6,2.7,0.9,4.7,0.9
		c1.9,0,3.4-0.3,4.7-0.9c1.3-0.6,2.3-1.4,3-2.3s1.2-1.9,1.5-2.9s0.4-2,0.4-3v-14.8c0-1.9-0.1-3.4-0.4-4.6s-0.7-2-1.2-2.3
		c-0.6-0.4-1.4-0.8-2.4-1s-1.8-0.4-2.3-0.4v-1.8h14.7L123.2,203.8L123.2,203.8z"/>
	<path d="M178.9,227.3l-0.8,10.7h-28.2v-1.8c0.4,0,1-0.1,1.8-0.2s1.3-0.2,1.6-0.3c0.5-0.2,0.9-0.5,1.1-1c0.2-0.4,0.3-1,0.3-1.6
		v-25.8c0-0.6-0.1-1.1-0.3-1.5c-0.2-0.4-0.6-0.8-1.2-1.1c-0.4-0.2-0.9-0.4-1.6-0.6s-1.3-0.3-1.7-0.3V202h15.2v1.8
		c-0.5,0-1.1,0.1-1.8,0.3c-0.8,0.2-1.3,0.3-1.6,0.4c-0.6,0.2-1,0.6-1.2,1c-0.2,0.5-0.3,1-0.3,1.6v24.2c0,1.1,0.1,2,0.2,2.6
		s0.4,1.1,0.8,1.4s1,0.5,1.7,0.6c0.8,0.1,1.8,0.1,3.2,0.1c0.6,0,1.3,0,2-0.1c0.7,0,1.3-0.1,1.9-0.2s1.1-0.2,1.6-0.4
		c0.5-0.2,0.9-0.4,1.1-0.7c0.7-0.8,1.5-2,2.4-3.5c0.9-1.6,1.6-2.9,1.9-3.8L178.9,227.3L178.9,227.3z"/>
	<path d="M234.2,227.3l-0.8,10.7h-28.2v-1.8c0.4,0,1-0.1,1.8-0.2s1.3-0.2,1.6-0.3c0.5-0.2,0.9-0.5,1.1-1c0.2-0.4,0.3-1,0.3-1.6
		v-25.8c0-0.6-0.1-1.1-0.3-1.5c-0.2-0.4-0.6-0.8-1.2-1.1c-0.4-0.2-0.9-0.4-1.6-0.6s-1.3-0.3-1.7-0.3V202h15.3v1.8
		c-0.5,0-1.1,0.1-1.8,0.3c-0.8,0.2-1.3,0.3-1.6,0.4c-0.6,0.2-1,0.6-1.2,1c-0.2,0.5-0.3,1-0.3,1.6v24.2c0,1.1,0.1,2,0.2,2.6
		s0.4,1.1,0.8,1.4s1,0.5,1.7,0.6c0.8,0.1,1.8,0.1,3.2,0.1c0.6,0,1.3,0,2-0.1c0.7,0,1.3-0.1,1.9-0.2s1.1-0.2,1.6-0.4
		c0.5-0.2,0.9-0.4,1.1-0.7c0.7-0.8,1.5-2,2.4-3.5c0.9-1.6,1.6-2.9,1.9-3.8L234.2,227.3L234.2,227.3z"/>
	<path d="M283,221.5c0.8,0.8,1.3,1.8,1.7,2.8c0.4,1,0.5,2.2,0.5,3.5c0,3.2-1.2,5.8-3.5,7.9c-2.4,2.1-5.3,3.1-8.8,3.1
		c-1.6,0-3.2-0.3-4.8-0.7s-3-1.1-4.2-1.8l-1.1,1.9h-2l-0.4-12.3h2.1c0.4,1.5,0.9,2.9,1.5,4.1s1.3,2.4,2.2,3.4c0.9,1,1.9,1.8,3.1,2.4
		s2.5,0.9,4.1,0.9c1.2,0,2.2-0.2,3.1-0.5s1.6-0.7,2.1-1.3s0.9-1.2,1.2-2c0.3-0.8,0.4-1.6,0.4-2.6c0-1.4-0.4-2.8-1.2-4
		s-2-2.2-3.6-2.8c-1.1-0.4-2.4-0.9-3.8-1.5c-1.4-0.5-2.6-1-3.7-1.5c-2-0.9-3.6-2.1-4.7-3.6s-1.7-3.4-1.7-5.8c0-1.4,0.3-2.6,0.8-3.8
		s1.4-2.2,2.4-3.2c1-0.9,2.1-1.6,3.5-2.1s2.7-0.7,4.2-0.7c1.7,0,3.1,0.3,4.5,0.8s2.5,1.1,3.6,1.8l1-1.7h2l0.2,12h-2.1
		c-0.4-1.4-0.8-2.7-1.3-3.9c-0.5-1.3-1.1-2.4-1.8-3.4c-0.7-1-1.6-1.8-2.7-2.3s-2.3-0.9-3.9-0.9s-3,0.5-4.1,1.5s-1.7,2.3-1.7,3.8
		c0,1.6,0.4,2.8,1.1,3.9c0.7,1,1.8,1.9,3.2,2.5c1.2,0.6,2.5,1.1,3.6,1.5s2.3,0.9,3.5,1.4c1,0.4,2,0.9,2.9,1.5S282.3,220.8,283,221.5
		z"/>
	<path d="M351,238.1h-15v-1.8c0.4,0,1-0.1,1.8-0.2s1.3-0.2,1.6-0.3c0.5-0.2,0.9-0.5,1.1-0.9s0.4-1,0.4-1.6v-12.8H324V233
		c0,0.6,0.1,1.1,0.3,1.5s0.6,0.8,1.2,1.1c0.3,0.2,0.8,0.3,1.5,0.5s1.3,0.2,1.7,0.3v1.8h-15v-1.8c0.4,0,1-0.1,1.8-0.2
		s1.3-0.2,1.6-0.3c0.5-0.2,0.9-0.5,1.1-0.9s0.4-1,0.4-1.6v-26c0-0.5-0.1-1-0.3-1.5c-0.2-0.4-0.6-0.8-1.1-1.1c-0.5-0.2-1-0.4-1.7-0.6
		s-1.2-0.3-1.7-0.3v-1.8h15v1.8c-0.5,0-1.1,0.1-1.7,0.2c-0.7,0.1-1.2,0.3-1.5,0.4c-0.6,0.2-1,0.5-1.2,1s-0.3,1-0.3,1.5v11.2H341
		v-10.9c0-0.5-0.1-1-0.3-1.5c-0.2-0.4-0.6-0.8-1.1-1.1c-0.5-0.2-1-0.4-1.7-0.6s-1.2-0.3-1.7-0.3V202h15v1.8c-0.5,0-1.1,0.1-1.7,0.2
		c-0.7,0.1-1.2,0.3-1.5,0.4c-0.6,0.2-1,0.5-1.2,1s-0.3,1-0.3,1.5v26c0,0.6,0.1,1.1,0.3,1.5s0.6,0.8,1.2,1.1c0.3,0.2,0.8,0.3,1.5,0.5
		s1.3,0.2,1.7,0.3v1.8H351z"/>
	<path d="M395.7,238.1h-16.2v-1.8c0.5,0,1.1-0.1,2-0.2s1.5-0.2,1.8-0.3c0.6-0.2,1-0.5,1.2-0.9s0.4-0.9,0.4-1.6v-26.1
		c0-0.6-0.1-1.1-0.3-1.5s-0.6-0.7-1.3-1c-0.5-0.2-1.1-0.4-1.9-0.6s-1.4-0.3-1.9-0.3V202h16.2v1.8c-0.5,0-1.2,0.1-1.9,0.2
		s-1.4,0.3-1.9,0.4c-0.6,0.2-1.1,0.5-1.3,1s-0.3,1-0.3,1.5V233c0,0.6,0.1,1.1,0.4,1.5s0.7,0.8,1.3,1c0.4,0.1,0.9,0.3,1.7,0.4
		c0.8,0.2,1.5,0.3,2,0.3V238.1z"/>
	<path d="M453.5,211.8h-1.8c-0.2-0.6-0.4-1.3-0.8-2.2s-0.8-1.6-1.3-2.4s-1.1-1.5-1.7-2s-1.2-0.9-1.7-1s-1.2-0.1-2-0.2
		c-0.8,0-1.5-0.1-2.2-0.1h-1.5v28.8c0,0.6,0.1,1.1,0.4,1.5c0.2,0.5,0.7,0.8,1.2,1.1c0.3,0.1,0.9,0.3,1.9,0.5s1.7,0.3,2.3,0.3v1.8
		h-17v-1.8c0.5,0,1.2-0.1,2.2-0.2s1.6-0.2,2-0.4c0.6-0.2,1-0.5,1.2-1c0.3-0.4,0.4-1,0.4-1.7v-29h-1.5c-0.5,0-1.2,0-2,0
		s-1.5,0.1-2.2,0.2c-0.6,0.1-1.1,0.4-1.7,1c-0.6,0.6-1.2,1.3-1.7,2s-1,1.6-1.3,2.4c-0.4,0.9-0.7,1.6-0.8,2.1h-1.8v-9.8h31.4V211.8z"
		/>
	<path d="M470.8,222.9c0,1.3-0.4,2.3-1.3,3.2c-0.9,0.9-2,1.3-3.2,1.3c-1.3,0-2.3-0.4-3.2-1.3s-1.3-2-1.3-3.2c0-1.3,0.4-2.3,1.3-3.2
		c0.9-0.9,2-1.3,3.2-1.3c1.3,0,2.3,0.4,3.2,1.3C470.3,220.5,470.8,221.6,470.8,222.9z"/>
</g>
<line class="st0" x1="0" y1="249.2" x2="480.2" y2="249.2"/>
<line class="st0" x1="0" y1="191.9" x2="480.2" y2="191.9"/>
<g>
	<path class="st0" d="M240.1,158c-35.8,0-64.9-35.4-64.9-79s29.1-79,64.9-79S305,35.4,305,79S275.9,158,240.1,158z"/>
	<ellipse class="st1" cx="240.1" cy="79" rx="59.9" ry="74"/>
</g>
<g>
	<path d="M217.1,93.3c1.5,1,2.8,2.3,4.4,3c2.3,1.1,4.7,1.9,7.1,2.7c1.6,0.5,3.4,0.7,5.1,1.1c0,0.1-0.1,0.2-0.1,0.4
		c1.3,0.4,2.6,0.7,4,1.1c0.1-0.5,0.2-0.9,0.3-1.2c0.1,0,0.2,0,0.2,0.1c-1,3.9-1.9,7.8-2.9,11.8c-0.5-0.1-1.1-0.2-1.9-0.3
		c0.2-1.3,0.4-2.5,0.7-3.7c0.3-1.3,0.2-1.4-1-1.5c-0.7-0.1-1.3-0.2-2-0.3c-0.4-0.1-0.7,0-0.8,0.5c-0.2,1-0.4,2-0.7,3.2
		c0.3-0.4,0.5-0.7,0.8-1c0.4,0.1,0.8,0.3,1,0.4c-0.7,0.6-1.5,1.1-2.3,1.7c-1.5-0.4-1.5-0.4-1.5,1.3c-0.1,1.8,0.4,3.1,2.1,4
		c0,1.2,0,2.3,0,3.5c0,7.2,0,14.5,0,21.7c0,2.1,0,2.2,1.9,2.9c-0.1,0.9-0.2,1.8-0.2,2.8c0,1.9,0.1,3.8,0.2,5.7c0.3,0,0.6,0,0.9,0
		c0-2.8,0-5.6,0-8.4c-0.3,0-0.6,0-0.9-0.1c-0.1-1.3-0.2-2.5-0.2-3.8c0-3.1,0.1-6.3,0.2-9.4c0-5.7,0-11.4,0-17.1c0-0.3,0-0.6,0-0.9
		c0.1,0,0.2,0,0.3,0c0,4.5-0.1,9-0.1,13.5c0,4.6,0.2,9.1,0.2,13.8c0.1-1.4,0.3-2.6,0.2-3.8c0-2.1-0.1-4.3-0.2-6.4c0-4,0-8,0-12
		c0-0.3-0.1-0.6,0-0.8c0.5-1.5,0.1-3-0.1-4.5c-0.1-0.8,0-1.2,0.8-1.4c-0.2-0.8-0.4-1.6-0.6-2.6c0.5,0.3,0.8,0.4,1.1,0.5
		c-0.1,0.5-0.3,1-0.3,1.4c-0.1,2-0.2,4-0.2,6.1c0,6.5,0,13.1,0,19.6c0,2.5,0,4.9,0,7.4c-0.3,0-0.6,0-1,0c1.5,0.4,1.6,0.8,1.6,1.9
		c-0.1,2.3,0,4.6,0,7c0.4,0,0.7,0,1.1,0c0-2.4,0-4.8,0-7.1c0-0.9,0.2-1.5,1.2-1.5c-0.3,0-0.5,0-0.9-0.1c0-8.9,0-17.7,0-26.6
		c0.3,0.2,0.6,0.4,1,0.5c0.7,0.2,0.9,0.7,0.9,1.4c-0.1,2.7-0.2,5.3-0.2,8c0,3.5,0.1,7,0.1,10.5c0,2.2-0.1,4.4-0.2,6.5
		c-0.3,0-0.6,0.1-0.9,0.1c0,2.8,0,5.5,0,8.2c0.7,0,1.4,0,2.1,0c0-2.7,0-5.4,0-8.1c0.1-0.1,0.2-0.1,0.3-0.2c0.2,0.2,0.6,0.4,0.6,0.7
		c0.2,2.5,0.4,5,0.6,7.6c0.5,0,0.9,0,1.4,0c0-0.9,0-1.8,0-2.7c0.4,0,0.6,0,0.9,0.1c0-1.9,0-3.7,0-5.4c0.5,0,0.9,0,1.1,0
		c-0.1,0.3-0.3,0.7-0.3,1c-0.1,1.4-0.1,2.7-0.2,4.1c0,0.3,0.1,0.6,0.2,0.8c0.7,0.6,1.3,1.2,0.8,2.2c0.1,0,0.2,0,0.4,0
		c0.2-2,0.5-3.9,0.7-5.9c0.1-0.8,0-1.6,0-2.4c-0.6,0-1,0-1.6,0c0.6-1.3,0.6-1.3,1.7-1c0,0.2,0,0.3,0,0.5s0,0.3,0,0.5
		c0.9,0,1.3-0.4,1.2-1.3c0-0.1,0-0.2,0-0.3c1.2-1.5,0.6-3.3,0.6-4.9c0-1.3-0.2-2.5-0.3-3.8c-0.2-1.3-1-2.2-1.8-3.2
		c-1.3-1.5-2.8-2.9-3.4-4.9c-0.4-1.4-0.6-2.9-0.7-4.4c-0.1-1.3,0-2.6,0-3.8c0-0.2,0-0.4,0.2-0.5c1.6-1.5,2.4-3.6,3.3-5.6
		c1.1-2.6,2.2-5.2,3.3-7.9c0.4-1,0.7-1.9,1.1-2.9c2.6-0.3,5.1-0.8,7.4-2.5c1.8-1.3,2.8-3.1,3.3-5.2c0.2-0.6,0.2-1.3,0.4-1.9
		c0.3-0.8-0.1-1.3-0.7-1.6c-0.4-0.2-0.7-0.4-0.5-0.8c0.1-0.3,0.5-0.5,0.8-0.6c0.5-0.1,1.1,0,1.2-0.7c0.1-0.8,0.6-1.7-0.6-2.2
		c-0.3-0.1-0.4-0.5-0.6-0.7c0.3-0.2,0.6-0.5,0.9-0.5c0.8-0.2,1.2-0.6,1.4-1.4c0.1-0.8-0.2-1.3-0.8-1.7c-0.2-0.1-0.3-0.4-0.5-0.5
		c0.2-0.2,0.5-0.4,0.7-0.6c0.4-0.2,1-0.2,1.2-0.6c0.7-0.9,0.4-2-0.6-2.7c-0.2-0.1-0.4-0.3-0.6-0.4c0.7-0.8,2.1-0.4,2.3-1.8
		c0.2-1.3-0.4-1.8-1.2-2.5c0.7-0.7,2-0.3,2.2-1.8c0.1-1.2-0.3-1.8-1.2-2.5c0.9-0.5,1.9-0.5,2.1-1.7c0.2-1.1-0.3-1.7-1.1-2.4
		c0.8-0.5,1.9-0.5,2-1.8c0.1-1,0-1.8-0.8-2.3c0.1-0.2,0.1-0.2,0.1-0.2c1.4-0.3,1.6-1.5,1.8-2.6c0.4-2.1,0.6-4.3,0.1-6.5
		c-0.5-2.1-1.4-3.9-2.7-5.5c-2-2.4-4.8-3.7-7.5-5.3c0.1,0.2,0.2,0.3,0.4,0.7c-1.8-0.7-3.5-1.3-5.1-2c-0.1,0.1-0.1,0.2-0.2,0.4
		c0.5,0.3,0.9,0.7,1.4,1c0.6,0.3,1.2,0.5,1.7,0.8c0.6,0.3,1.1,0.5,1.7,0.8c0,0.1-0.1,0.2-0.1,0.3c-1.2-0.4-2.4-0.8-3.5-1.3
		c-0.9-0.3-1.9-0.8-2.8-1c-1.1-0.3-2.1,0.1-2.7,1.5c-0.3-0.3-0.4-0.5-0.6-0.7c-0.2,0.2-0.6,0.5-1,0.8c0.5,0,0.8,0,0.9,0
		c-0.4,2-0.9,4-1.3,6c-0.8-0.3-1.7-0.6-2.5-1c-0.2-0.1-0.5-0.7-0.4-1c0.3-1-0.1-1.7-0.9-2.3c-0.1-0.1-0.2-0.3-0.3-0.6
		c1,0,0.3-0.5,0.2-0.8c0.3,0,0.5,0.1,0.8,0.1c-0.2-0.5-0.2-0.5,0.3-0.6c0.6-0.2,1.1-0.4,1.7-0.6c0.1,0,0.3-0.1,0.3-0.2
		c0.1-1.4,1.2-1,2-1.1c0.5-0.1,1.3-0.2,1.5-0.6c0.5-0.7-0.2-1.2-0.7-1.6c-0.2-0.2-0.4-0.2-0.6-0.4c-0.6-0.5-1.2-0.8-2.1-0.6
		c-0.5,0.2-1.1,0-1.6,0c1-1.1,2.3-0.9,3.5-0.9c0.8,0,1.5,0.3,2.2,0.5c-2.4-1.4-5-0.5-7.6-0.4c0.7-0.7,1.6-0.7,2.4-0.8
		c0-0.1,0-0.2,0-0.3c-1.2,0.1-2.5,0-3.6,0.4c-0.8,0.3-1.7,0.5-2.6,0.5c0.4-0.3,0.8-0.6,1.3-0.9c-0.6,0.1-1.3,0-2,0.2
		c-0.5,0.1-1,0.5-1.5,0.8c-0.6,0.3-1.2,0.6-1.9,0.8c0.3-0.4,0.6-0.7,1-1c-2.5-0.1-3.2,2.3-4.9,3.3c-0.1,0-0.1-0.1-0.2-0.1
		c0.4-0.6,0.8-1.3,1.3-1.9c-1.7,0.2-2.3,1.9-3.5,2.8c-0.1-0.1-0.1-0.1-0.2-0.2c0.1-0.2,0.2-0.3,0.3-0.6c-0.2,0-0.2,0-0.3,0.1
		c-1.9,1.5-2.4,3.7-3,5.8c-0.3,0.9-0.5,1.9-0.7,2.8c-0.2,0.8-0.1,1.5,0.8,1.8c0.4,0.1,0.9,0.3,0.5,0.9c1.4-0.2,2.7-0.4,4-0.5
		c0.5,0,0.7-0.2,0.8-0.7c0.1-0.4,0.2-0.8,0.3-1.2c0.2-0.8,1-1.1,1.7-0.7c0.1,0,0.1,0.1,0.1,0.1c-0.1,0.5-0.2,1.1-0.3,1.6
		c-0.2,0.8-0.8,0.5-1.3,0.6c-0.1,0-0.2,0-0.5,0.1c2.2,0,4.2,0,6.4,0c-0.2,0.2-0.3,0.2-0.3,0.3c-0.9,1.5-2.4,1.1-3.7,1.2
		c-2.3,0.2-4.7,0.3-7,0.5c-0.6,0-0.7-0.4-0.4-1.2c-1.6,0.1-2,0.5-2.1,2c-0.1,0.8,0.6,0.9,1,1.2c0.3,0.2,0.5,0.5,0.9,0.8
		c1-0.1,2.2-0.3,3.5-0.4c0.6,0,0.8-0.3,0.9-0.9c0-0.2,0.1-0.4,0.2-0.7c0.4-1.3,0.5-1.4,1.9-0.9c-0.4,2.1-0.4,2.1-1.5,2.4
		c1.9,0,3.6,0,5.3,0c-0.3,0.4-0.5,0.8-0.8,1.2c-3.3,0.2-6.8,0.4-10.3,0.6c0.1-0.3,0.1-0.6,0.2-1c-1.3-0.2-1.7,0-1.9,0.9
		c-0.4,1.5-0.3,1.7,1.4,2.3c-0.1,0.2-0.1,0.4-0.2,0.8c0.4,0,0.7,0,1.1,0c1-0.1,1.9-0.1,2.9-0.3c0.3,0,0.5-0.3,0.7-0.5
		c0.1-0.2,0.2-0.5,0.2-0.7c0.4-1.4,0.6-1.5,2-1.2c-0.2,0.8-0.5,1.6-0.7,2.3c1.5,0.1,3.1,0.1,4.7,0.2v0.1c-0.3,0-0.6,0.1-1,0.1
		c0.4,0.8-0.1,1-0.7,1c-1.2,0.1-2.4,0.2-3.9,0.3c0.6,0.9,0.9,2.1,1.7,2.6c0.8,0.5,1.9,0.3,3,0.5c-0.3,0-0.6,0.1-1,0.1
		c-0.1,1.1-0.9,1.3-1.8,1.2c-0.4,0-0.8,0.1-1.1,0.4c-0.8,0.7-1.4,1.5-2.3,2.5c1.9,0.1,3.6,0.2,5.2,0.2c-0.7,0.1-1.2,0.3-1.6,1
		c-0.1,0.3-1,0.4-1.6,0.4c-2,0-3.9-0.1-5.9-0.1c-0.8,0-1.5,0.1-2.4,0.2c0.2-0.5,0.4-0.9,0.6-1.2c-0.6-0.3-1.8,0-2.1,0.6
		c-0.5,1.4-0.4,1.6,1.3,2.3c0,0.3,0,0.7-0.1,1.1c1.4,0,2.9,0,4.4,0c0.2-0.9,0.4-1.7,0.7-2.8c0.5,0.1,1.3,0.2,1.3,0.4
		c0.1,0.8-0.1,1.6-0.1,2.4c1.3,0.1,2.8,0.2,4.4,0.3c0,0.1,0,0.1,0,0.2c-0.4,0-0.9,0.1-1.4,0.1c0,0.2-0.1,0.5-0.1,0.9
		c-1.6,0-3.3,0.1-4.9,0.1c-1.4,0-2.8,0-4.3,0c-0.2,0-0.4,0-0.6,0c0.1-0.4,0.3-0.8,0.4-1.2c-1.3-0.5-2.4,0.4-2.2,1.7
		c0,0.2,0.3,0.5,0.6,0.6c0.8,0.3,1.4,0.7,0.7,1.7c1.6,0,3.1,0,4.6,0c0.2-0.8,0.3-1.6,0.5-2.4c0.5,0.1,1.1-0.4,1.4,0.4
		c0.1-0.1,0.1-0.2,0.2-0.2s0.1,0,0.2,0c-0.2,0.8-0.4,1.6-0.7,2.4c1.3,0.1,2.7,0.2,4.1,0.3c-0.6,0.1-0.8,0.5-1.2,0.9
		c-0.3,0.4-1.4,0.4-2.1,0.4s-1.3-0.1-2-0.1c-1.7,0-3.4,0-5.2,0c0-0.6,0.1-1,0.1-1.4c-0.7,0.1-1.5-0.4-2,0.7
		c-0.7,1.5,0.5,1.8,1.4,2.1c-0.1,0.5-0.1,0.9-0.2,1.4c1.5,0,2.9,0,4.5,0c0.1-0.6,0.3-1.3,0.5-1.9c0.1-0.2,0.2-0.5,0.4-0.5
		c0.4,0,0.9,0,1.1,0.2c0.5,0.5,0,2-0.8,2.3c0.7,0.1,1.4,0.2,2.1,0.2c0.7,0.1,1.3,0.1,1.9,0.2c-1.5,2.5-2.2,5.1-2.4,7.9
		c-0.3,0-0.6-0.1-1-0.1c0.2-1.3,0.4-2.5,0.5-3.7c0-0.3,0.1-0.7,0.1-1c0-0.7-0.3-1.3-0.9-1.2c-0.4,0-1,0.6-1.1,1
		c-0.4,1.4-0.5,2.9-0.8,4.3c-0.1,0.3-0.3,0.7-0.4,0.7c-0.4,0-0.8-0.2-0.6-0.8c0.3-1.4,0.4-2.8,0.6-4.3c0.1-0.5,0-1.1-0.6-1.1
		c-0.4,0-1,0.5-1.1,0.9c-0.3,1.3-0.5,2.6-0.8,3.9c-0.1,0.3-0.1,0.7-0.2,1c-1.2-0.3-0.7-1.2-0.7-1.8c0.1-0.9,0.3-1.9,0.5-2.8
		c0-0.2,0.1-0.4,0-0.6c-0.1-0.2-0.3-0.6-0.4-0.6c-0.3,0-0.7,0.2-0.8,0.4c-0.3,1.3-0.6,2.6-0.9,3.9c-0.1,0.3-0.1,0.6-0.3,0.9
		c0-0.3-0.1-0.6-0.1-0.9c-0.1,0.2-0.1,0.3-0.2,0.4h-0.1c0.1-0.6,0.1-1.1,0.2-1.7c0,0,0,0,0.1,0c0,0.3,0.1,0.6,0.1,0.9
		c0.7-1.4,0.1-3.2,1.4-4.2c0-0.5,0-1,0-1.6c0,0-0.2,0-0.4,0c-1.4,0-1.4,0-1.7,1.3c-0.4,2.1-0.8,4.3-0.9,6.4
		C214.2,90.1,215.3,92,217.1,93.3z M232.5,81.3c-0.2,0.6-0.4,1.1-0.5,1.5s-0.1,0.8-0.2,1.2c-0.1-0.3-0.2-0.7-0.4-0.8
		c-0.9-0.5-0.8-1.3-0.9-2.2C231.2,81.1,231.8,81.2,232.5,81.3z M233.5,76.6c-0.3,1.1-0.3,1.1-1.7,0.8c0-0.3,0-0.5,0.1-1
		C232.3,76.5,232.9,76.6,233.5,76.6z M234.6,72.1c-0.2,0.5-0.3,0.8-0.4,1.2c-0.5-0.2-1-0.3-1.5-0.5c-0.1,0,0.1-0.8,0.1-0.8
		C233.3,72,233.9,72,234.6,72.1z M244,65.8c0,0.1,0.1,0.3,0.2,0.6c-0.9-0.4-1.6-0.6-2.3-0.9c0.1-0.4,0.1-0.7,0.2-1
		c0-0.1,0.2-0.4,0.3-0.3c0.6,0.2,1.3,0.4,1.9,0.7C244.2,64.8,244,65.4,244,65.8z M243.3,61c-0.2-0.1-0.3-0.4-0.4-0.6
		c-0.1-0.3,0-0.7,0-1.1C245,60,245,60,245,61.7C244.4,61.4,243.8,61.3,243.3,61z M242.5,60.9c-0.9-0.3-1.7-0.5-2.5-0.8
		c-0.5-0.2-1-0.3-0.7-1c0-0.1-0.3-0.4-0.4-0.6c0.7,0.1,1.5,0.1,2.2,0.3c0.8,0.2,1.8,0.2,1.3,1.5C242.3,60.4,242.4,60.6,242.5,60.9z
		 M236.5,73.6c0.1-0.4,0.2-0.9,0.3-1.2c0.5,0.1,1,0.1,1.5,0.2c1.2,0.3,1.2,0.3,1.1,1.5c0,0.2,0,0.3,0.1,0.6
		C238.4,74.3,237.5,74,236.5,73.6z M238.9,77.7c-0.8,0.2-0.3,0.9-0.6,1.5c-0.9-0.4-1.9-0.7-2.7-1c-0.1-0.6-0.1-1-0.2-1.4
		C236.5,77.1,237.7,77.4,238.9,77.7z M237.5,69c0-0.4,0.1-0.8,0.1-1.5c1.1,0.4,2.2,0.8,3.2,1.1c-0.2,0.4-0.4,0.8-0.7,1.3
		C239.3,69.7,238.4,69.3,237.5,69z M239,64.7c-0.5-0.2-0.8-0.5-0.6-1c0.1-0.2,0.1-0.3,0.1-0.6c1,0.2,2.1,0.5,3.1,0.7
		c-0.1,0.6-0.2,1.1-0.3,1.6C240.5,65.2,239.8,64.9,239,64.7z M236.4,54.9c0.5-1.3,0.6-1.4,1.9-1c-0.1,0.4-0.1,0.7-0.2,1.1
		C237.5,55,237,54.9,236.4,54.9z M237.7,50.4c0.2-0.4,0.4-0.7,0.6-1.2c0.4,0.5,0.6,0.8,0.9,1.2C238.7,50.4,238.2,50.4,237.7,50.4z
		 M242.9,70.7c-0.2-0.1-0.3-0.1-0.5-0.2c-0.9-0.2-1.9-0.4-1.4-1.7c0,0-0.1-0.1-0.2-0.2C242.6,68.5,243.4,69.2,242.9,70.7z
		 M242.1,75.3c-2.7-0.7-2.5-0.6-1.9-2.1c0.6,0.2,1.3,0.4,1.9,0.6C242.1,74.3,242.1,74.8,242.1,75.3z M241,79.9
		c-0.2-0.1-0.3-0.1-0.5-0.2c-0.5-0.1-1.2-0.1-1.5-0.5c-0.3-0.3-0.1-0.9-0.1-1.5c0.3,0.1,0.5,0.1,0.8,0.2
		C241.2,78.4,241.2,78.4,241,79.9z M240.1,83.9c-0.4,1.8-0.7,3.7-1.1,5.7c-0.2,0-0.5,0-0.7,0c-1.1,0-1.6-0.6-1.3-1.7
		c0.4-1.8,0.7-3.5,1.1-5.3c0.5,0.1,1,0.2,1.5,0.3C240,83,240.2,83.2,240.1,83.9z M236.1,89.9c-0.4-0.1-0.9-0.3-1.3-0.4
		c-0.1-1,0-2-0.5-3c-0.4-0.8-0.1-1.9,0-2.9c0-0.6,0.2-1.3,0.4-2.1c0.7,0.2,1.4,0.5,2.1,0.6c0.6,0.1,0.7,0.5,0.6,1
		C237,85.4,236.5,87.6,236.1,89.9z M234.9,67.4c0.2,0.1,0.5,0.4,0.5,0.6c0,0.2-0.3,0.5-0.5,0.5c-0.5,0-1-0.1-1.5-0.1
		c0.1-0.4,0.2-0.7,0.3-1.1C234,67.4,234.5,67.3,234.9,67.4z M236,62.8c-0.2,1.6-0.5,1.7-1.8,0.9c0.1-0.3,0.1-0.6,0.2-0.9
		C235,62.8,235.5,62.8,236,62.8z M236.5,58.3c1,0.1,0.5,0.8,0.6,1.4c-0.6-0.1-1.2-0.2-1.7-0.3C235.3,58.3,235.8,58.2,236.5,58.3z
		 M236.2,43.8c-0.2,0.5-0.3,0.9-0.6,1.4c-0.1,0.2-0.4,0.4-0.6,0.5c-2.8,0.3-5.6,0.5-8.4,0.7c-0.6,0.1-1.2,0.1-1.8,0.2
		c-0.3-2.5,0.4-5,1.9-6.6c0,0.2,0,0.3-0.1,0.4c-0.3,1.1-0.7,2.2-1,3.4c-0.1,0.3,0.1,0.6,0.2,0.9c0.3-0.1,0.7-0.1,0.8-0.3
		c0.3-0.4,0.4-0.9,0.7-1.3c0.6-1.3,0.4-3,2-3.7c-0.3,1.3-0.7,2.6-0.9,3.9c-0.1,0.3,0.1,0.8,0.3,0.9c0.2,0.1,0.7,0,0.9-0.2
		c0.4-0.4,0.6-0.9,0.8-1.4c0.5-1.5,1-3,1.5-4.6c0.7,0.3,0.8,0.7,0.6,1.3c-0.3,1.2-0.6,2.4-0.9,3.7c-0.1,0.3,0,0.7,0.2,0.8
		c0.3,0.1,0.7,0.1,1,0c0.3-0.2,0.6-0.5,0.8-0.8c0.6-1.4,1-2.8,1.5-4.1c0.2,0.1,0.4,0.3,0.7,0.5c-0.2,1-0.4,2.1-0.6,3.2
		C234.8,43.7,235.1,44,236.2,43.8z M238.3,40.2c-0.3,1.2-0.7,2.3-1.2,3.4c-0.1,0.2-0.5,0.2-0.7,0.2
		C237.6,42.9,237.6,41.4,238.3,40.2z M240.4,44.8c0,0.3,0,0.6-0.1,1c-0.4,0-0.7,0-1.1,0c-0.7,0-0.8-0.3-0.5-0.9
		c0.1-0.2,0.3-0.5,0.5-0.6c0.3-0.2,0.7-0.2,1.1-0.3C240.3,44.3,240.4,44.5,240.4,44.8z M243.9,54.7c1,0.4,2.7,0.4,2.1,2.4
		C243.9,56.4,243.9,56.4,243.9,54.7c-0.7,0.3-0.5,1-0.5,1.6c-0.7-0.3-1.5-0.6-2.2-0.7c-1-0.2-1.1-0.4-0.9-1.6
		C241.5,54.2,242.8,54.3,243.9,54.7z M244.4,51.3c0,0.1,0.1,0.2,0.1,0.4c-0.8-0.2-1.5-0.5-2.2-0.7c-0.8-0.2-1.5-0.5-0.9-1.6
		c0.3,0.1,0.7,0.1,1,0.1c0.5,0.1,1,0.1,1.5,0.3C244.8,50.2,244.3,50.8,244.4,51.3z M247,52c0,0.1,0.1,0.3,0.1,0.6
		c-0.7-0.3-1.3-0.4-1.8-0.7c-0.2-0.1-0.3-0.6-0.3-0.9c0-0.2,0.2-0.4,0.4-0.5C246.2,50.3,247.1,51.1,247,52z M254.6,88.5
		c-1.2-0.4-2.4-0.9-3.6-1.3c-0.5,1.8-0.9,3.4-1.3,5.1c-0.2,0.8-0.6,0.8-1.2,0.7c-0.9-0.2-1.7-0.4-2.6-0.6c0.2-0.7-0.3-0.9-0.9-1.1
		c-0.9-0.2-1.2-1-1.4-1.8c-0.1-0.2,0.1-0.5,0.2-0.7c0-0.2,0-0.3,0-0.5c0-1,0.1-2,0.1-2.9c0-0.3-0.1-0.7-0.3-1
		c-0.2-0.2-0.5-0.3-0.7-0.4c0,0,0-0.1,0.1-0.1c0.9,0.2,1.8,0.5,2.7,0.7c0.1-0.4,0.1-0.7,0.1-1c0.6-1.9,0.6-1.9-1.2-2.8
		c0.1-0.1,0.2-0.1,0.2-0.1c-0.3-0.6-0.7-1.3-1.4-1.6c1.1,0.3,2.2,0.6,3.2,0.9c0.2-0.6,0.3-0.9,0.4-1.3c0.4-1.2,0.1-1.8-1.2-2.4
		c0-0.3,0-0.7,0-1c-0.4-0.2-0.8-0.4-1.1-0.6c0.6,0,1.1,0.2,1.6,0.4c0.9,0.4,1.6,0,1.6-1.1c0-0.3-0.1-0.7,0-0.9
		c0.3-0.4,0.2-0.8-0.2-0.9c-1.2-0.4-1.4-1.6-2.5-2.4c0.5,0.2,0.8,0.2,1.1,0.3c0.3,0.1,0.6,0.2,0.9,0.3c0.7,0.3,1.2,0.2,1.5-0.6
		c0.3-0.9,0.2-1.9-0.3-2.2c-0.6-0.3-1.4-0.5-1.3-1.4c0-0.2-0.1-0.5-0.2-0.7c0.5,0.2,1,0.4,1.5,0.6c0.3,0.1,0.8,0,0.9-0.1
		c0.2-0.8,0.5-1.5,0.5-2.3c0-0.3-0.6-0.6-1-0.8c-0.3-0.2-0.5-0.3-0.7-0.4c0-0.5,0-0.9,0-1.3c0.4,0.2,0.7,0.4,1.1,0.5
		c0.6,0.3,1.1,0.1,1.4-0.6c0.5-1.1,0.1-2.3-1-2.8c-0.1-0.1-0.2-0.2-0.4-0.2c-0.6-0.2-0.9-0.5-0.5-1.1c-0.2-0.2-0.5-0.4-0.7-0.6
		c0.9,0.2,1.6,0.5,2.4,0.8c0.2,0.1,0.5,0.1,0.5,0c0.3-0.5,0.6-1,0.7-1.6s0.1-1.4-0.7-1.6c-1.1-0.3-1.4-1.1-1.6-2.1
		c0.6,0.3,1.2,0.5,1.7,0.8c0.5,0.2,1.1,0.3,1.3-0.5c0.2-0.7,0.3-1.5,0.2-2.1c-0.1-0.3-0.7-0.6-1.1-0.8c-0.8-0.4-1.1-0.9-0.9-1.7
		c0-0.1,0-0.3,0-0.4c0.2-0.7,0.4-1.4,0.6-2.1c0.1-0.4,0.4-0.9,0.3-1.2c-0.2-1.1-0.3-1.1,0.9-1.1c0,0,0.1-0.1,0.3-0.4
		c-1.4-0.2-2.6-0.4-3.7-0.6c-0.4,2.2-0.8,4.1-1.2,6.2c-0.5-0.2-1.2-0.4-1.8-0.7c-0.1-0.1-0.3-0.3-0.3-0.5c0.4-1.8,0.8-3.5,1.2-5.3
		c0.1-0.6,0.6-0.9,1.2-0.8c2.5,0.8,5,1.5,7.5,2.4c0.3,0.1,0.5,0.5,1,1c0.8,0.4,1.9,1,2.9,1.6c0.2,0.1,0.5,0.3,0.5,0.2
		c0.7-0.7,1.3-0.1,1.8,0.1c1.1,0.5,2.4,1,2.5,2.7c-0.6-0.2-1.2-0.4-1.8-0.6c1,2.7,0.5,2.6-0.6,6.4c-1.5-0.7-3-1.3-4.5-2
		c-0.6-0.3-0.8-0.1-1,0.4c-0.6,1.4-0.4,2.1,1,2.9c1.2,0.6,2.4,1.3,3.6,1.9c0.2,0.1,0.6,0.1,0.3,0.6c-0.1,0.2,0.2,0.7,0.4,1.2
		c-0.6-0.4-1-0.6-1.5-0.9c-1.3-0.6-2.6-1.2-3.9-1.7c-0.2-0.1-0.6,0-0.7,0.1c-0.8,0.8-0.4,2.6,0.7,3.1c0.8,0.3,1.6,0.6,2.3,1.1
		c0.9,0.6,2.5,0.8,2.2,2.5c0,0-0.1,0.1,0,0c-1.7-0.8-3.3-1.5-5-2.2c-0.6-0.2-1.2-0.3-1.4,0.4c-0.4,1.3-0.3,2.1,0.9,2.7
		c1.3,0.6,2.6,1.2,3.8,1.9c0.6,0.3,1.2,0.9,0.9,1.7c-1.8-0.8-3.5-1.5-5.3-2.2c-0.7-0.3-1.2-0.2-1.3,0.6c-0.3,1.1-0.2,2,1,2.5
		c1.8,0.8,3.5,1.7,5.2,2.5c-0.1,0.6-0.1,0.9-0.1,1.4c-0.5-0.2-0.8-0.4-1.2-0.6c-1.6-0.7-3.2-1.4-4.8-2c-0.2-0.1-0.7,0.1-0.9,0.3
		c-0.7,1.1-0.4,2.1,0.7,2.7c0.4,0.2,0.8,0.3,1.3,0.6c1.3,0.7,2.7,1.3,4,2c-0.1,0.4-0.2,0.7-0.3,1.1c-0.6-0.3-1.2-0.5-1.7-0.8
		c-0.4-0.3-0.6-0.8-0.9-1.2c0,0.2,0,0.4,0,0.6c-1-0.3-2.1-0.6-3.1-0.7c-0.3-0.1-0.8,0.1-1,0.3c-0.4,0.7-0.4,2.2,0.7,2.7
		c1,0.4,2,0.9,3,1.3c0,0.1,0,0.1-0.1,0.2c-0.5-0.1-0.9-0.2-1.4-0.4c-0.1,0.2-0.2,0.5-0.3,0.7c-0.5-0.1-1-0.3-1.5-0.4
		c-1-0.2-1.5,0.3-1.6,1.2c-0.1,1.3,0.3,1.5,1.6,2.1c1.3,0.5,2.5,1.1,3.8,1.6c-0.2,0.1-0.4,0.1-0.5,0c-0.9-0.3-1.8-0.7-2.6-1
		c-0.1-0.1-0.5,0-0.5,0.1c-0.2,0.7-0.6,0.5-1.1,0.4c-0.4-0.1-1.1-0.1-1.3,0.2c-0.7,0.9-0.8,2.3,0.8,2.9c1.3,0.5,2.6,1,3.9,1.6
		C254.6,88.4,254.6,88.4,254.6,88.5z M245.4,99.7c1.6,0.1,3.1-0.2,4.5-1c0.3-0.1,0.7-0.1,1.1-0.1C250.6,99.6,246.8,100.3,245.4,99.7
		z M241,111.7c-0.4-0.6-1.1-1.1-1.6-1.6c1.6,0.2,2.5,1.7,2.1,3.8C241.4,113.2,241.4,112.4,241,111.7z M239.5,115.6
		c0.4-0.8,0.7-1.7,1.1-2.5C241.2,113.9,240.6,115.3,239.5,115.6z M238.3,118.9c0,0,0.1,0,0.3-0.1c0,1.6,0,3.1,0,4.6s0.3,3,1,4.4
		c-0.1-0.8-0.2-1.6-0.4-2.3c0.4,1.1,0.8,2.2,1.3,3.3c0.1,0.2,0.2,0.4,0.4,0.5c1.3,0.8,2.5,2.5,3.3,4c0.4,0.8,0.4,1.6,0.5,2.3
		c0.2,1.8,0.1,3.6,0,5.4c0,0.2-0.1,0.4-0.2,0.6c-0.2-1.1-0.3-2.2-0.3-3.3c-0.1-1,0-2.1-0.3-3c-0.3-1.4-1.5-2.4-2.4-3.4
		c-0.8-0.8-1.6-1.6-2.1-2.6C238,126,238.2,122.5,238.3,118.9z M237.1,118.9c0.2,0,0.4,0,0.8,0c-0.2,2.8-0.4,5.6-0.6,8.4
		c-0.1,0-0.2,0-0.3,0C237.1,124.5,237.1,121.7,237.1,118.9z M238.5,110.5c-1.7,1.1-1.9,2.7-2.1,4.3
		C235.7,113.4,236.5,110.7,238.5,110.5z M232.6,93.5c-0.3-0.3-0.5-0.8-0.8-1.2c0.8-0.2,1.6-0.4,2.3-0.6c1-0.3,2-0.3,2.9,0.4
		c0.4,0.3,0.8,0.7,1.3,0.9c1.2,0.5,2.3,1.1,3.6,1.5c1.1,0.4,2,1.3,3.3,1.5c1.1,0.1,2.2,0.6,3.3,1c0.7,0.3,1.4,0.6,2.2,1
		c-3.7,2.1-6,1.7-8.5,0.5c0.5-0.4,1.1-0.9,1.6-1.3c-0.1-0.1-0.1-0.1-0.2-0.2c-0.2,0.2-0.5,0.5-0.8,0.8c-0.8-1.4-2-0.9-2.8-0.6
		c-0.3-0.6-0.4-1.1-0.7-1.4c-0.4-0.4-0.9-0.7-1.4-1c-1.3-0.8-2.5-1.5-4.1-0.8C233.4,94,232.9,93.7,232.6,93.5z M228.6,93.2
		c0.3-0.1,0.6-0.2,1-0.2c0.9,1.5,1.8,3.1,3.5,3.8C231.9,97.5,229,95.1,228.6,93.2z M225.5,94.3c1.1,0.3,0.1-0.6,0.4-0.7
		c0.9,1.1,1.8,2.1,2.7,3.2C227.2,96.5,226.2,95.7,225.5,94.3z"/>
	<path d="M224.3,64.9c0.3,0.9,1.1,1.2,1.9,0.8c1.4-0.6,2.4-3,1.8-4.4c-0.4-1.1-1.5-1.3-2.4-0.6c-0.9,0.8-1.4,2-1.5,3.5
		C224.2,64.3,224.2,64.6,224.3,64.9z M224.6,64.5c-0.1,0-0.2,0-0.3-0.1c0.2-0.9,0.4-1.8,0.5-2.7c0.1,0,0.2,0,0.3,0
		C225,62.7,224.8,63.6,224.6,64.5z"/>
	<path d="M222,59.6c0.7-0.1,1.4-0.2,2.1-0.2s1.3,0,2.1,0c-2.2,2.9-2.7,3.3-4.7,3.1c0-0.3,0-0.6,0-0.9c-0.1,0-0.2,0.1-0.3,0.1
		c-0.4-0.5-1.2-0.9-1.2-1.4c0-1.5,0.3-1.7,2.1-1.9C222.1,58.8,222,59.2,222,59.6z"/>
	<path d="M221.3,62.8c-0.1,0.4-0.2,0.8-0.3,1.1c0.8,0.3,1.9-0.5,2.5,0.3c0.5,0.7,0.7,1.6,1.2,2.5c-1.5,0-2.8,0-4.2,0
		c0.1-0.3,0.1-0.6,0.2-0.9c-1.6-0.6-1.7-0.7-1.4-2.2C219.4,62.9,219.9,62.7,221.3,62.8z"/>
	<path d="M255.3,39.1c-0.1,0-0.3,0.1-0.3,0c-1.7-1-3.8-1.1-5.1-3c0.9,0.4,1.9,0.6,2.8,1.1c1,0.5,1.9,1.1,2.8,1.7
		C255.4,38.9,255.4,39,255.3,39.1z"/>
</g>
<g>
	<g>
		<path d="M149.2,46.1c-0.7-0.7-1.3-1.4-1.9-1.9l0,0l0,0c-0.2-0.2-0.6-0.3-0.8,0c-0.1,0.1-0.2,0.3-0.2,0.4s0.1,0.3,0.2,0.4l0,0l0,0
			l0,0c0.5,0.6,1.2,1.2,1.9,1.9c5.5,5.6,14.7,14.9,14.7,29.4c0,11.3-5.2,22.9-11.8,32.3c12.6-22.2,8.5-41.6-2.6-52.1l0,0
			c-0.2-0.2-0.6-0.2-0.8,0c-0.2,0.2-0.2,0.6,0,0.8c4.5,4.2,7.2,10,8.5,18.1c1.7,9.9,0.7,25.4-13.5,43.3l0,0l0,0l0,0l0,0
			c-0.4,0.7-1.5,2.4-1.4,2.5s1.4-0.7,2.3-1.7c9.7-10.1,21.4-25.6,21.4-42.3C165.2,62.3,154.8,51.8,149.2,46.1z"/>
		<path d="M142,70.2c-0.5-0.3-1.1-0.2-1.5,0.2c-1,0.9-0.6,2.6,0.1,5c1,3.6,2.6,9.1,0.8,16.6c-3,12.5-11,22.4-23,28.5
			c-12.6,6.5-17.5,6.6-28.2,7c-2.4,0.1-5-0.2-7.7-0.6h-0.1c-1.5-0.3-3.4-0.9-5.6-1.6c-0.5-0.1-0.9-0.3-1.4-0.4
			c-1.5-0.5-3-1.1-4.7-1.8c-8.8-3.4-20.8-8-30.6-8.1c-10.5-0.2-20.3,3.4-25,9.2c-2.2,2.7-3.1,5.8-2.6,8.9l0,0c0,0.3,0.1,0.5,0.1,0.8
			l0,0l0,0l0,0l0,0l0,0l0,0l0,0l0,0l0,0l0,0l0,0l0,0l0,0l0,0l0,0l0,0c0.1,0.3,0.4,0.5,0.7,0.4s0.5-0.3,0.5-0.6v-0.1
			c-0.3-1.4-0.3-2.8,0-4.2s1-2.8,2.1-4.1c4.2-5.3,13.8-8.5,24.2-8.3c6.4,0.1,13.8,2,20.6,4.2c-4.6-0.9-9.5-1.5-14.5-1.5
			c-8.2,0-14.3,2.5-17.6,7.1c-3.1,4.3-3.6,10.2-1.3,17.1c0.1,0.2,0.3,0.4,0.6,0.4c0.1,0,0.1,0,0.2,0c0.3-0.1,0.5-0.4,0.4-0.7
			c-1.8-6.8-1.3-12.1,1.6-15.8c3.3-4.2,9.5-6.4,18.7-6.4c2.6,0,5.1,0.2,7.5,0.4c-11.5,1.6-16.7,8.5-16.7,14.9
			c0,7.6,6.8,11.8,11.4,11.8c4.7,0,9.4-2.8,9.4-8.1c0-0.3-0.2-0.6-0.5-0.6s-0.6,0.2-0.7,0.5c-0.6,2.6-4.6,5.2-8.2,5.2
			c-3.3,0-8.4-3.5-8.4-8.8c0-5.7,4.7-11.9,15.1-12.9c2.5-0.2,6.9,0.9,12.1,2.3c6.7,1.7,14.3,3.7,20.6,3.5
			c10.9-0.3,16.9-0.5,29.7-7.1c12-6.2,20.4-16.9,23.6-30.3C146,81.7,144.3,71.6,142,70.2z"/>
		<circle cx="83.9" cy="81.1" r="1.8"/>
		<circle cx="32.6" cy="108.1" r="1.8"/>
		<circle cx="59.5" cy="129.8" r="1.2"/>
		<circle cx="64.8" cy="130.5" r="1.8"/>
		<circle cx="89.4" cy="84.6" r="1.2"/>
		<circle cx="121.2" cy="64.9" r="2.9"/>
		<circle cx="110.7" cy="66.8" r="1.5"/>
		<circle cx="122.7" cy="74.3" r="1.5"/>
		<circle cx="39.9" cy="104" r="1.5"/>
		<circle cx="68.9" cy="136.3" r="2.9"/>
		<circle cx="53.5" cy="133.8" r="2.9"/>
		<path d="M128.7,126.6c0-0.1,0.1-0.2,0.1-0.2s-2,1.8-2.3,2c-11.5,11.8-35,15-45.7,15.1c-0.9,0-2.9-0.2-2.9-0.2s2.5,1.3,2.6,1.3l0,0
			l0,0l0,0c5,2.1,12.3,3.4,18.2,3.4c2.8,0,5.3-0.3,7.1-0.9c4.6-1.5,10.6-4.5,19.4-15.1C126.7,130.3,128.4,127.3,128.7,126.6z
			 M104.5,145.1c-4.6,1.5-13.4,1.5-20.2-0.4c5,0,10.9-0.2,16.9-1.6c7.6-1.8,14.8-5,20.5-9.1C115.1,141,109.5,143.5,104.5,145.1z"/>
		<path d="M134.4,72.9c0-0.1,0-0.1,0-0.2c-0.2-6.3-1.3-11.7-2.5-12.5c-0.4-0.3-0.9-0.2-1.2,0.1c-1.1,1-0.8,2.9-0.2,6.1
			c0.2,1.2,0.5,2.7,0.7,4.4c0.6,6.6-0.1,11.2-7.2,16.8c-0.2,0.2-0.1,0.1,0,0c0.3-0.2,4.8-2.2,7.6-6.2c0,0.2,0,0.4,0,0.6
			c-0.2,2.7-1.2,6.1-2.8,9.6c-0.1,0.2-0.2,0.3-0.3,0.5c-1.9,3.9-9.4,6.6-15,6.6c-7.5,0-12.9-6.8-12.9-11.4c0-5.8,2.9-11.6,9.5-11.6
			c7.8,0,8.4,5.9,8.4,7.7c0,4.8-3.8,6.4-5.6,6.4c-2,0-4.7-2.3-4.7-2.3c-0.2-0.2-0.6-0.2-0.8,0.1c-0.2,0.2-0.2,0.6,0,0.8
			c0.1,0.1,3.1,2.8,5.6,2.8s7.4-2.3,7.4-7.8c0-6-4-9.8-10.3-9.8c-8.1,0-11.7,6.9-11.7,13.7c0,6.4,6.2,13.5,15,13.5
			c4.5,0,8.6-1.3,12-3.4c-0.7,1-1.4,2-2.2,3c-0.1,0.1-0.1,0.1-0.2,0.2c-3.6,3.8-12,6.2-16.5,6.2c-0.3,0,0.3,0,0,0
			c-4,0.1-11.6,0.2-15-9.1c-0.1-0.3-0.1-0.3,0,0c3.6,10.9,10.7,10.9,14.5,10.9c4.3,0,8.5-1,12.1-2.8c-3.3,3-7.2,5.6-11.7,7.5
			c-4.3,1.8-11,3.1-18.5,3.1c-1.2-0.1-2.3-0.3-3.4-0.6c-3.5-0.9-6.5-2.3-8.8-4.4c-4-3.6-5.4-8.3-5.4-11.2c0-4.6,2.5-11.1,8.1-11.6
			c0.3,0,0.5,0,0.8,0l0,0l0,0l0,0c5.7,0,7.8,3.6,7.8,6.6c0,3.1-0.4,6.5-5.5,6.5l0,0l0,0l0,0c-1.2,0-2.7-1-3.3-2.2
			c-0.2-0.4-0.4-0.9-0.4-1.5s0.2-1.3,0.7-2c0.1-0.1,0.1-0.2,0.1-0.3c0-0.2-0.1-0.4-0.3-0.5c-0.3-0.2-0.6-0.1-0.8,0.1
			c-0.6,0.8-0.9,1.7-0.9,2.7c0,0.7,0.2,1.4,0.5,2.1c0.9,1.7,2.7,2.9,4.4,2.9l0,0l0,0l0,0l0,0l0,0c4.7,0,7.2-2.7,7.2-7.7
			c0-3.1-2.5-7.8-9.5-7.8l0,0c-7.1,0-11,7.6-11,12.8c0,3,1.6,7.9,5.9,11.8c1.7,1.5,4,3,7.2,4.1c-2.3-0.2-4.7-0.6-7-1.1
			C64,110.7,60,100.6,60,93.6c0-5.3,2.3-11,5.7-14.3c1.6-1.5,3.3-2.5,5.1-2.9c0.7-0.1,1.3-0.2,2-0.2c0.3,0,0.6-0.3,0.6-0.6l0,0
			c0-0.3-0.3-0.6-0.6-0.6l0,0l0,0c-3,0-6,1.2-8.6,3.8c-3.7,3.7-6.3,9.6-6.3,14.8c0,6,2.9,14.4,10,19.7c-6.5-2.2-12.8-5.6-18-10.7
			c-0.3-0.3-0.5-0.5-0.8-0.8c-1.7-1.7-5.6-5.7-5.6-5.7s1.9,3.7,4.7,6.6c0.1,0.1,0.3,0.3,0.4,0.4c0.1,0.1,0.2,0.2,0.3,0.3
			c10.6,10.6,25.2,15.2,38.8,15.2c3.9,0,7.7-0.4,11.3-1.1l0,0c0,0,0,0,0.1,0c3.1-0.6,6.1-1.5,8.9-2.6c16.8-6.7,23.3-22.8,24.5-26
			c0,0,0,0,0-0.1s0.1-0.2,0.1-0.3c0.1-0.4,0.3-0.8,0.4-1.3l0,0l0,0c1.1-3.8,1.4-8.7,1.4-13.3C134.5,73.8,134.5,73.3,134.4,72.9z"/>
	</g>
	<g>
		<path d="M334.2,46.1c0.7-0.7,1.3-1.4,1.9-1.9l0,0l0,0c0.2-0.2,0.6-0.3,0.8,0c0.1,0.1,0.2,0.3,0.2,0.4s-0.1,0.3-0.2,0.4l0,0l0,0
			l0,0c-0.5,0.6-1.2,1.2-1.9,1.9c-5.5,5.6-14.7,14.9-14.7,29.4c0,11.3,5.2,22.9,11.8,32.3c-12.6-22.2-8.5-41.6,2.6-52.1l0,0
			c0.2-0.2,0.6-0.2,0.8,0c0.2,0.2,0.2,0.6,0,0.8c-4.5,4.2-7.2,10-8.5,18.1c-1.7,9.9-0.7,25.4,13.5,43.3l0,0l0,0l0,0l0,0
			c0.4,0.7,1.5,2.4,1.4,2.5s-1.4-0.7-2.3-1.7c-9.7-10.1-21.4-25.6-21.4-42.3C318.3,62.3,328.7,51.8,334.2,46.1z"/>
		<path d="M341.5,70.2c0.5-0.3,1.1-0.2,1.5,0.2c1,0.9,0.6,2.6-0.1,5c-1,3.6-2.6,9.1-0.8,16.6c3,12.5,11,22.4,23,28.5
			c12.6,6.5,17.5,6.6,28.2,7c2.4,0.1,5-0.2,7.7-0.6h0.1c1.5-0.3,3.4-0.9,5.6-1.6c0.5-0.1,0.9-0.3,1.4-0.4c1.5-0.5,3-1.1,4.7-1.8
			c8.8-3.4,20.8-8,30.6-8.1c10.5-0.2,20.3,3.4,25,9.2c2.2,2.7,3.1,5.8,2.6,8.9l0,0c0,0.3-0.1,0.5-0.1,0.8l0,0l0,0l0,0l0,0l0,0l0,0
			l0,0l0,0l0,0l0,0l0,0l0,0l0,0l0,0l0,0l0,0c-0.1,0.3-0.4,0.5-0.7,0.4s-0.5-0.3-0.5-0.6v-0.1c0.3-1.4,0.3-2.8,0-4.2s-1-2.8-2.1-4.1
			c-4.2-5.3-13.8-8.5-24.2-8.3c-6.4,0.1-13.8,2-20.6,4.2c4.6-0.9,9.5-1.5,14.5-1.5c8.2,0,14.3,2.5,17.6,7.1
			c3.1,4.3,3.6,10.2,1.3,17.1c-0.1,0.2-0.3,0.4-0.6,0.4c-0.1,0-0.1,0-0.2,0c-0.3-0.1-0.5-0.4-0.4-0.7c1.8-6.8,1.3-12.1-1.6-15.8
			c-3.3-4.2-9.5-6.4-18.7-6.4c-2.6,0-5.1,0.2-7.5,0.4c11.5,1.6,16.7,8.5,16.7,14.9c0,7.6-6.8,11.8-11.4,11.8c-4.7,0-9.4-2.8-9.4-8.1
			c0-0.3,0.2-0.6,0.5-0.6s0.6,0.2,0.7,0.5c0.6,2.6,4.6,5.2,8.2,5.2c3.3,0,8.4-3.5,8.4-8.8c0-5.7-4.7-11.9-15.1-12.9
			c-2.5-0.2-6.9,0.9-12.1,2.3c-6.7,1.7-14.3,3.7-20.6,3.5c-10.9-0.3-16.9-0.5-29.7-7.1c-12-6.2-20.4-16.9-23.6-30.3
			C337.5,81.7,339.2,71.6,341.5,70.2z"/>
		<circle cx="399.6" cy="81.1" r="1.8"/>
		<circle cx="450.9" cy="108.1" r="1.8"/>
		<circle cx="423.9" cy="129.8" r="1.2"/>
		<circle cx="418.7" cy="130.5" r="1.8"/>
		<circle cx="394.1" cy="84.6" r="1.2"/>
		<circle cx="362.3" cy="64.9" r="2.9"/>
		<circle cx="372.8" cy="66.8" r="1.5"/>
		<circle cx="360.8" cy="74.3" r="1.5"/>
		<circle cx="443.5" cy="104" r="1.5"/>
		<circle cx="414.6" cy="136.3" r="2.9"/>
		<circle cx="429.9" cy="133.8" r="2.9"/>
		<path d="M358.3,132.1c8.9,10.6,14.8,13.6,19.4,15.1c1.8,0.6,4.3,0.9,7.1,0.9c5.9,0,13.2-1.2,18.2-3.4l0,0l0,0l0,0
			c0.1,0,2.6-1.3,2.6-1.3s-1.9,0.2-2.9,0.2c-10.8,0-34.2-3.2-45.7-15.1c-0.2-0.2-2.3-2-2.3-2s0,0.1,0.1,0.2
			C355.1,127.3,356.8,130.3,358.3,132.1z M361.7,134c5.7,4.1,12.9,7.3,20.5,9.1c6.1,1.4,12,1.6,16.9,1.6c-6.8,1.9-15.6,1.9-20.2,0.4
			C373.9,143.5,368.4,141,361.7,134z"/>
		<path d="M349,72.9c0-0.1,0-0.1,0-0.2c0.2-6.3,1.3-11.7,2.5-12.5c0.4-0.3,0.9-0.2,1.2,0.1c1.1,1,0.8,2.9,0.2,6.1
			c-0.2,1.2-0.5,2.7-0.7,4.4c-0.6,6.6,0.1,11.2,7.2,16.8c0.2,0.2,0.1,0.1,0,0c-0.3-0.2-4.8-2.2-7.6-6.2c0,0.2,0,0.4,0,0.6
			c0.2,2.7,1.2,6.1,2.8,9.6c0.1,0.2,0.2,0.3,0.3,0.5c1.9,3.9,9.4,6.6,15,6.6c7.5,0,12.9-6.8,12.9-11.4c0-5.8-2.9-11.6-9.5-11.6
			c-7.8,0-8.4,5.9-8.4,7.7c0,4.8,3.8,6.4,5.6,6.4c2,0,4.7-2.3,4.7-2.3c0.2-0.2,0.6-0.2,0.8,0.1c0.2,0.2,0.2,0.6,0,0.8
			c-0.1,0.1-3.1,2.8-5.6,2.8s-7.4-2.3-7.4-7.8c0-6,4-9.8,10.3-9.8c8.1,0,11.7,6.9,11.7,13.7c0,6.4-6.2,13.5-15,13.5
			c-4.5,0-8.6-1.3-12-3.4c0.7,1,1.4,2,2.2,3c0.1,0.1,0.1,0.1,0.2,0.2c3.6,3.8,12,6.2,16.5,6.2c0.3,0-0.3,0,0,0
			c4,0.1,11.6,0.2,15-9.1c0.1-0.3,0.1-0.3,0,0c-3.6,10.9-10.7,10.9-14.5,10.9c-4.3,0-8.5-1-12.1-2.8c3.3,3,7.2,5.6,11.7,7.5
			c4.3,1.8,11,3.1,18.5,3.1c1.2-0.1,2.3-0.3,3.4-0.6c3.5-0.9,6.5-2.3,8.8-4.4c4-3.6,5.4-8.3,5.4-11.2c0-4.6-2.5-11.1-8.1-11.6
			c-0.3,0-0.5,0-0.8,0l0,0l0,0l0,0c-5.7,0-7.8,3.6-7.8,6.6c0,3.1,0.4,6.5,5.5,6.5l0,0l0,0l0,0c1.2,0,2.7-1,3.3-2.2
			c0.2-0.4,0.4-0.9,0.4-1.5s-0.2-1.3-0.7-2c-0.1-0.1-0.1-0.2-0.1-0.3c0-0.2,0.1-0.4,0.3-0.5c0.3-0.2,0.6-0.1,0.8,0.1
			c0.6,0.8,0.9,1.7,0.9,2.7c0,0.7-0.2,1.4-0.5,2.1c-0.9,1.7-2.7,2.9-4.4,2.9l0,0l0,0l0,0l0,0l0,0c-4.7,0-7.2-2.7-7.2-7.7
			c0-3.1,2.5-7.8,9.5-7.8l0,0c7.1,0,11,7.6,11,12.8c0,3-1.6,7.9-5.9,11.8c-1.7,1.5-4,3-7.2,4.1c2.3-0.2,4.7-0.6,7-1.1
			c10.3-4.4,14.3-14.5,14.3-21.5c0-5.3-2.3-11-5.7-14.3c-1.6-1.5-3.3-2.5-5.1-2.9c-0.7-0.1-1.3-0.2-2-0.2c-0.3,0-0.6-0.3-0.6-0.6
			l0,0c0-0.3,0.3-0.6,0.6-0.6l0,0l0,0c3,0,6,1.2,8.6,3.8c3.7,3.7,6.3,9.6,6.3,14.8c0,6-2.9,14.4-10,19.7c6.5-2.2,12.8-5.6,18-10.7
			c0.3-0.3,0.5-0.5,0.8-0.8c1.7-1.7,5.6-5.7,5.6-5.7s-1.9,3.7-4.7,6.6c-0.1,0.1-0.3,0.3-0.4,0.4c-0.1,0.1-0.2,0.2-0.3,0.3
			c-10.6,10.6-25.2,15.2-38.8,15.2c-3.9,0-7.7-0.4-11.3-1.1l0,0c0,0,0,0-0.1,0c-3.1-0.6-6.1-1.5-8.9-2.6
			c-16.8-6.7-23.3-22.8-24.5-26c0,0,0,0,0-0.1s-0.1-0.2-0.1-0.3c-0.1-0.4-0.3-0.8-0.4-1.3l0,0l0,0c-1.1-3.8-1.4-8.7-1.4-13.3
			C349,73.8,349,73.3,349,72.9z"/>
	</g>
</g>
<g>
	<g>
		<g>
			<path d="M217.2,292.1c-4.7-1.6-15,0.1-19.7,10.6c-0.3,0.6-0.5,1.1-0.7,1.8l0,0l0,0l0,0l0,0l0,0l0,0c-5,13.9-13.2,20.6-27.5,22.5
				c-13.1,1.7-24.9-6.1-34.4-12.4c-0.7-0.4-1.3-0.9-2-1.3c-11-7.2-22.9-14.1-46.9-17.9c-0.3-0.1-0.6,0.2-0.7,0.5v0.1
				c0,0.3,0.2,0.5,0.5,0.6c25.1,4,38,12.4,47.3,18.6l2,1.3c8.7,5.8,19.4,12.9,31.3,12.9c1.3,0,2.6-0.1,3.9-0.3
				c13.9-1.8,22.1-9.1,27.5-24.2l0,0l0,0l0,0l0,0l0,0l0,0c1.7-4.8,4.7-8.2,8.6-10.1c3.9-1.8,7.9-1.6,10-0.8
				c5.8,2.1,8.2,5.8,7.1,11.1c-0.9,4.5-4.8,7.6-9.5,7.6c-2.6,0-5.6-2.4-6.5-5.3c-0.1-0.5-0.3-1-0.3-1.7c0-1.7,0.8-3.1,2.2-4.1l0,0
				c0.2-0.1,0.2-0.3,0.2-0.5c0-0.1,0-0.2-0.1-0.3c-0.2-0.3-0.5-0.3-0.8-0.1c-1.7,1.3-2.6,3-2.7,4.9c0,0.9,0.1,1.8,0.4,2.8
				c1.2,3.6,4.5,6.4,7.5,6.4c5.7,0,10.7-5,11.5-9.4C226.9,298.9,224,294.3,217.2,292.1z"/>
			<path d="M113.4,294.2c0.1,0,0.1,0.1,0.2,0.1c7.2,3.1,14.1,6.3,20.5,9.4c13.6,6.5,24.4,11.6,31.7,11.6c15.8,0,22.1-11.7,27.7-22.1
				c4.3-8,8-14.9,15.2-14.9c1.7,0,4.7,0.4,4.7,2.7c0,0.7-0.6,1.4-1.5,1.8l0,0c-0.9,0.4-2.2,0.5-2.8-0.2c-0.2-0.2-0.6-0.2-0.8,0
				c-0.1,0.1-0.2,0.3-0.2,0.4s0.1,0.3,0.2,0.4c0.9,0.9,2.5,1.1,4,0.5h0.1c1.5-0.6,2.4-1.8,2.4-2.9c0-2.5-2.5-4.2-6.1-4.2
				c-8.1,0-12.4,7.7-17,15.9c-1.7,3-3.5,6.2-5.5,9.1c0.3-1.4,0.6-2.8,0.6-4.2c0-5.2-4.1-10.7-11.8-10.7c-4.1,0-7.4,1.4-9.3,3.7
				c-1.2,1.4-1.9,3.2-1.9,5.4c0,3.8,2.7,8,6.7,8c3.7,0,5-2.1,5-4c0-0.3-0.3-0.6-0.6-0.6c-0.3,0-0.6,0.3-0.6,0.6
				c0,0.9-0.4,2.9-3.9,2.9c-3.4,0-5.5-4-5.5-6.9c0-1.9,0.7-3.6,1.9-5c1.6-1.6,4.2-2.4,7.7-2.4c6.7,0,10.3,4.6,10.3,8.9
				c0,3.7-1.9,8.2-4.6,11c-3.5,2.8-7.8,4.7-13.2,4.7c-7,0-18.4-5.3-31.5-11.5c-0.8-0.4-1.7-0.8-2.6-1.2c0.6,0,1.1,0.1,1.7,0.1
				c6.5,0,15.5-3.8,15.5-10.9c0-6.2-4.2-9.1-8.2-9.1c-4.6,0-6.6,3-6.6,5.8c0,3,3.6,4.7,3.7,4.8c0.3,0.1,0.6,0,0.8-0.3
				c0-0.1,0.1-0.2,0.1-0.2c0-0.2-0.1-0.4-0.3-0.5c0,0-3.1-1.5-3.1-3.8s2.4-4.2,4.5-4.2c0.7,0,7.1,0.2,7.1,7.5c0,7-8.8,8.9-13.5,8.9
				c-4.8,0-7.5-1.2-12.4-3.3c-1.3-0.6-2.8-1.2-4.5-1.9c-0.1-0.1-0.3,0-0.4,0c-16.7-7.2-35.3-13.5-53.8-13.5
				c-42,0-50.1,13.5-50.4,14.1c-0.2,0.3-0.1,0.6,0.2,0.8c0.3,0.2,0.6,0.1,0.8-0.2c0.1-0.1,8.2-12.6,49.4-12.6
				C80.4,281.9,97.7,287.5,113.4,294.2C113.4,294.1,113.4,294.2,113.4,294.2z"/>
		</g>
		<circle cx="170.7" cy="276.6" r="1.9"/>
		<circle cx="180.4" cy="278.3" r="3.1"/>
		<circle cx="186" cy="285.2" r="1.6"/>
		<circle cx="121.7" cy="284.6" r="1.6"/>
		<circle cx="126.5" cy="275.2" r="3.1"/>
		<g>
			<circle cx="241.7" cy="300.7" r="1.9"/>
			<circle cx="241.7" cy="281.8" r="1.6"/>
			<circle cx="241.7" cy="290.8" r="3.1"/>
		</g>
	</g>
	<g>
		<path d="M266.3,292.1c4.7-1.6,15,0.1,19.7,10.6c0.3,0.6,0.5,1.1,0.7,1.8l0,0l0,0l0,0l0,0l0,0l0,0c5,13.9,13.2,20.6,27.5,22.5
			c13.1,1.7,24.9-6.1,34.4-12.4c0.7-0.4,1.3-0.9,2-1.3c11-7.2,22.9-14.1,46.9-17.9c0.3-0.1,0.6,0.2,0.7,0.5v0.1
			c0,0.3-0.2,0.5-0.5,0.6c-25.1,4-38,12.4-47.3,18.6l-2,1.3c-8.7,5.8-19.4,12.9-31.3,12.9c-1.3,0-2.6-0.1-3.9-0.3
			c-13.9-1.8-22.1-9.1-27.5-24.2l0,0l0,0l0,0l0,0l0,0l0,0c-1.7-4.8-4.7-8.2-8.6-10.1c-3.9-1.8-7.9-1.6-10-0.8
			c-5.8,2.1-8.2,5.8-7.1,11.1c0.9,4.5,4.8,7.6,9.5,7.6c2.6,0,5.6-2.4,6.5-5.3c0.1-0.5,0.3-1,0.3-1.7c0-1.7-0.8-3.1-2.2-4.1l0,0
			c-0.2-0.1-0.2-0.3-0.2-0.5c0-0.1,0-0.2,0.1-0.3c0.2-0.3,0.5-0.3,0.8-0.1c1.7,1.3,2.6,3,2.7,4.9c0,0.9-0.1,1.8-0.4,2.8
			c-1.2,3.6-4.5,6.4-7.5,6.4c-5.7,0-10.7-5-11.5-9.4C256.6,298.9,259.5,294.3,266.3,292.1z"/>
		<path d="M370.1,294.2c-0.1,0-0.1,0.1-0.2,0.1c-7.2,3.1-14.1,6.3-20.5,9.4c-13.6,6.5-24.4,11.6-31.7,11.6
			c-15.8,0-22.1-11.7-27.7-22.1c-4.3-8-8-14.9-15.2-14.9c-1.7,0-4.7,0.4-4.7,2.7c0,0.7,0.6,1.4,1.5,1.8l0,0c0.9,0.4,2.2,0.5,2.8-0.2
			c0.2-0.2,0.6-0.2,0.8,0c0.1,0.1,0.2,0.3,0.2,0.4s-0.1,0.3-0.2,0.4c-0.9,0.9-2.5,1.1-4,0.5h-0.1c-1.5-0.6-2.4-1.8-2.4-2.9
			c0-2.5,2.5-4.2,6.1-4.2c8.1,0,12.4,7.7,17,15.9c1.7,3,3.5,6.2,5.5,9.1c-0.3-1.4-0.6-2.8-0.6-4.2c0-5.2,4.1-10.7,11.8-10.7
			c4.1,0,7.4,1.4,9.3,3.7c1.2,1.4,1.9,3.2,1.9,5.4c0,3.8-2.7,8-6.7,8c-3.7,0-5-2.1-5-4c0-0.3,0.3-0.6,0.6-0.6c0.3,0,0.6,0.3,0.6,0.6
			c0,0.9,0.4,2.9,3.9,2.9c3.4,0,5.5-4,5.5-6.9c0-1.9-0.7-3.6-1.9-5c-1.6-1.6-4.2-2.4-7.7-2.4c-6.7,0-10.3,4.6-10.3,8.9
			c0,3.7,1.9,8.2,4.6,11c3.5,2.8,7.8,4.7,13.2,4.7c7,0,18.4-5.3,31.5-11.5c0.8-0.4,1.7-0.8,2.6-1.2c-0.6,0-1.1,0.1-1.7,0.1
			c-6.5,0-15.5-3.8-15.5-10.9c0-6.2,4.2-9.1,8.2-9.1c4.6,0,6.6,3,6.6,5.8c0,3-3.6,4.7-3.7,4.8c-0.3,0.1-0.6,0-0.8-0.3
			c0-0.1-0.1-0.2-0.1-0.2c0-0.2,0.1-0.4,0.3-0.5c0,0,3.1-1.5,3.1-3.8s-2.4-4.2-4.5-4.2c-0.7,0-7.1,0.2-7.1,7.5c0,7,8.8,8.9,13.5,8.9
			c4.8,0,7.5-1.2,12.4-3.3c1.3-0.6,2.8-1.2,4.5-1.9c0.1-0.1,0.3,0,0.4,0c16.7-7.2,35.3-13.5,53.8-13.5c42,0,50.1,13.5,50.4,14.1
			c0.2,0.3,0.1,0.6-0.2,0.8c-0.3,0.2-0.6,0.1-0.8-0.2c-0.1-0.1-8.2-12.6-49.4-12.6C403.1,281.9,385.8,287.5,370.1,294.2
			C370.1,294.1,370.1,294.2,370.1,294.2z"/>
	</g>
	<circle cx="312.8" cy="276.6" r="1.9"/>
	<circle cx="303.1" cy="278.3" r="3.1"/>
	<circle cx="297.5" cy="285.2" r="1.6"/>
	<circle cx="361.8" cy="284.6" r="1.6"/>
	<circle cx="357" cy="275.2" r="3.1"/>
</g>
</svg>
