<?xml version="1.0" encoding="UTF-8" standalone="no"?>
<!-- Created with Inkscape (http://www.inkscape.org/) -->

<svg
   xmlns:dc="http://purl.org/dc/elements/1.1/"
   xmlns:cc="http://creativecommons.org/ns#"
   xmlns:rdf="http://www.w3.org/1999/02/22-rdf-syntax-ns#"
   xmlns:svg="http://www.w3.org/2000/svg"
   xmlns="http://www.w3.org/2000/svg"
   xmlns:sodipodi="http://sodipodi.sourceforge.net/DTD/sodipodi-0.dtd"
   xmlns:inkscape="http://www.inkscape.org/namespaces/inkscape"
   width="221.91664"
   height="221.91664"
   viewBox="0 0 58.715446 58.715446"
   version="1.1"
   id="svg20085"
   inkscape:version="0.92.3 (2405546, 2018-03-11)"
   sodipodi:docname="the-web.svg">
  <defs
     id="defs20079" />
  <sodipodi:namedview
     id="base"
     pagecolor="#ffffff"
     bordercolor="#666666"
     borderopacity="1.0"
     inkscape:pageopacity="0"
     inkscape:pageshadow="2"
     inkscape:zoom="0.78127806"
     inkscape:cx="630.7484"
     inkscape:cy="187.15866"
     inkscape:document-units="mm"
     inkscape:current-layer="layer1"
     showgrid="false"
     fit-margin-top="0"
     fit-margin-left="0"
     fit-margin-right="0"
     fit-margin-bottom="0"
     units="px"
     inkscape:window-width="1680"
     inkscape:window-height="1022"
     inkscape:window-x="3600"
     inkscape:window-y="0"
     inkscape:window-maximized="1" />
  <metadata
     id="metadata20082">
    <rdf:RDF>
      <cc:Work
         rdf:about="">
        <dc:format>image/svg+xml</dc:format>
        <dc:type
           rdf:resource="http://purl.org/dc/dcmitype/StillImage" />
        <dc:title></dc:title>
      </cc:Work>
    </rdf:RDF>
  </metadata>
  <g
     inkscape:label="Layer 1"
     inkscape:groupmode="layer"
     id="layer1"
     transform="translate(61.885515,-139.30362)">
    <rect
       style="opacity:1;vector-effect:none;fill:#2897e9;fill-opacity:1;stroke:none;stroke-width:0.40681574;stroke-linecap:butt;stroke-linejoin:miter;stroke-miterlimit:4;stroke-dasharray:none;stroke-dashoffset:0;stroke-opacity:1"
       id="rect24577"
       width="44.877602"
       height="44.877602"
       x="74.312401"
       y="119.49044"
       transform="rotate(45.197677)"
       ry="5.7473254" />
    <rect
       ry="5.7473254"
       transform="rotate(15.37229)"
       y="148.81125"
       x="-9.0924654"
       height="44.877602"
       width="44.877602"
       id="rect24579"
       style="opacity:1;vector-effect:none;fill:#e55152;fill-opacity:1;stroke:none;stroke-width:0.40681574;stroke-linecap:butt;stroke-linejoin:miter;stroke-miterlimit:4;stroke-dasharray:none;stroke-dashoffset:0;stroke-opacity:1" />
    <path
       style="opacity:1;vector-effect:none;fill:#1f2f48;fill-opacity:1;stroke:none;stroke-width:1.53757131;stroke-linecap:butt;stroke-linejoin:miter;stroke-miterlimit:4;stroke-dasharray:none;stroke-dashoffset:0;stroke-opacity:1"
       d="m -147.83789,542.66016 -50.88867,50.54101 -19.01367,69.1543 50.54101,50.89062 69.156251,19.01368 50.890625,-50.53907 19.013672,-69.15625 -50.541016,-50.89062 z"
       transform="scale(0.26458333)"
       id="rect24581"
       inkscape:connector-curvature="0" />
    <path
       style="fill:#ffffff;stroke-width:0.2620824"
       d="m -48.801749,183.45483 c -1.387639,-0.74255 -2.106456,-1.42537 -2.855299,-2.71228 -0.578785,-0.99466 -0.756619,-1.56115 -1.052123,-3.35146 -0.141958,-0.86007 0.358501,-4.18217 1.274193,-8.45818 0.778536,-3.63559 1.697113,-7.9979 2.510999,-11.92474 0.313689,-1.51353 0.689356,-2.94844 0.689356,-2.94844 l 8.998882,0.15662 c 0,0 -0.417392,2.34659 -0.927534,4.783 -0.510131,2.43641 -1.110198,5.31436 -1.333488,6.39545 -0.22329,1.08109 -0.638826,3.02705 -0.923408,4.32436 -1.20678,5.50132 -1.248505,7.14912 -0.197693,7.8084 0.689851,0.43279 1.875733,-0.0523 3.002199,-1.22784 1.191016,-1.24302 1.796005,-2.88984 2.754461,-7.49786 0.314819,-1.51352 0.660672,-3.16464 0.768561,-3.66914 0.107888,-0.50452 0.630485,-3.04016 1.161312,-5.63477 0.530838,-2.59463 1.099901,-5.17613 1.099901,-5.17613 l 9.076915,0.0705 -0.141625,0.71574 c -0.07786,0.68468 -0.328052,2.07044 -0.555901,3.07946 -0.227859,1.00902 -0.821098,3.78054 -1.318309,6.15894 -0.497221,2.37839 -1.25031,5.96917 -1.673552,7.97951 -1.048745,4.98148 -0.694218,5.8636 2.058629,5.12233 3.022865,-0.81397 6.492796,-6.86241 8.11504,-14.14531 0.288885,-1.29693 0.525246,-2.76467 0.525246,-3.26164 0,-0.88534 -0.01843,-0.90059 -0.912212,-0.75556 -1.649921,0.26776 -3.024627,-1.27471 -3.015167,-3.38308 0.0117,-2.59498 2.887987,-4.1198 5.618949,-2.97873 2.514987,1.05083 3.06985,5.51227 1.567268,12.60184 -1.704895,8.04417 -5.058015,13.75052 -9.810893,16.69622 -2.112185,1.30908 -3.437534,1.64956 -6.421023,1.64956 -2.341345,0 -2.780553,-0.0785 -4.11865,-0.73553 -1.113153,-0.54663 -1.704163,-1.05394 -2.301184,-1.97529 l -0.803336,-1.23977 -1.290966,1.24433 c -1.986304,1.91453 -3.619402,2.6282 -6.29135,2.74934 -1.899838,0.0861 -2.385027,0.0182 -3.278198,-0.45986 z"
       id="path24589"
       inkscape:connector-curvature="0"
       sodipodi:nodetypes="ccccsccccccccsscccsssssscccscscccccc" />
  </g>
</svg>
