<?xml version="1.0" encoding="utf-8"?>
<!-- Generator: Adobe Illustrator 23.0.1, SVG Export Plug-In . SVG Version: 6.00 Build 0)  -->
<svg version="1.1" id="Layer_1" xmlns="http://www.w3.org/2000/svg" xmlns:xlink="http://www.w3.org/1999/xlink" x="0px" y="0px"
	 viewBox="0 0 192.8 192.8" style="enable-background:new 0 0 192.8 192.8;" xml:space="preserve">
<style type="text/css">
	.st0{fill:#FFFFFF;}
	.st1{fill:#13A0DB;}
</style>
<g>
	<circle class="st0" cx="96.4" cy="96.4" r="89.5"/>
	<g>
		<path class="st1" d="M96.4,179.1c-45.6,0-82.7-37.1-82.7-82.7s37.1-82.7,82.7-82.7s82.7,37.1,82.7,82.7S142,179.1,96.4,179.1z
			 M96.4,19.7c-42.3,0-76.7,34.4-76.7,76.7s34.4,76.7,76.7,76.7c42.3,0,76.7-34.4,76.7-76.7S138.7,19.7,96.4,19.7z"/>
		<path class="st1" d="M96.4,186.7C46.6,186.7,6,146.2,6,96.4C6,46.6,46.6,6,96.4,6s90.3,40.5,90.3,90.3
			C186.7,146.2,146.2,186.7,96.4,186.7z M96.4,9C48.2,9,9,48.2,9,96.4c0,48.2,39.2,87.3,87.3,87.3s87.3-39.2,87.3-87.3
			C183.7,48.2,144.5,9,96.4,9z"/>
		<path class="st1" d="M46.7,158.7c5.6-12.3,11-27.6,11-39.8s-11-13.4-11-45.7c0-27.8,27.6-37.3,47.4-37.3s48,13.8,48,36.2
			c0,14-3.7,14.6-3.7,20.5c0,5.8,10.8,12.5,10.8,16.4c0,3.9-9.3,6-9.3,8.2c0,2.2,3.2,3.7,3.2,5.4c0,1.7-5.8,3.4-5.8,3.4
			s3.9,0.4,3.9,2.2c0,1.7-3.4,3-3.4,5.8c0,2.8,3,12.3-6.2,12.3s-20.7-4.7-20.7-4.7s-4.5,18.3-0.9,33.4c-18.3,1.2-33.9-1.4-33.9-1.4
			L46.7,158.7z"/>
	</g>
	<path class="st0" d="M124.2,64.7c-0.8,0-1.4,0.2-2.1,0.6l-8.5-10c0.6-0.7,0.9-1.6,0.9-2.6c0-2.3-1.9-4.2-4.2-4.2
		c-2.1,0-3.9,1.6-4.1,3.6L90,52.8c-0.4-1.8-2.1-3.2-4.1-3.2c-2.3,0-4.2,1.9-4.2,4.2c0,0.2,0,0.5,0.1,0.7l-13.9,5
		c-0.7-1.2-2.1-2.1-3.6-2.1c-2.3,0-4.2,1.9-4.2,4.2c0,2.1,1.5,3.8,3.5,4.1l0.3,20.5c-2.1,0.2-3.8,2-3.8,4.2c0,2.3,1.9,4.2,4.2,4.2
		c2,0,3.8-1.5,4.1-3.4h13.4c0.2,1,0.7,1.8,1.5,2.4l-6.4,11.7c-0.4-0.1-0.7-0.2-1.1-0.2c-2.3,0-4.2,1.9-4.2,4.2
		c0,2.3,1.9,4.2,4.2,4.2s4.2-1.9,4.2-4.2c0-1.4-0.7-2.6-1.7-3.3l6.3-11.7c0.4,0.1,0.8,0.2,1.3,0.2c2.3,0,4.2-1.9,4.2-4.2
		c0-0.1,0-0.2,0-0.3l13-3.6c0.7,1.4,2.1,2.3,3.7,2.3c2.3,0,4.2-1.9,4.2-4.2c0-0.8-0.2-1.5-0.6-2.2l11.3-10.2
		c0.7,0.5,1.6,0.9,2.5,0.9c2.3,0,4.2-1.9,4.2-4.2C128.4,66.5,126.6,64.7,124.2,64.7z M106.8,80.4c-0.4,0-0.7,0.1-1.1,0.2l-6.3-13.1
		c0.6-0.5,1.1-1.1,1.4-1.9l19.2,3.4c0,0.8,0.2,1.5,0.6,2.1l-11.3,10.2C108.6,80.7,107.7,80.4,106.8,80.4z M103.2,82.4l-23.3-8.7
		c0-0.2,0.1-0.4,0.1-0.7c0-0.3,0-0.6-0.1-0.9l13.6-5.8c0.8,1.1,2,1.9,3.5,1.9c0.4,0,0.7-0.1,1.1-0.2l6.3,13.1
		C103.9,81.6,103.5,82,103.2,82.4z M81.8,89.6H68.4c-0.1-0.7-0.5-1.4-1-2L74.2,77c0.5,0.2,1,0.3,1.5,0.3c0.5,0,1-0.1,1.4-0.3l6,10.2
		C82.4,87.9,82,88.7,81.8,89.6z M65.5,86.4l-0.3-20.7c0.5-0.1,1-0.3,1.5-0.6l5.6,5.6c-0.5,0.7-0.7,1.5-0.7,2.4c0,1.2,0.5,2.3,1.3,3
		l-6.7,10.5C65.9,86.5,65.7,86.5,65.5,86.4z M110.4,56.8c0.8,0,1.4-0.2,2.1-0.6l8.5,10c-0.3,0.3-0.5,0.7-0.6,1.1L101.1,64
		c0-0.7-0.2-1.4-0.6-2l7.2-6.1C108.5,56.5,109.4,56.8,110.4,56.8z M106.8,54.7l-7.2,6.1c-0.7-0.6-1.6-0.9-2.6-0.9
		c-0.9,0-1.8,0.3-2.5,0.8l-5-4.7c0.3-0.5,0.5-1,0.6-1.6l16.3-0.8C106.4,54,106.6,54.3,106.8,54.7z M85.9,58c0.9,0,1.8-0.3,2.5-0.8
		l5,4.7c-0.4,0.6-0.6,1.4-0.6,2.2c0,0.3,0,0.6,0.1,0.9l-13.6,5.8c-0.2-0.4-0.5-0.6-0.9-0.9l6.3-12C85.1,57.9,85.5,58,85.9,58z
		 M82.3,55.9c0.3,0.4,0.6,0.8,1,1.1l-6.3,12c-0.4-0.1-0.8-0.2-1.2-0.2c-0.9,0-1.7,0.3-2.4,0.7L67.8,64c0.5-0.7,0.7-1.5,0.7-2.4
		c0-0.2,0-0.4-0.1-0.6L82.3,55.9z M89.6,88.5c-0.7-1.4-2.1-2.3-3.7-2.3c-0.5,0-1,0.1-1.4,0.3l-6-10.2c0.3-0.3,0.6-0.6,0.8-1
		l23.3,8.7c0,0.2-0.1,0.4-0.1,0.7c0,0.1,0,0.2,0,0.3L89.6,88.5z"/>
</g>
</svg>
