<?xml version="1.0" encoding="utf-8"?>
<!-- Generator: Adobe Illustrator 22.1.0, SVG Export Plug-In . SVG Version: 6.00 Build 0)  -->
<svg version="1.1" id="Layer_1" xmlns="http://www.w3.org/2000/svg" xmlns:xlink="http://www.w3.org/1999/xlink" x="0px" y="0px"
	 viewBox="0 0 349 418.2" style="enable-background:new 0 0 349 418.2;" xml:space="preserve">
<style type="text/css">
	.st0{fill:#FFFFFF;}
	.st1{fill:#FFD10C;}
	.st2{fill:#23BAB0;}
	.st3{fill:#EF5197;}
	.st4{fill:#16A7E0;}
	.st5{fill:#92C740;}
	.st6{fill:#0A79A0;}
	.st7{fill:#231F20;}
</style>
<g>
	<path class="st0" d="M321.5,154.9c0-24.9-15.4-46.6-38.6-55.1c1-5.2,1.6-10.5,1.6-15.9c0-46.2-37.6-83.9-83.9-83.9
		c-27,0-52.1,13-67.9,34.8c-7.8-6-17.3-9.3-27.2-9.3C81,25.5,61,45.5,61,70c0,5.4,1,10.6,2.8,15.5c-23.1,8.3-38.9,30.6-38.9,55.3
		c0,25,15.5,46.8,38.8,55.3c-1,5.2-1.5,10.5-1.5,15.9c0,46.1,37.5,83.7,83.7,83.7c27.1,0,52.2-13,67.9-34.9
		c7.8,6.1,17.4,9.5,27.3,9.5c24.5,0,44.5-20,44.5-44.5c0-5.4-1-10.6-2.8-15.5C305.7,201.9,321.5,179.7,321.5,154.9"/>
	<path class="st1" d="M141.4,127.4l64.9,29.6l65.5-57.4c0.9-4.7,1.4-9.5,1.4-14.4c0-40.4-32.9-73.3-73.3-73.3
		c-24.2,0-46.7,11.9-60.4,31.9l-10.9,56.5L141.4,127.4z"/>
	<path class="st2" d="M74.2,196.1c-0.9,4.7-1.4,9.6-1.4,14.6c0,40.5,33,73.5,73.5,73.5c24.4,0,47-12,60.7-32.2l10.8-56.4L203.4,168
		l-65.2-29.7L74.2,196.1z"/>
	<path class="st3" d="M73.8,83.8l44.5,10.5l9.8-50.6c-6.1-4.6-13.6-7.2-21.3-7.2c-19.3,0-35.1,15.7-35.1,35.1
		C71.7,75.8,72.4,79.9,73.8,83.8"/>
	<path class="st4" d="M69.9,94.4C50,101,36.2,120.1,36.2,141c0,20.4,12.6,38.6,31.6,45.9l62.4-56.4l-11.4-24.6L69.9,94.4z"/>
	<path class="st5" d="M218.3,252.1c6.1,4.7,13.6,7.3,21.2,7.3c19.3,0,35.1-15.7,35.1-35.1c0-4.3-0.7-8.4-2.1-12.2L228,201.6
		L218.3,252.1z"/>
	<path class="st6" d="M227.4,190l49,11.5c19.9-6.6,33.7-25.6,33.7-46.6c0-20.4-12.7-38.6-31.6-45.8l-64,56.1L227.4,190z"/>
</g>
<g>
	<path class="st7" d="M51.4,403.9l3.9-0.4l0.3,7.9c-10.1,1.4-18.8,2.1-26,2.1c-9.6,0-16.4-2.8-20.4-8.3c-4-5.6-6-14.2-6-25.9
		c0-23.4,9.3-35.1,27.9-35.1c9,0,15.7,2.5,20.1,7.5c4.4,5,6.7,12.9,6.7,23.7l-0.5,7.6h-44c0,7.4,1.3,12.8,4,16.4
		c2.7,3.6,7.3,5.3,13.9,5.3C37.8,404.7,44.6,404.4,51.4,403.9z M47.8,374.9c0-8.2-1.3-14-3.9-17.3c-2.6-3.4-6.9-5.1-12.8-5.1
		c-5.9,0-10.4,1.8-13.3,5.3c-3,3.6-4.5,9.2-4.6,17.1H47.8z"/>
	<path class="st7" d="M71.7,413v-87.7h10V413H71.7z"/>
	<path class="st7" d="M144.7,365.6v33.6c0,3.3,8.3,3.2,8.3,3.2l-0.5,8.8c-7,0-12.8,0.6-16.3-2.8c-8,3.6-16,5-24,5
		c-6.1,0-10.8-1.7-14-5.2s-4.8-8.4-4.8-14.9S95,382,98.3,379c3.3-3.1,8.4-5,15.5-5.7l20.9-2v-5.7c0-4.5-1-7.8-2.9-9.7
		c-2-2-4.6-2.9-8-2.9H97.5v-8.8h25.6c7.6,0,13,1.7,16.5,5.2C143,352.8,144.7,358.2,144.7,365.6z M103.6,392.8
		c0,8.2,3.4,12.3,10.1,12.3c6,0,12-1,17.9-3.1l3.1-1.1v-22l-19.7,1.9c-4,0.4-6.9,1.5-8.7,3.5C104.5,386.2,103.6,389.1,103.6,392.8z"
		/>
	<path class="st7" d="M183.7,353.1c-9.7,0-14.5,3.4-14.5,10.1c0,3.1,1.1,5.3,3.3,6.6c2.2,1.3,7.3,2.6,15.2,4
		c7.9,1.4,13.5,3.3,16.8,5.8s4.9,7.2,4.9,14s-2.2,11.9-6.6,15.1c-4.4,3.2-10.8,4.8-19.3,4.8c-5.5,0-23.9-2-23.9-2l0.5-8.7
		c10.6,1,18.2,1.8,23.4,1.8c5.2,0,9.1-0.8,11.8-2.5c2.7-1.6,4.1-4.4,4.1-8.3c0-3.9-1.2-6.5-3.5-7.9s-7.4-2.7-15.2-3.9
		c-7.8-1.2-13.4-3.1-16.7-5.5c-3.3-2.4-4.9-6.8-4.9-13.3s2.3-11.3,6.9-14.4c4.6-3.1,10.3-4.7,17.1-4.7c5.4,0,24.2,1.4,24.2,1.4v8.7
		C197.5,353.8,189.4,353.1,183.7,353.1z"/>
	<path class="st7" d="M257.7,354.2h-21.2v31.9c0,7.6,0.6,12.7,1.7,15.1c1.1,2.4,3.8,3.6,7.9,3.6L258,404l0.7,8.3
		c-6,1-10.5,1.5-13.6,1.5c-6.9,0-11.7-1.7-14.4-5.1c-2.7-3.4-4-9.8-4-19.3v-35.1h-9.5v-8.7h9.5v-20.4h9.9v20.4h21.2v8.6H257.7z"/>
	<path class="st7" d="M271.6,337v-11.6h10V337H271.6z M271.6,413v-67.5h10V413H271.6z"/>
	<path class="st7" d="M324.9,344.2c2.9,0,7.9,0.5,14.9,1.6l3.2,0.4l-0.4,8.1c-7.1-0.8-12.4-1.2-15.7-1.2c-7.6,0-12.7,1.8-15.4,5.4
		c-2.7,3.6-4.1,10.3-4.1,20s1.3,16.5,3.8,20.3s7.8,5.7,15.8,5.7l15.7-1.2l0.4,8.3c-8.3,1.2-14.4,1.9-18.5,1.9
		c-10.4,0-17.6-2.7-21.5-8c-4-5.3-5.9-14.3-5.9-27s2.1-21.6,6.4-26.7C307.8,346.7,314.9,344.2,324.9,344.2z"/>
</g>
</svg>
