<?xml version="1.0" encoding="utf-8"?>
<!-- Generator: Adobe Illustrator 23.0.1, SVG Export Plug-In . SVG Version: 6.00 Build 0)  -->
<svg version="1.1" id="Layer_1" xmlns="http://www.w3.org/2000/svg" xmlns:xlink="http://www.w3.org/1999/xlink" x="0px" y="0px"
	 viewBox="0 0 625.45 609.09" style="enable-background:new 0 0 625.45 609.09;" xml:space="preserve">
<style type="text/css">
	.st0{fill:#00447C;}
	.st1{fill:#7AC143;}
</style>
<g>
	<polygon class="st0" points="13.91,567.27 13.91,500.75 34.14,500.75 47.37,551.38 60.43,500.75 80.75,500.75 80.75,567.27 
		67.93,567.27 67.93,513.62 54.42,567.27 40.42,567.27 26.74,513.62 26.74,567.27 	"/>
	<path class="st0" d="M119.09,552.37h13.09c-1.32,5.18-3.99,9.25-8.01,12.18c-4.02,2.94-8.92,4.4-14.7,4.4
		c-7.11,0-12.74-2.38-16.9-7.16c-4.15-4.78-6.24-11.24-6.24-19.4c0-8.04,2.05-14.38,6.14-19.02c4.09-4.64,9.69-6.96,16.8-6.96
		c7.52,0,13.35,2.29,17.44,6.85c4.09,4.55,6.14,11.05,6.14,19.49c0,0.93-0.01,1.63-0.02,2.1c-0.01,0.46-0.05,0.91-0.11,1.33H99.93
		c0.18,3.86,1.12,6.76,2.82,8.72c1.7,1.95,4.14,2.93,7.34,2.93c2.25,0,4.11-0.44,5.56-1.34
		C117.1,555.62,118.24,554.24,119.09,552.37 M99.93,537.56h19.33c-0.12-3.31-1-5.84-2.64-7.56c-1.65-1.73-4-2.6-7.07-2.6
		c-2.86,0-5.1,0.87-6.75,2.62C101.15,531.76,100.2,534.28,99.93,537.56"/>
	<path class="st0" d="M134.15,551.28h13.1c0.11,2.5,1.02,4.36,2.71,5.59c1.68,1.22,4.22,1.83,7.58,1.83c2.56,0,4.54-0.43,5.94-1.29
		c1.41-0.86,2.1-2.07,2.1-3.64c0-2.23-2.62-3.89-7.85-5c-2.14-0.46-3.85-0.85-5.11-1.18c-6.37-1.62-10.81-3.55-13.29-5.78
		c-2.48-2.23-3.72-5.24-3.72-9.03c0-5.03,1.81-9.01,5.44-11.95c3.62-2.93,8.54-4.4,14.74-4.4c6.57,0,11.72,1.46,15.46,4.37
		c3.76,2.92,5.75,7.04,6,12.34h-12.79c-0.09-2.07-0.89-3.69-2.38-4.83c-1.49-1.15-3.55-1.72-6.21-1.72c-2.5,0-4.36,0.37-5.58,1.13
		c-1.22,0.76-1.83,1.88-1.83,3.39c0,1.96,3.27,3.69,9.8,5.2c1.51,0.33,2.69,0.6,3.57,0.81c6.53,1.54,10.99,3.39,13.39,5.56
		c2.39,2.16,3.59,5.23,3.59,9.17c0,5.57-1.96,9.82-5.9,12.74c-3.93,2.93-9.64,4.39-17.14,4.39c-6.77,0-12.08-1.54-15.9-4.57
		c-3.83-3.04-5.73-7.23-5.73-12.56V551.28z"/>
	<path class="st0" d="M180.02,551.28h13.1c0.12,2.5,1.03,4.36,2.71,5.59c1.69,1.22,4.21,1.83,7.58,1.83c2.56,0,4.54-0.43,5.94-1.29
		c1.4-0.86,2.1-2.07,2.1-3.64c0-2.23-2.61-3.89-7.85-5c-2.14-0.46-3.84-0.85-5.1-1.18c-6.39-1.62-10.82-3.55-13.29-5.78
		c-2.49-2.23-3.73-5.24-3.73-9.03c0-5.03,1.82-9.01,5.44-11.95c3.63-2.93,8.55-4.4,14.74-4.4c6.57,0,11.73,1.46,15.47,4.37
		c3.75,2.92,5.74,7.04,5.99,12.34h-12.78c-0.09-2.07-0.88-3.69-2.37-4.83c-1.49-1.15-3.56-1.72-6.21-1.72
		c-2.5,0-4.36,0.37-5.57,1.13c-1.22,0.76-1.83,1.88-1.83,3.39c0,1.96,3.27,3.69,9.8,5.2c1.51,0.33,2.7,0.6,3.57,0.81
		c6.53,1.54,11,3.39,13.39,5.56c2.39,2.16,3.59,5.23,3.59,9.17c0,5.57-1.96,9.82-5.9,12.74c-3.93,2.93-9.64,4.39-17.14,4.39
		c-6.77,0-12.07-1.54-15.89-4.57c-3.83-3.04-5.74-7.23-5.74-12.56V551.28z"/>
	<path class="st0" d="M256.78,561.18c-1.65,2.56-3.82,4.51-6.5,5.85c-2.68,1.34-5.8,2.01-9.35,2.01c-4.75,0-8.42-1.36-10.99-4.07
		c-2.57-2.71-3.86-6.57-3.86-11.56c0-4.63,1.29-8.17,3.86-10.61c2.57-2.44,6.82-4.11,12.75-5.02c1.36-0.21,3.14-0.45,5.34-0.72
		c5.57-0.73,8.36-2.34,8.36-4.83c0-1.99-0.62-3.42-1.86-4.27c-1.23-0.85-3.3-1.29-6.19-1.29c-2.64,0-4.68,0.53-6.09,1.59
		c-1.43,1.05-2.13,2.55-2.13,4.51v0.72h-12.29v-0.9c0-5.03,1.78-8.98,5.33-11.86c3.55-2.88,8.46-4.32,14.72-4.32
		c6.86,0,12.13,1.19,15.79,3.57c3.66,2.38,5.48,5.81,5.48,10.3v27.91c0,2.05,0.21,3.58,0.64,4.58c0.42,1.02,1.12,1.78,2.13,2.29
		v2.22h-13.69c-0.45-0.85-0.79-1.79-1.04-2.81C256.95,563.45,256.81,562.36,256.78,561.18 M256.55,543.11c-2.14,1-4.6,1.79-7.38,2.4
		c-2.79,0.6-4.23,0.91-4.31,0.95c-2.32,0.66-3.94,1.49-4.85,2.49c-0.93,0.99-1.39,2.36-1.39,4.1c0,1.8,0.59,3.24,1.76,4.32
		c1.18,1.06,2.75,1.59,4.74,1.59c3.56,0,6.35-1,8.38-3c2.04-2.01,3.05-4.74,3.05-8.2V543.11z"/>
	<path class="st0" d="M274.87,572.02l14.36-0.04c0.42,1.65,1.29,2.89,2.6,3.71c1.31,0.8,3.06,1.22,5.27,1.22
		c4.09,0,6.96-0.87,8.58-2.6c1.62-1.73,2.43-4.92,2.43-9.6v-4.38c-1.38,2.38-3.18,4.14-5.39,5.26c-2.21,1.13-4.98,1.69-8.3,1.69
		c-6.35,0-11.44-2.27-15.26-6.79c-3.83-4.54-5.75-10.56-5.75-18.09c0-7.95,1.88-14.27,5.62-18.95c3.75-4.68,8.81-7.02,15.15-7.02
		c3.32,0,6.14,0.63,8.47,1.9c2.34,1.27,4.23,3.18,5.71,5.78v-5.92h12.48v45.84c0,5.16-0.49,9.09-1.45,11.8
		c-0.97,2.71-2.61,4.98-4.92,6.82c-1.99,1.54-4.51,2.71-7.56,3.5c-3.06,0.8-6.55,1.2-10.46,1.2c-6.57,0-11.73-1.34-15.49-4.02
		C277.21,580.64,275.17,576.87,274.87,572.02 M286.75,541.94c0,4.6,0.93,8.14,2.78,10.61c1.85,2.48,4.5,3.71,7.93,3.71
		c3.46,0,6.11-1.23,7.93-3.71c1.83-2.46,2.74-6.06,2.74-10.79c0-4.48-0.93-7.96-2.82-10.41c-1.88-2.46-4.55-3.68-8.01-3.68
		c-3.35,0-5.93,1.25-7.77,3.75C287.67,533.91,286.75,537.42,286.75,541.94"/>
	<path class="st0" d="M358.05,552.37h13.1c-1.32,5.18-3.99,9.25-8.01,12.18c-4.03,2.94-8.92,4.4-14.7,4.4
		c-7.11,0-12.74-2.38-16.89-7.16c-4.15-4.78-6.23-11.24-6.23-19.4c0-8.04,2.05-14.38,6.14-19.02c4.09-4.64,9.69-6.96,16.81-6.96
		c7.52,0,13.33,2.29,17.43,6.85c4.09,4.55,6.14,11.05,6.14,19.49c0,0.93,0,1.63-0.02,2.1c-0.01,0.46-0.06,0.91-0.12,1.33H338.9
		c0.18,3.86,1.11,6.76,2.82,8.72c1.7,1.95,4.14,2.93,7.34,2.93c2.26,0,4.11-0.44,5.55-1.34
		C356.06,555.62,357.21,554.24,358.05,552.37 M338.9,537.56h19.33c-0.12-3.31-1-5.84-2.64-7.56c-1.64-1.73-4-2.6-7.06-2.6
		c-2.87,0-5.12,0.87-6.75,2.62C340.13,531.76,339.17,534.28,338.9,537.56"/>
	<polygon class="st0" points="377,567.27 377,500.75 397.24,500.75 410.47,551.38 423.52,500.75 443.84,500.75 443.84,567.27 
		431.02,567.27 431.02,513.62 417.52,567.27 403.51,567.27 389.83,513.62 389.83,567.27 	"/>
	<path class="st0" d="M482.18,552.37h13.09c-1.32,5.18-3.99,9.25-8.01,12.18c-4.02,2.94-8.92,4.4-14.7,4.4
		c-7.11,0-12.74-2.38-16.89-7.16c-4.16-4.78-6.24-11.24-6.24-19.4c0-8.04,2.05-14.38,6.14-19.02c4.09-4.64,9.69-6.96,16.81-6.96
		c7.53,0,13.33,2.29,17.43,6.85c4.09,4.55,6.14,11.05,6.14,19.49c0,0.93,0,1.63-0.01,2.1c-0.02,0.46-0.06,0.91-0.12,1.33h-32.79
		c0.18,3.86,1.13,6.76,2.83,8.72c1.69,1.95,4.14,2.93,7.33,2.93c2.26,0,4.11-0.44,5.56-1.34
		C480.19,555.62,481.33,554.24,482.18,552.37 M463.03,537.56h19.33c-0.11-3.31-1-5.84-2.64-7.56c-1.65-1.73-4-2.6-7.07-2.6
		c-2.86,0-5.12,0.87-6.75,2.62C464.25,531.76,463.3,534.28,463.03,537.56"/>
	<path class="st0" d="M545.12,500.75v66.53h-12.46v-6.64c-1.9,2.86-4.03,4.96-6.4,6.3c-2.37,1.34-5.14,2.01-8.33,2.01
		c-6.05,0-10.95-2.4-14.7-7.18c-3.75-4.79-5.63-11.06-5.63-18.83c0-7.83,1.88-14.19,5.63-19.08c3.75-4.9,8.59-7.35,14.52-7.35
		c3.15,0,5.99,0.66,8.47,1.99c2.48,1.33,4.54,3.26,6.16,5.79v-23.54H545.12z M510.75,542.39c0,4.97,0.93,8.75,2.8,11.37
		c1.87,2.59,4.56,3.89,8.08,3.89c3.49,0,6.17-1.29,8-3.88c1.83-2.59,2.75-6.38,2.75-11.38c0-4.64-0.96-8.22-2.89-10.73
		c-1.92-2.52-4.64-3.77-8.13-3.77c-3.28,0-5.87,1.28-7.77,3.86C511.69,534.33,510.75,537.88,510.75,542.39"/>
	<rect x="552.55" y="500.75" class="st1" width="13.14" height="11.97"/>
	<rect x="552.55" y="518.18" class="st0" width="13.14" height="49.09"/>
	<path class="st0" d="M600.95,561.18c-1.66,2.56-3.82,4.51-6.5,5.85c-2.68,1.34-5.8,2.01-9.36,2.01c-4.76,0-8.42-1.36-10.99-4.07
		c-2.57-2.71-3.86-6.57-3.86-11.56c0-4.63,1.29-8.17,3.86-10.61c2.57-2.44,6.83-4.11,12.76-5.02c1.36-0.21,3.14-0.45,5.33-0.72
		c5.57-0.73,8.36-2.34,8.36-4.83c0-1.99-0.62-3.42-1.86-4.27c-1.23-0.85-3.29-1.29-6.18-1.29c-2.65,0-4.69,0.53-6.1,1.59
		c-1.42,1.05-2.13,2.55-2.13,4.51v0.72H572v-0.9c0-5.03,1.78-8.98,5.33-11.86c3.56-2.88,8.47-4.32,14.72-4.32
		c6.87,0,12.13,1.19,15.79,3.57c3.66,2.38,5.49,5.81,5.49,10.3v27.91c0,2.05,0.21,3.58,0.63,4.58c0.42,1.02,1.13,1.78,2.12,2.29
		v2.22H602.4c-0.45-0.85-0.8-1.79-1.04-2.81C601.11,563.45,600.98,562.36,600.95,561.18 M600.72,543.11c-2.14,1-4.59,1.79-7.38,2.4
		c-2.79,0.6-4.23,0.91-4.32,0.95c-2.31,0.66-3.93,1.49-4.85,2.49c-0.92,0.99-1.38,2.36-1.38,4.1c0,1.8,0.59,3.24,1.76,4.32
		c1.17,1.06,2.75,1.59,4.74,1.59c3.56,0,6.35-1,8.38-3c2.03-2.01,3.05-4.74,3.05-8.2V543.11z"/>
</g>
<g>
	<path class="st0" d="M358.92,16.82H100.55c-27.37,0-49.67,22.27-49.67,49.64v208.29c0,27.41,22.3,49.69,49.67,49.69h11.48
		c2.82,17.29,3.37,41.04-6.88,64.54c32.34-6.41,64.61-40.17,84.29-64.54h7.72v-47.32h-96.61c-1.28,0-2.32-1.05-2.32-2.37V66.46
		c0-1.28,1.03-2.31,2.32-2.31h258.37c1.28,0,2.3,1.02,2.3,2.31v208.29c0,1.31-1.02,2.37-2.3,2.37h-19.33v-17.87l-69.73,40.25
		l69.73,40.28v-15.34h19.33c27.37,0,49.64-22.28,49.64-49.69V66.46C408.56,39.09,386.3,16.82,358.92,16.82"/>
	<path class="st1" d="M518.08,120.06h-96.62v47.34h96.62c1.28,0,2.33,1.05,2.33,2.33v208.33c0,1.23-1.05,2.31-2.33,2.31H259.73
		c-1.28,0-2.33-1.09-2.33-2.31V169.72c0-1.28,1.05-2.33,2.33-2.33h17.99v15.5l69.73-40.28l-69.73-40.25v17.69h-17.99
		c-27.39,0-49.64,22.3-49.64,49.67v208.33c0,27.35,22.25,49.62,49.64,49.62h163.02c19.65,24.42,51.92,58.18,84.24,64.54
		c-10.23-23.45-9.7-47.26-6.87-64.54h17.97c27.37,0,49.64-22.26,49.64-49.62V169.72C567.72,142.35,545.46,120.06,518.08,120.06"/>
</g>
</svg>
