<?xml version="1.0" encoding="utf-8"?>
<!-- Generator: Adobe Illustrator 23.0.1, SVG Export Plug-In . SVG Version: 6.00 Build 0)  -->
<svg version="1.1" id="Layer_1" xmlns="http://www.w3.org/2000/svg" xmlns:xlink="http://www.w3.org/1999/xlink" x="0px" y="0px"
	 viewBox="0 0 258.94 170.08" style="enable-background:new 0 0 258.94 170.08;" xml:space="preserve">
<style type="text/css">
	.st0{fill:#F37021;}
	.st1{fill:#FFFFFF;}
</style>
<rect class="st0" width="258.94" height="170.08"/>
<g>
	<g>
		<path class="st1" d="M52.26,71.11v-8.18c0-5.3,3.86-8.56,10.18-8.56c6.42,0,10.23,3.25,10.23,8.56v8.18
			c0,5.3-3.81,8.51-10.23,8.51C56.11,79.62,52.26,76.41,52.26,71.11z M69.55,71.11v-8.23c0-3.53-2.74-5.67-7.11-5.67
			c-4.32,0-7.07,2.14-7.07,5.67v8.23c0,3.53,2.74,5.72,7.07,5.72C66.81,76.83,69.55,74.64,69.55,71.11z"/>
		<path class="st1" d="M79.18,78.13V58.51c0-1.44,0.37-1.95,1.77-2.56c1.81-0.74,4.46-1.58,8.65-1.58c6.37,0,9.25,3.39,9.25,9.11
			v14.65c0,0.65-0.23,0.84-0.84,0.84h-1.44c-0.65,0-0.84-0.19-0.84-0.84V63.58c0-4.18-2-6.37-6.51-6.37c-2.65,0-4.79,0.56-6.18,1.07
			c-0.65,0.28-0.74,0.65-0.74,1.16v18.69c0,0.65-0.19,0.84-0.84,0.84h-1.44C79.41,78.97,79.18,78.78,79.18,78.13z"/>
		<path class="st1" d="M104.71,73.85c-0.23-0.56-0.09-0.93,0.51-1.12l1.21-0.42c0.56-0.19,0.84-0.09,1.12,0.51
			c1.07,2.93,3.49,4.04,7.11,4.04c4.46,0,6.56-1.53,6.56-4.23c0-3.3-2.7-3.86-6.74-4.28c-4.7-0.46-9.39-1.12-9.39-7.02
			c0-4.28,3.07-6.97,9.16-6.97c5.35,0,8.14,2,9.48,5.07c0.33,0.6,0.14,0.98-0.42,1.21l-1.16,0.51c-0.65,0.23-0.84,0.14-1.16-0.42
			c-0.98-2.14-2.65-3.58-6.7-3.58c-4.09,0-6.09,1.44-6.09,4.09c0,3.67,2.93,4,7.02,4.37c5.07,0.46,9.02,1.53,9.02,6.88
			c0,4.32-3.07,7.11-9.53,7.11C109.63,79.62,106.24,77.85,104.71,73.85z"/>
		<path class="st1" d="M130,47.82v-0.28c0-1.39,0.37-1.72,1.72-1.72H132c1.35,0,1.72,0.33,1.72,1.72v0.28
			c0,1.35-0.37,1.72-1.72,1.72h-0.28C130.37,49.54,130,49.21,130,47.82z M130.28,78.13V55.91c0-0.65,0.23-0.84,0.84-0.84h1.44
			c0.65,0,0.84,0.19,0.84,0.84v22.22c0,0.65-0.19,0.84-0.84,0.84h-1.44C130.51,78.97,130.28,78.78,130.28,78.13z"/>
		<path class="st1" d="M140.51,85.48c-0.37-0.65-0.23-1.07,0.37-1.35l0.98-0.56c0.7-0.37,0.98-0.23,1.35,0.33
			c1.25,2.23,2.93,3.72,6.56,3.72c4.74,0,6.79-2.65,6.79-7.07v-2.88c-1.25,0.46-4,1.39-7.35,1.39c-6.37,0-9.21-3.39-9.21-9.07V63.9
			c0-6.18,3.21-9.53,10.04-9.53c3.44,0,6.18,0.7,7.86,1.4c1.49,0.65,1.77,1.02,1.77,2.56v22.08c0,6.04-2.79,10.04-9.81,10.04
			C144.84,90.45,142.14,88.45,140.51,85.48z M156.55,74.83V59.35c0-0.74-0.09-0.88-0.88-1.21c-1.26-0.46-3.16-0.93-5.44-0.93
			c-4.84,0-7.11,2.28-7.11,6.74v5.95c0,4.04,2.09,6.32,6.46,6.32C152.92,76.22,155.44,75.25,156.55,74.83z"/>
		<path class="st1" d="M166.97,78.13V45.4c0-0.65,0.19-0.84,0.84-0.84h1.44c0.6,0,0.84,0.19,0.84,0.84v10.27
			c1.4-0.65,4.04-1.3,7.3-1.3c6.37,0,9.21,3.35,9.21,9.11v14.65c0,0.65-0.19,0.84-0.84,0.84h-1.44c-0.6,0-0.84-0.19-0.84-0.84V63.58
			c0-4.09-2.05-6.37-6.51-6.37c-2.88,0-5.39,0.65-6.88,1.39v19.53c0,0.65-0.23,0.84-0.84,0.84h-1.44
			C167.16,78.97,166.97,78.78,166.97,78.13z"/>
		<path class="st1" d="M195.85,69.43V57.95h-4.42c-0.6,0-0.84-0.23-0.84-0.84v-1.21c0-0.65,0.23-0.84,0.84-0.84h4.42v-4.74
			c0-0.65,0.23-0.84,0.84-0.84h1.44c0.65,0,0.84,0.19,0.84,0.84v4.74h6.7c0.65,0,0.84,0.19,0.84,0.84v1.21
			c0,0.6-0.19,0.84-0.84,0.84h-6.7v11.39c0,5.53,1.58,6.65,6.65,6.65c0.65,0,0.84,0.23,0.84,0.84v1.26c0,0.65-0.19,0.88-0.84,0.88
			C198.36,78.97,195.85,76.97,195.85,69.43z"/>
	</g>
	<g>
		<g>
			<path class="st1" d="M90.58,104.77h7.2h0.3v0.6h-0.3h-7.2v19.57v0.3h-0.6v-0.3v-19.57h-7.26h-0.3v-0.6h0.3h7.26H90.58z"/>
			<path class="st1" d="M105.04,105.07v-0.3h0.6v0.3v19.87v0.3h-0.6v-0.3V105.07z"/>
			<path class="st1" d="M115.55,124.94v0.3h-0.6v-0.3v-19.87c0-0.27,0.39-0.39,0.54-0.18l13.88,19.12l0.03-18.94v-0.3h0.6v0.3
				l-0.03,19.87c0,0.27-0.39,0.39-0.54,0.18L115.55,106V124.94z"/>
			<path class="st1" d="M142.68,115.31h-3.05v9.64v0.3h-0.6v-0.3v-9.64v-0.6v-9.64v-0.3h0.6v0.3v9.64h3.05l10.29-9.85l0.09-0.09
				h0.87l-0.54,0.51l-10.18,9.73l10.18,9.73l0.54,0.51h-0.87l-0.09-0.09L142.68,115.31z"/>
			<path class="st1" d="M158.88,125.06l-0.06,0.18h-0.66l0.18-0.42l8.73-19.87c0.09-0.21,0.45-0.21,0.54,0l8.73,19.87l0.18,0.42
				h-0.66l-0.06-0.18l-8.46-19.24L158.88,125.06z"/>
		</g>
	</g>
</g>
</svg>
